# "$Id: 5x7.bdf,v 1.38 2006-01-05 20:03:17+00 mgk25 Rel $"
# "Send bug reports to Markus Kuhn <http://www.cl.cam.ac.uk/~mgk25/>"

name: Fixed Medium 7
family: Fixed
foundry: Misc
copyright: Public domain font.  Share and enjoy.
point-size: 7
weight: medium
slant: roman
setwidth: normal
dpi: 75 75
spacing: character-cell
raster-size: 5 7
average-advance: 5
x-height: 4
cap-height: 6
ascent: 6
descent: 1
encoding: iso10646-1
default-char: 0x00
converter: monobit v0.20
source-name: 5x7.bdf
source-format: BDF v2.1
history: load-bdf
bdf.FONTNAME_REGISTRY: """"
bdf.DESTINATION: 1
bdf._XMBDFED_INFO: ""Edited with xmbdfed 4.5.""

0x00:
char0:
    .....
    @.@.@
    .....
    @...@
    .....
    @.@.@
    .....

    offset: 0 -1


u+0020:
space:
    .....
    .....
    .....
    .....
    .....
    .....
    .....

    offset: 0 -1


u+0021:
exclam:
    ..@..
    ..@..
    ..@..
    ..@..
    .....
    ..@..
    .....

    offset: 0 -1


u+0022:
quotedbl:
    .@.@.
    .@.@.
    .@.@.
    .....
    .....
    .....
    .....

    offset: 0 -1


u+0023:
numbersign:
    .....
    .@.@.
    @@@@@
    .@.@.
    @@@@@
    .@.@.
    .....

    offset: 0 -1


u+0024:
dollar:
    .....
    .@@@.
    @.@..
    .@@@.
    ..@.@
    .@@@.
    .....

    offset: 0 -1


u+0025:
percent:
    @....
    @..@.
    ..@..
    .@...
    @..@.
    ...@.
    .....

    offset: 0 -1


u+0026:
ampersand:
    .....
    .@...
    @.@..
    .@...
    @.@..
    .@.@.
    .....

    offset: 0 -1


u+0027:
quotesingle:
    ..@..
    ..@..
    ..@..
    .....
    .....
    .....
    .....

    offset: 0 -1


u+0028:
parenleft:
    ..@..
    .@...
    .@...
    .@...
    .@...
    ..@..
    .....

    offset: 0 -1


u+0029:
parenright:
    .@...
    ..@..
    ..@..
    ..@..
    ..@..
    .@...
    .....

    offset: 0 -1


u+002a:
asterisk:
    .....
    .@.@.
    ..@..
    .@@@.
    ..@..
    .@.@.
    .....

    offset: 0 -1


u+002b:
plus:
    .....
    ..@..
    ..@..
    @@@@@
    ..@..
    ..@..
    .....

    offset: 0 -1


u+002c:
comma:
    .....
    .....
    .....
    .....
    ..@@.
    ..@..
    .@...

    offset: 0 -1


u+002d:
hyphen:
    .....
    .....
    .....
    @@@@.
    .....
    .....
    .....

    offset: 0 -1


u+002e:
period:
    .....
    .....
    .....
    .....
    .@@..
    .@@..
    .....

    offset: 0 -1


u+002f:
slash:
    .....
    ...@.
    ..@..
    .@...
    @....
    .....
    .....

    offset: 0 -1


u+0030:
zero:
    ..@..
    .@.@.
    .@.@.
    .@.@.
    .@.@.
    ..@..
    .....

    offset: 0 -1


u+0031:
one:
    ..@..
    .@@..
    ..@..
    ..@..
    ..@..
    .@@@.
    .....

    offset: 0 -1


u+0032:
two:
    .@@..
    @..@.
    ...@.
    ..@..
    .@...
    @@@@.
    .....

    offset: 0 -1


u+0033:
three:
    @@@@.
    ...@.
    .@@..
    ...@.
    @..@.
    .@@..
    .....

    offset: 0 -1


u+0034:
four:
    ..@..
    .@@..
    @.@..
    @@@@.
    ..@..
    ..@..
    .....

    offset: 0 -1


u+0035:
five:
    @@@@.
    @....
    @@@..
    ...@.
    @..@.
    .@@..
    .....

    offset: 0 -1


u+0036:
six:
    .@@..
    @....
    @@@..
    @..@.
    @..@.
    .@@..
    .....

    offset: 0 -1


u+0037:
seven:
    @@@@.
    ...@.
    ..@..
    ..@..
    .@...
    .@...
    .....

    offset: 0 -1


u+0038:
eight:
    .@@..
    @..@.
    .@@..
    @..@.
    @..@.
    .@@..
    .....

    offset: 0 -1


u+0039:
nine:
    .@@..
    @..@.
    @..@.
    .@@@.
    ...@.
    .@@..
    .....

    offset: 0 -1


u+003a:
colon:
    .....
    .@@..
    .@@..
    .....
    .@@..
    .@@..
    .....

    offset: 0 -1


u+003b:
semicolon:
    .....
    .@@..
    .@@..
    .....
    .@@..
    .@...
    @....

    offset: 0 -1


u+003c:
less:
    .....
    ...@.
    ..@..
    .@...
    ..@..
    ...@.
    .....

    offset: 0 -1


u+003d:
equal:
    .....
    .....
    @@@@.
    .....
    @@@@.
    .....
    .....

    offset: 0 -1


u+003e:
greater:
    .....
    .@...
    ..@..
    ...@.
    ..@..
    .@...
    .....

    offset: 0 -1


u+003f:
question:
    ..@..
    .@.@.
    ...@.
    ..@..
    .....
    ..@..
    .....

    offset: 0 -1


u+0040:
at:
    .@@..
    @..@.
    @.@@.
    @.@@.
    @....
    .@@..
    .....

    offset: 0 -1


u+0041:
"A":
    .@@..
    @..@.
    @..@.
    @@@@.
    @..@.
    @..@.
    .....

    offset: 0 -1


u+0042:
"B":
    @@@..
    @..@.
    @@@..
    @..@.
    @..@.
    @@@..
    .....

    offset: 0 -1


u+0043:
"C":
    .@@..
    @..@.
    @....
    @....
    @..@.
    .@@..
    .....

    offset: 0 -1


u+0044:
"D":
    @@@..
    @..@.
    @..@.
    @..@.
    @..@.
    @@@..
    .....

    offset: 0 -1


u+0045:
"E":
    @@@@.
    @....
    @@@..
    @....
    @....
    @@@@.
    .....

    offset: 0 -1


u+0046:
"F":
    @@@@.
    @....
    @@@..
    @....
    @....
    @....
    .....

    offset: 0 -1


u+0047:
"G":
    .@@..
    @..@.
    @....
    @.@@.
    @..@.
    .@@@.
    .....

    offset: 0 -1


u+0048:
"H":
    @..@.
    @..@.
    @@@@.
    @..@.
    @..@.
    @..@.
    .....

    offset: 0 -1


u+0049:
"I":
    .@@@.
    ..@..
    ..@..
    ..@..
    ..@..
    .@@@.
    .....

    offset: 0 -1


u+004a:
"J":
    ...@.
    ...@.
    ...@.
    ...@.
    @..@.
    .@@..
    .....

    offset: 0 -1


u+004b:
"K":
    @..@.
    @.@..
    @@...
    @@...
    @.@..
    @..@.
    .....

    offset: 0 -1


u+004c:
"L":
    @....
    @....
    @....
    @....
    @....
    @@@@.
    .....

    offset: 0 -1


u+004d:
"M":
    @..@.
    @@@@.
    @@@@.
    @..@.
    @..@.
    @..@.
    .....

    offset: 0 -1


u+004e:
"N":
    @..@.
    @@.@.
    @@.@.
    @.@@.
    @.@@.
    @..@.
    .....

    offset: 0 -1


u+004f:
"O":
    .@@..
    @..@.
    @..@.
    @..@.
    @..@.
    .@@..
    .....

    offset: 0 -1


u+0050:
"P":
    @@@..
    @..@.
    @..@.
    @@@..
    @....
    @....
    .....

    offset: 0 -1


u+0051:
"Q":
    .@@..
    @..@.
    @..@.
    @..@.
    @@.@.
    .@@..
    ...@.

    offset: 0 -1


u+0052:
"R":
    @@@..
    @..@.
    @..@.
    @@@..
    @.@..
    @..@.
    .....

    offset: 0 -1


u+0053:
"S":
    .@@..
    @..@.
    .@...
    ..@..
    @..@.
    .@@..
    .....

    offset: 0 -1


u+0054:
"T":
    .@@@.
    ..@..
    ..@..
    ..@..
    ..@..
    ..@..
    .....

    offset: 0 -1


u+0055:
"U":
    @..@.
    @..@.
    @..@.
    @..@.
    @..@.
    .@@..
    .....

    offset: 0 -1


u+0056:
"V":
    @..@.
    @..@.
    @..@.
    @..@.
    .@@..
    .@@..
    .....

    offset: 0 -1


u+0057:
"W":
    @..@.
    @..@.
    @..@.
    @@@@.
    @@@@.
    @..@.
    .....

    offset: 0 -1


u+0058:
"X":
    @..@.
    @..@.
    .@@..
    .@@..
    @..@.
    @..@.
    .....

    offset: 0 -1


u+0059:
"Y":
    .@.@.
    .@.@.
    .@.@.
    ..@..
    ..@..
    ..@..
    .....

    offset: 0 -1


u+005a:
"Z":
    @@@@.
    ...@.
    ..@..
    .@...
    @....
    @@@@.
    .....

    offset: 0 -1


u+005b:
bracketleft:
    .@@@.
    .@...
    .@...
    .@...
    .@...
    .@@@.
    .....

    offset: 0 -1


u+005c:
backslash:
    .....
    @....
    .@...
    ..@..
    ...@.
    .....
    .....

    offset: 0 -1


u+005d:
bracketright:
    .@@@.
    ...@.
    ...@.
    ...@.
    ...@.
    .@@@.
    .....

    offset: 0 -1


u+005e:
asciicircum:
    ..@..
    .@.@.
    .....
    .....
    .....
    .....
    .....

    offset: 0 -1


u+005f:
underscore:
    .....
    .....
    .....
    .....
    .....
    @@@@.
    .....

    offset: 0 -1


u+0060:
grave:
    .@...
    ..@..
    .....
    .....
    .....
    .....
    .....

    offset: 0 -1


u+0061:
"a":
    .....
    .....
    .@@@.
    @..@.
    @.@@.
    .@.@.
    .....

    offset: 0 -1


u+0062:
"b":
    @....
    @....
    @@@..
    @..@.
    @..@.
    @@@..
    .....

    offset: 0 -1


u+0063:
"c":
    .....
    .....
    .@@..
    @....
    @....
    .@@..
    .....

    offset: 0 -1


u+0064:
"d":
    ...@.
    ...@.
    .@@@.
    @..@.
    @..@.
    .@@@.
    .....

    offset: 0 -1


u+0065:
"e":
    .....
    .....
    .@@..
    @.@@.
    @@...
    .@@..
    .....

    offset: 0 -1


u+0066:
"f":
    ..@..
    .@.@.
    .@...
    @@@..
    .@...
    .@...
    .....

    offset: 0 -1


u+0067:
"g":
    .....
    .....
    .@@@.
    @..@.
    .@@..
    @....
    .@@@.

    offset: 0 -1


u+0068:
"h":
    @....
    @....
    @@@..
    @..@.
    @..@.
    @..@.
    .....

    offset: 0 -1


u+0069:
"i":
    ..@..
    .....
    .@@..
    ..@..
    ..@..
    .@@@.
    .....

    offset: 0 -1


u+006a:
"j":
    ...@.
    .....
    ...@.
    ...@.
    ...@.
    .@.@.
    ..@..

    offset: 0 -1


u+006b:
"k":
    @....
    @....
    @.@..
    @@...
    @.@..
    @..@.
    .....

    offset: 0 -1


u+006c:
"l":
    .@@..
    ..@..
    ..@..
    ..@..
    ..@..
    .@@@.
    .....

    offset: 0 -1


u+006d:
"m":
    .....
    .....
    @.@..
    @@@@.
    @..@.
    @..@.
    .....

    offset: 0 -1


u+006e:
"n":
    .....
    .....
    @@@..
    @..@.
    @..@.
    @..@.
    .....

    offset: 0 -1


u+006f:
"o":
    .....
    .....
    .@@..
    @..@.
    @..@.
    .@@..
    .....

    offset: 0 -1


u+0070:
"p":
    .....
    .....
    @@@..
    @..@.
    @..@.
    @@@..
    @....

    offset: 0 -1


u+0071:
"q":
    .....
    .....
    .@@@.
    @..@.
    @..@.
    .@@@.
    ...@.

    offset: 0 -1


u+0072:
"r":
    .....
    .....
    @@@..
    @..@.
    @....
    @....
    .....

    offset: 0 -1


u+0073:
"s":
    .....
    .....
    .@@@.
    @@...
    ..@@.
    @@@..
    .....

    offset: 0 -1


u+0074:
"t":
    .@...
    .@...
    @@@..
    .@...
    .@...
    ..@@.
    .....

    offset: 0 -1


u+0075:
"u":
    .....
    .....
    @..@.
    @..@.
    @..@.
    .@@@.
    .....

    offset: 0 -1


u+0076:
"v":
    .....
    .....
    .@.@.
    .@.@.
    .@.@.
    ..@..
    .....

    offset: 0 -1


u+0077:
"w":
    .....
    .....
    @..@.
    @..@.
    @@@@.
    @@@@.
    .....

    offset: 0 -1


u+0078:
"x":
    .....
    .....
    @..@.
    .@@..
    .@@..
    @..@.
    .....

    offset: 0 -1


u+0079:
"y":
    .....
    .....
    @..@.
    @..@.
    .@.@.
    ..@..
    .@...

    offset: 0 -1


u+007a:
"z":
    .....
    .....
    @@@@.
    ..@..
    .@...
    @@@@.
    .....

    offset: 0 -1


u+007b:
braceleft:
    ...@.
    ..@..
    .@@..
    ..@..
    ..@..
    ...@.
    .....

    offset: 0 -1


u+007c:
bar:
    ..@..
    ..@..
    ..@..
    ..@..
    ..@..
    ..@..
    .....

    offset: 0 -1


u+007d:
braceright:
    .@...
    ..@..
    ..@@.
    ..@..
    ..@..
    .@...
    .....

    offset: 0 -1


u+007e:
asciitilde:
    .@.@.
    @.@..
    .....
    .....
    .....
    .....
    .....

    offset: 0 -1


u+00a0:
space:
    .....
    .....
    .....
    .....
    .....
    .....
    .....

    offset: 0 -1


u+00a1:
exclamdown:
    ..@..
    .....
    ..@..
    ..@..
    ..@..
    ..@..
    .....

    offset: 0 -1


u+00a2:
cent:
    .....
    ..@..
    .@@@.
    @.@..
    @.@..
    .@@@.
    ..@..

    offset: 0 -1


u+00a3:
sterling:
    .....
    ..@@.
    .@...
    @@@..
    .@...
    @.@@.
    .....

    offset: 0 -1


u+00a4:
currency:
    .....
    @...@
    .@@@.
    .@.@.
    .@@@.
    @...@
    .....

    offset: 0 -1


u+00a5:
yen:
    .@.@.
    .@.@.
    ..@..
    .@@@.
    ..@..
    ..@..
    .....

    offset: 0 -1


u+00a6:
brokenbar:
    .....
    ..@..
    ..@..
    .....
    ..@..
    ..@..
    .....

    offset: 0 -1


u+00a7:
section:
    ..@@.
    .@...
    .@@..
    .@.@.
    ..@@.
    ...@.
    .@@..

    offset: 0 -1


u+00a8:
dieresis:
    .@.@.
    .....
    .....
    .....
    .....
    .....
    .....

    offset: 0 -1


u+00a9:
copyright:
    .@@@.
    @...@
    @.@.@
    @@..@
    @.@.@
    @...@
    .@@@.

    offset: 0 -1


u+00aa:
ordfeminine:
    .@@..
    @.@..
    .@@..
    .....
    .....
    .....
    .....

    offset: 0 -1


u+00ab:
guillemotleft:
    .....
    .....
    .@..@
    @..@.
    .@..@
    .....
    .....

    offset: 0 -1


u+00ac:
logicalnot:
    .....
    .....
    .....
    @@@@.
    ...@.
    .....
    .....

    offset: 0 -1


u+00ad:
hyphen:
    .....
    .....
    .....
    .@@@.
    .....
    .....
    .....

    offset: 0 -1


u+00ae:
registered:
    .@@@.
    @...@
    @@@.@
    @@..@
    @@..@
    @...@
    .@@@.

    offset: 0 -1


u+00af:
macron:
    @@@@.
    .....
    .....
    .....
    .....
    .....
    .....

    offset: 0 -1


u+00b0:
degree:
    ..@..
    .@.@.
    ..@..
    .....
    .....
    .....
    .....

    offset: 0 -1


u+00b1:
plusminus:
    ..@..
    ..@..
    @@@@@
    ..@..
    ..@..
    @@@@@
    .....

    offset: 0 -1


u+00b2:
twosuperior:
    .@@..
    ..@..
    .@...
    .@@..
    .....
    .....
    .....

    offset: 0 -1


u+00b3:
threesuperior:
    .@@..
    .@@..
    ..@..
    .@@..
    .....
    .....
    .....

    offset: 0 -1


u+00b4:
acute:
    ..@..
    .@...
    .....
    .....
    .....
    .....
    .....

    offset: 0 -1


u+00b5:
mu:
    .....
    .....
    @..@.
    @..@.
    @..@.
    @@@..
    @....

    offset: 0 -1


u+00b6:
paragraph:
    .@@@.
    @@.@.
    @@.@.
    .@.@.
    .@.@.
    .@.@.
    .....

    offset: 0 -1


u+00b7:
periodcentered:
    .....
    .....
    .@@..
    .@@..
    .....
    .....
    .....

    offset: 0 -1


u+00b8:
cedilla:
    .....
    .....
    .....
    .....
    .....
    ..@..
    .@...

    offset: 0 -1


u+00b9:
onesuperior:
    ..@..
    .@@..
    ..@..
    .@@@.
    .....
    .....
    .....

    offset: 0 -1


u+00ba:
ordmasculine:
    .@...
    @.@..
    .@...
    .....
    .....
    .....
    .....

    offset: 0 -1


u+00bb:
guillemotright:
    .....
    .....
    @..@.
    .@..@
    @..@.
    .....
    .....

    offset: 0 -1


u+00bc:
onequarter:
    @....
    @....
    @....
    @..@.
    ..@@.
    .@@@.
    ...@.

    offset: 0 -1


u+00bd:
onehalf:
    @....
    @....
    @....
    @.@@.
    ...@.
    ..@..
    ..@@.

    offset: 0 -1


u+00be:
threequarters:
    @@...
    @@...
    .@...
    @@.@.
    ..@@.
    .@@@.
    ...@.

    offset: 0 -1


u+00bf:
questiondown:
    ..@..
    .....
    ..@..
    .@...
    .@.@.
    ..@..
    .....

    offset: 0 -1


u+00c0:
Agrave:
    .@@..
    @..@.
    @..@.
    @@@@.
    @..@.
    @..@.
    .....

    offset: 0 -1


u+00c1:
Aacute:
    .@@..
    @..@.
    @..@.
    @@@@.
    @..@.
    @..@.
    .....

    offset: 0 -1


u+00c2:
Acircumflex:
    .@@..
    @..@.
    @..@.
    @@@@.
    @..@.
    @..@.
    .....

    offset: 0 -1


u+00c3:
Atilde:
    .@@..
    @..@.
    @..@.
    @@@@.
    @..@.
    @..@.
    .....

    offset: 0 -1


u+00c4:
Adieresis:
    @..@.
    .@@..
    @..@.
    @@@@.
    @..@.
    @..@.
    .....

    offset: 0 -1


u+00c5:
Aring:
    .@@..
    .@@..
    @..@.
    @@@@.
    @..@.
    @..@.
    .....

    offset: 0 -1


u+00c6:
AE:
    .@@@.
    @.@..
    @.@@.
    @@@..
    @.@..
    @.@@.
    .....

    offset: 0 -1


u+00c7:
Ccedilla:
    .@@..
    @..@.
    @....
    @....
    @..@.
    .@@..
    .@...

    offset: 0 -1


u+00c8:
Egrave:
    @@@@.
    @....
    @@@..
    @....
    @....
    @@@@.
    .....

    offset: 0 -1


u+00c9:
Eacute:
    @@@@.
    @....
    @@@..
    @....
    @....
    @@@@.
    .....

    offset: 0 -1


u+00ca:
Ecircumflex:
    @@@@.
    @....
    @@@..
    @....
    @....
    @@@@.
    .....

    offset: 0 -1


u+00cb:
Edieresis:
    @@@@.
    @....
    @@@..
    @....
    @....
    @@@@.
    .....

    offset: 0 -1


u+00cc:
Igrave:
    .@@@.
    ..@..
    ..@..
    ..@..
    ..@..
    .@@@.
    .....

    offset: 0 -1


u+00cd:
Iacute:
    .@@@.
    ..@..
    ..@..
    ..@..
    ..@..
    .@@@.
    .....

    offset: 0 -1


u+00ce:
Icircumflex:
    .@@@.
    ..@..
    ..@..
    ..@..
    ..@..
    .@@@.
    .....

    offset: 0 -1


u+00cf:
Idieresis:
    .@@@.
    ..@..
    ..@..
    ..@..
    ..@..
    .@@@.
    .....

    offset: 0 -1


u+00d0:
Eth:
    @@@..
    .@.@.
    @@.@.
    .@.@.
    .@.@.
    @@@..
    .....

    offset: 0 -1


u+00d1:
Ntilde:
    @.@@.
    @..@.
    @@.@.
    @.@@.
    @.@@.
    @..@.
    .....

    offset: 0 -1


u+00d2:
Ograve:
    .@@..
    @..@.
    @..@.
    @..@.
    @..@.
    .@@..
    .....

    offset: 0 -1


u+00d3:
Oacute:
    .@@..
    @..@.
    @..@.
    @..@.
    @..@.
    .@@..
    .....

    offset: 0 -1


u+00d4:
Ocircumflex:
    .@@..
    @..@.
    @..@.
    @..@.
    @..@.
    .@@..
    .....

    offset: 0 -1


u+00d5:
Otilde:
    .@@..
    @..@.
    @..@.
    @..@.
    @..@.
    .@@..
    .....

    offset: 0 -1


u+00d6:
Odieresis:
    @..@.
    .@@..
    @..@.
    @..@.
    @..@.
    .@@..
    .....

    offset: 0 -1


u+00d7:
multiply:
    .....
    .....
    @..@.
    .@@..
    .@@..
    @..@.
    .....

    offset: 0 -1


u+00d8:
Oslash:
    .@@@.
    @.@@.
    @.@@.
    @@.@.
    @@.@.
    @@@..
    .....

    offset: 0 -1


u+00d9:
Ugrave:
    @..@.
    @..@.
    @..@.
    @..@.
    @..@.
    .@@..
    .....

    offset: 0 -1


u+00da:
Uacute:
    @..@.
    @..@.
    @..@.
    @..@.
    @..@.
    .@@..
    .....

    offset: 0 -1


u+00db:
Ucircumflex:
    @..@.
    @..@.
    @..@.
    @..@.
    @..@.
    .@@..
    .....

    offset: 0 -1


u+00dc:
Udieresis:
    @..@.
    .....
    @..@.
    @..@.
    @..@.
    .@@..
    .....

    offset: 0 -1


u+00dd:
Yacute:
    .@.@.
    .@.@.
    .@.@.
    ..@..
    ..@..
    ..@..
    .....

    offset: 0 -1


u+00de:
Thorn:
    @....
    @@@..
    @..@.
    @@@..
    @....
    @....
    .....

    offset: 0 -1


u+00df:
germandbls:
    .@@..
    @..@.
    @.@..
    @..@.
    @..@.
    @.@..
    .....

    offset: 0 -1


u+00e0:
agrave:
    .@...
    ..@..
    .@@@.
    @..@.
    @.@@.
    .@.@.
    .....

    offset: 0 -1


u+00e1:
aacute:
    ..@..
    .@...
    .@@@.
    @..@.
    @.@@.
    .@.@.
    .....

    offset: 0 -1


u+00e2:
acircumflex:
    ..@..
    .@.@.
    .@@@.
    @..@.
    @.@@.
    .@.@.
    .....

    offset: 0 -1


u+00e3:
atilde:
    .@.@.
    @.@..
    .@@@.
    @..@.
    @.@@.
    .@.@.
    .....

    offset: 0 -1


u+00e4:
adieresis:
    .@.@.
    .....
    .@@@.
    @..@.
    @.@@.
    .@.@.
    .....

    offset: 0 -1


u+00e5:
aring:
    .@@..
    .@@..
    .@@@.
    @..@.
    @.@@.
    .@.@.
    .....

    offset: 0 -1


u+00e6:
ae:
    .....
    .....
    .@@@.
    @.@@.
    @.@..
    .@@@.
    .....

    offset: 0 -1


u+00e7:
ccedilla:
    .....
    .....
    ..@@.
    .@...
    .@...
    ..@@.
    ..@..

    offset: 0 -1


u+00e8:
egrave:
    .@...
    ..@..
    .@@..
    @.@@.
    @@...
    .@@..
    .....

    offset: 0 -1


u+00e9:
eacute:
    ..@..
    .@...
    .@@..
    @.@@.
    @@...
    .@@..
    .....

    offset: 0 -1


u+00ea:
ecircumflex:
    .@...
    @.@..
    .@@..
    @.@@.
    @@...
    .@@..
    .....

    offset: 0 -1


u+00eb:
edieresis:
    @.@..
    .....
    .@@..
    @.@@.
    @@...
    .@@..
    .....

    offset: 0 -1


u+00ec:
igrave:
    .@...
    ..@..
    .@@..
    ..@..
    ..@..
    .@@@.
    .....

    offset: 0 -1


u+00ed:
iacute:
    ..@..
    .@...
    .@@..
    ..@..
    ..@..
    .@@@.
    .....

    offset: 0 -1


u+00ee:
icircumflex:
    ..@..
    .@.@.
    .@@..
    ..@..
    ..@..
    .@@@.
    .....

    offset: 0 -1


u+00ef:
idieresis:
    .@.@.
    .....
    .@@..
    ..@..
    ..@..
    .@@@.
    .....

    offset: 0 -1


u+00f0:
eth:
    .@...
    ..@@.
    .@@..
    @..@.
    @..@.
    .@@..
    .....

    offset: 0 -1


u+00f1:
ntilde:
    .@.@.
    @.@..
    @@@..
    @..@.
    @..@.
    @..@.
    .....

    offset: 0 -1


u+00f2:
ograve:
    .@...
    ..@..
    .@@..
    @..@.
    @..@.
    .@@..
    .....

    offset: 0 -1


u+00f3:
oacute:
    ..@..
    .@...
    .@@..
    @..@.
    @..@.
    .@@..
    .....

    offset: 0 -1


u+00f4:
ocircumflex:
    .@@..
    .....
    .@@..
    @..@.
    @..@.
    .@@..
    .....

    offset: 0 -1


u+00f5:
otilde:
    .@.@.
    @.@..
    .@@..
    @..@.
    @..@.
    .@@..
    .....

    offset: 0 -1


u+00f6:
odieresis:
    .@.@.
    .....
    .@@..
    @..@.
    @..@.
    .@@..
    .....

    offset: 0 -1


u+00f7:
divide:
    .....
    .@@..
    .....
    @@@@.
    .....
    .@@..
    .....

    offset: 0 -1


u+00f8:
oslash:
    .....
    .....
    .@@@.
    @.@@.
    @@.@.
    @@@..
    .....

    offset: 0 -1


u+00f9:
ugrave:
    .@...
    ..@..
    @..@.
    @..@.
    @..@.
    .@@@.
    .....

    offset: 0 -1


u+00fa:
uacute:
    ..@..
    .@...
    @..@.
    @..@.
    @..@.
    .@@@.
    .....

    offset: 0 -1


u+00fb:
ucircumflex:
    .@@..
    .....
    @..@.
    @..@.
    @..@.
    .@@@.
    .....

    offset: 0 -1


u+00fc:
udieresis:
    .@.@.
    .....
    @..@.
    @..@.
    @..@.
    .@@@.
    .....

    offset: 0 -1


u+00fd:
yacute:
    ..@..
    .@...
    @..@.
    @..@.
    .@.@.
    ..@..
    .@...

    offset: 0 -1


u+00fe:
thorn:
    .....
    @....
    @@@..
    @..@.
    @..@.
    @@@..
    @....

    offset: 0 -1


u+00ff:
ydieresis:
    .@.@.
    .....
    @..@.
    @..@.
    .@.@.
    ..@..
    .@...

    offset: 0 -1


u+0100:
Amacron:
    .@@..
    @..@.
    @..@.
    @@@@.
    @..@.
    @..@.
    .....

    offset: 0 -1


u+0101:
amacron:
    .@@@.
    .....
    .@@@.
    @..@.
    @.@@.
    .@.@.
    .....

    offset: 0 -1


u+0102:
Abreve:
    .@@..
    @..@.
    @..@.
    @@@@.
    @..@.
    @..@.
    .....

    offset: 0 -1


u+0103:
abreve:
    @..@.
    .@@..
    .@@@.
    @..@.
    @.@@.
    .@.@.
    .....

    offset: 0 -1


u+0104:
Aogonek:
    .@@..
    @..@.
    @..@.
    @@@@.
    @..@.
    @..@.
    ...@.

    offset: 0 -1


u+0105:
aogonek:
    .....
    .....
    .@@@.
    @..@.
    @.@@.
    .@.@.
    ....@

    offset: 0 -1


u+0106:
Cacute:
    .@@..
    @..@.
    @....
    @....
    @..@.
    .@@..
    .....

    offset: 0 -1


u+0107:
cacute:
    ...@.
    ..@..
    ..@@.
    .@...
    .@...
    ..@@.
    .....

    offset: 0 -1


u+0108:
Ccircumflex:
    .@@..
    @..@.
    @....
    @....
    @..@.
    .@@..
    .....

    offset: 0 -1


u+0109:
ccircumflex:
    .@@..
    .....
    .@@..
    @....
    @....
    .@@..
    .....

    offset: 0 -1


u+010a:
Cdotaccent:
    .@@..
    @..@.
    @....
    @....
    @..@.
    .@@..
    .....

    offset: 0 -1


u+010b:
cdotaccent:
    .@...
    .....
    .@@..
    @....
    @....
    .@@..
    .....

    offset: 0 -1


u+010c:
Ccaron:
    .@@..
    @..@.
    @....
    @....
    @..@.
    .@@..
    .....

    offset: 0 -1


u+010d:
ccaron:
    @.@..
    .@...
    .@@..
    @....
    @....
    .@@..
    .....

    offset: 0 -1


u+010e:
Dcaron:
    @@@..
    @..@.
    @..@.
    @..@.
    @..@.
    @@@..
    .....

    offset: 0 -1


u+010f:
dcaron:
    @.@..
    .@.@.
    ...@.
    .@@@.
    @..@.
    .@@@.
    .....

    offset: 0 -1


u+0110:
Dcroat:
    @@@..
    @..@.
    @@.@.
    @..@.
    @..@.
    @@@..
    .....

    offset: 0 -1


u+0111:
dcroat:
    ...@.
    ..@@@
    ...@.
    .@@@.
    @..@.
    .@@@.
    .....

    offset: 0 -1


u+0112:
Emacron:
    @@@@.
    @....
    @@@..
    @....
    @....
    @@@@.
    .....

    offset: 0 -1


u+0113:
emacron:
    @@@..
    .....
    .@@..
    @.@@.
    @@...
    .@@..
    .....

    offset: 0 -1


u+0114:
Ebreve:
    @@@@.
    @....
    @@@..
    @....
    @....
    @@@@.
    .....

    offset: 0 -1


u+0115:
ebreve:
    @..@.
    .@@..
    .@@..
    @.@@.
    @@...
    .@@..
    .....

    offset: 0 -1


u+0116:
Edotaccent:
    @@@@.
    @....
    @@@..
    @....
    @....
    @@@@.
    .....

    offset: 0 -1


u+0117:
edotaccent:
    .@...
    .....
    .@@..
    @.@@.
    @@...
    .@@..
    .....

    offset: 0 -1


u+0118:
Eogonek:
    @@@@.
    @....
    @@@..
    @....
    @....
    @@@@.
    .@...

    offset: 0 -1


u+0119:
eogonek:
    .....
    .....
    .@@..
    @.@@.
    @@...
    .@@..
    .@...

    offset: 0 -1


u+011a:
Ecaron:
    @@@@.
    @....
    @@@..
    @....
    @....
    @@@@.
    .....

    offset: 0 -1


u+011b:
ecaron:
    @.@..
    .@...
    .@@..
    @.@@.
    @@...
    .@@..
    .....

    offset: 0 -1


u+011c:
Gcircumflex:
    .@@..
    @..@.
    @....
    @.@@.
    @..@.
    .@@@.
    .....

    offset: 0 -1


u+011d:
gcircumflex:
    .@@..
    .....
    .@@@.
    @..@.
    .@@..
    @....
    .@@@.

    offset: 0 -1


u+011e:
Gbreve:
    .@@..
    @..@.
    @....
    @.@@.
    @..@.
    .@@@.
    .....

    offset: 0 -1


u+011f:
gbreve:
    .@.@.
    ..@..
    .@@@.
    @..@.
    .@@..
    @....
    .@@@.

    offset: 0 -1


u+0120:
Gdotaccent:
    .@@..
    @..@.
    @....
    @.@@.
    @..@.
    .@@@.
    .....

    offset: 0 -1


u+0121:
gdotaccent:
    ..@..
    .....
    .@@@.
    @..@.
    .@@..
    @....
    .@@@.

    offset: 0 -1


u+0122:
Gcommaaccent:
    .@@..
    @..@.
    @....
    @.@@.
    @..@.
    .@@@.
    .@...

    offset: 0 -1


u+0123:
gcommaaccent:
    .@@..
    ..@..
    .@@@.
    @..@.
    .@@..
    @....
    .@@@.

    offset: 0 -1


u+0124:
Hcircumflex:
    @..@.
    @..@.
    @@@@.
    @..@.
    @..@.
    @..@.
    .....

    offset: 0 -1


u+0125:
hcircumflex:
    .@...
    @.@..
    @....
    @@@..
    @..@.
    @..@.
    .....

    offset: 0 -1


u+0126:
Hbar:
    @..@.
    @@@@@
    @..@.
    @@@@.
    @..@.
    @..@.
    .....

    offset: 0 -1


u+0127:
hbar:
    @....
    @@...
    @....
    @@@..
    @..@.
    @..@.
    .....

    offset: 0 -1


u+0128:
Itilde:
    .@@@.
    ..@..
    ..@..
    ..@..
    ..@..
    .@@@.
    .....

    offset: 0 -1


u+0129:
itilde:
    .@.@.
    @.@..
    .@@..
    ..@..
    ..@..
    .@@@.
    .....

    offset: 0 -1


u+012a:
Imacron:
    .@@@.
    ..@..
    ..@..
    ..@..
    ..@..
    .@@@.
    .....

    offset: 0 -1


u+012b:
imacron:
    .@@@.
    .....
    .@@..
    ..@..
    ..@..
    .@@@.
    .....

    offset: 0 -1


u+012c:
Ibreve:
    .@@@.
    ..@..
    ..@..
    ..@..
    ..@..
    .@@@.
    .....

    offset: 0 -1


u+012d:
ibreve:
    @..@.
    .@@..
    .@@..
    ..@..
    ..@..
    .@@@.
    .....

    offset: 0 -1


u+012e:
Iogonek:
    .@@@.
    ..@..
    ..@..
    ..@..
    ..@..
    .@@@.
    .@...

    offset: 0 -1


u+012f:
iogonek:
    ..@..
    .....
    .@@..
    ..@..
    ..@..
    .@@@.
    .@...

    offset: 0 -1


u+0130:
Idotaccent:
    .@@@.
    ..@..
    ..@..
    ..@..
    ..@..
    .@@@.
    .....

    offset: 0 -1


u+0131:
dotlessi:
    .....
    .....
    .@@..
    ..@..
    ..@..
    .@@@.
    .....

    offset: 0 -1


u+0132:
IJ:
    @..@.
    @..@.
    @..@.
    @..@.
    @@.@.
    @.@..
    .....

    offset: 0 -1


u+0133:
ij:
    @..@.
    .....
    @..@.
    @..@.
    @..@.
    @@.@.
    ..@..

    offset: 0 -1


u+0134:
Jcircumflex:
    ...@.
    ...@.
    ...@.
    ...@.
    @..@.
    .@@..
    .....

    offset: 0 -1


u+0135:
jcircumflex:
    ..@..
    .@.@.
    .....
    ..@..
    ..@..
    @.@..
    .@...

    offset: 0 -1


u+0136:
Kcommaaccent:
    @..@.
    @.@..
    @@...
    @@...
    @.@..
    @..@.
    @....

    offset: 0 -1


u+0137:
kcommaaccent:
    @....
    @....
    @.@..
    @@...
    @.@..
    @..@.
    @....

    offset: 0 -1


u+0138:
kgreenlandic:
    .....
    .....
    @..@.
    @@@..
    @..@.
    @..@.
    .....

    offset: 0 -1


u+0139:
Lacute:
    @..@.
    @.@..
    @....
    @....
    @....
    @@@@.
    .....

    offset: 0 -1


u+013a:
lacute:
    @@..@
    .@.@.
    .@...
    .@...
    .@...
    @@@..
    .....

    offset: 0 -1


u+013b:
Lcommaaccent:
    @....
    @....
    @....
    @....
    @....
    @@@@.
    @....

    offset: 0 -1


u+013c:
lcommaaccent:
    .@@..
    ..@..
    ..@..
    ..@..
    ..@..
    .@@@.
    .@...

    offset: 0 -1


u+013d:
Lcaron:
    @.@.@
    @..@.
    @....
    @....
    @....
    @@@@.
    .....

    offset: 0 -1


u+013e:
lcaron:
    @.@.@
    @..@.
    @....
    @....
    @....
    .@...
    .....

    offset: 0 -1


u+013f:
Ldot:
    @....
    @....
    @.@..
    @....
    @....
    @@@@.
    .....

    offset: 0 -1


u+0140:
ldot:
    @@...
    .@...
    .@.@.
    .@...
    .@...
    @@@..
    .....

    offset: 0 -1


u+0141:
Lslash:
    @....
    @....
    @@...
    @....
    @....
    @@@@.
    .....

    offset: 0 -1


u+0142:
lslash:
    .@@..
    ..@..
    ..@@.
    .@@..
    ..@..
    .@@@.
    .....

    offset: 0 -1


u+0143:
Nacute:
    @..@.
    @@.@.
    @@.@.
    @.@@.
    @.@@.
    @..@.
    .....

    offset: 0 -1


u+0144:
nacute:
    ..@..
    .@...
    @@@..
    @..@.
    @..@.
    @..@.
    .....

    offset: 0 -1


u+0145:
Ncommaaccent:
    @..@.
    @@.@.
    @@.@.
    @.@@.
    @.@@.
    @..@.
    @....

    offset: 0 -1


u+0146:
ncommaaccent:
    .....
    .....
    @@@..
    @..@.
    @..@.
    @..@.
    @....

    offset: 0 -1


u+0147:
Ncaron:
    @..@.
    @@.@.
    @@.@.
    @.@@.
    @.@@.
    @..@.
    .....

    offset: 0 -1


u+0148:
ncaron:
    @.@..
    .@...
    @@@..
    @..@.
    @..@.
    @..@.
    .....

    offset: 0 -1


u+0149:
napostrophe:
    @....
    .....
    @@@..
    @..@.
    @..@.
    @..@.
    .....

    offset: 0 -1


u+014a:
Eng:
    @..@.
    @@.@.
    @@.@.
    @.@@.
    @.@@.
    @..@.
    ..@..

    offset: 0 -1


u+014b:
eng:
    .....
    .....
    @@@..
    @..@.
    @..@.
    @..@.
    ..@..

    offset: 0 -1


u+014c:
Omacron:
    .@@..
    @..@.
    @..@.
    @..@.
    @..@.
    .@@..
    .....

    offset: 0 -1


u+014d:
omacron:
    @@@@.
    .....
    .@@..
    @..@.
    @..@.
    .@@..
    .....

    offset: 0 -1


u+014e:
Obreve:
    .@@..
    @..@.
    @..@.
    @..@.
    @..@.
    .@@..
    .....

    offset: 0 -1


u+014f:
obreve:
    @..@.
    .@@..
    .@@..
    @..@.
    @..@.
    .@@..
    .....

    offset: 0 -1


u+0150:
Ohungarumlaut:
    .@@..
    @..@.
    @..@.
    @..@.
    @..@.
    .@@..
    .....

    offset: 0 -1


u+0151:
ohungarumlaut:
    .@..@
    @..@.
    .@@..
    @..@.
    @..@.
    .@@..
    .....

    offset: 0 -1


u+0152:
OE:
    .@@@.
    @.@..
    @.@@.
    @.@..
    @.@..
    .@@@.
    .....

    offset: 0 -1


u+0153:
oe:
    .....
    .....
    .@@@.
    @.@@.
    @.@..
    .@@@.
    .....

    offset: 0 -1


u+0154:
Racute:
    @@@..
    @..@.
    @..@.
    @@@..
    @.@..
    @..@.
    .....

    offset: 0 -1


u+0155:
racute:
    ..@..
    .@...
    @@@..
    @..@.
    @....
    @....
    .....

    offset: 0 -1


u+0156:
Rcommaaccent:
    @@@..
    @..@.
    @..@.
    @@@..
    @.@..
    @..@.
    @....

    offset: 0 -1


u+0157:
rcommaaccent:
    .....
    .....
    @@@..
    @..@.
    @....
    @....
    .@...

    offset: 0 -1


u+0158:
Rcaron:
    @@@..
    @..@.
    @..@.
    @@@..
    @.@..
    @..@.
    .....

    offset: 0 -1


u+0159:
rcaron:
    @.@..
    .@...
    @@@..
    @..@.
    @....
    @....
    .....

    offset: 0 -1


u+015a:
Sacute:
    .@@..
    @..@.
    .@...
    ..@..
    @..@.
    .@@..
    .....

    offset: 0 -1


u+015b:
sacute:
    ..@..
    .@...
    .@@@.
    @@...
    ..@@.
    @@@..
    .....

    offset: 0 -1


u+015c:
Scircumflex:
    .@@..
    @..@.
    .@...
    ..@..
    @..@.
    .@@..
    .....

    offset: 0 -1


u+015d:
scircumflex:
    .@@..
    .....
    .@@@.
    @@...
    ..@@.
    @@@..
    .....

    offset: 0 -1


u+015e:
Scedilla:
    .@@..
    @..@.
    .@...
    ..@..
    @..@.
    .@@..
    .@...

    offset: 0 -1


u+015f:
scedilla:
    .....
    .....
    .@@@.
    @@...
    ..@@.
    @@@..
    .@...

    offset: 0 -1


u+0160:
Scaron:
    .@@..
    @..@.
    .@...
    ..@..
    @..@.
    .@@..
    .....

    offset: 0 -1


u+0161:
scaron:
    .@.@.
    ..@..
    .@@@.
    @@...
    ..@@.
    @@@..
    .....

    offset: 0 -1


u+0162:
Tcommaaccent:
    .@@@.
    ..@..
    ..@..
    ..@..
    ..@..
    ..@..
    .@...

    offset: 0 -1


u+0163:
tcommaaccent:
    .@...
    .@...
    @@@..
    .@...
    .@...
    ..@@.
    .@...

    offset: 0 -1


u+0164:
Tcaron:
    @@@..
    .@...
    .@...
    .@...
    .@...
    .@...
    .....

    offset: 0 -1


u+0165:
tcaron:
    .@.@.
    ..@..
    .@...
    @@@..
    .@...
    ..@@.
    .....

    offset: 0 -1


u+0166:
Tbar:
    @@@..
    .@...
    @@@..
    .@...
    .@...
    .@...
    .....

    offset: 0 -1


u+0167:
tbar:
    .@...
    @@@..
    .@...
    @@@..
    .@...
    ..@@.
    .....

    offset: 0 -1


u+0168:
Utilde:
    @..@.
    @..@.
    @..@.
    @..@.
    @..@.
    .@@..
    .....

    offset: 0 -1


u+0169:
utilde:
    .@.@.
    @.@..
    @..@.
    @..@.
    @..@.
    .@@@.
    .....

    offset: 0 -1


u+016a:
Umacron:
    @..@.
    @..@.
    @..@.
    @..@.
    @..@.
    .@@..
    .....

    offset: 0 -1


u+016b:
umacron:
    @@@@.
    .....
    @..@.
    @..@.
    @..@.
    .@@@.
    .....

    offset: 0 -1


u+016c:
Ubreve:
    @..@.
    @..@.
    @..@.
    @..@.
    @..@.
    .@@..
    .....

    offset: 0 -1


u+016d:
ubreve:
    @..@.
    .@@..
    .....
    @..@.
    @..@.
    .@@@.
    .....

    offset: 0 -1


u+016e:
Uring:
    @..@.
    @..@.
    @..@.
    @..@.
    @..@.
    .@@..
    .....

    offset: 0 -1


u+016f:
uring:
    .@@..
    .@@..
    .....
    @..@.
    @..@.
    .@@@.
    .....

    offset: 0 -1


u+0170:
Uhungarumlaut:
    @..@.
    @..@.
    @..@.
    @..@.
    @..@.
    .@@..
    .....

    offset: 0 -1


u+0171:
uhungarumlaut:
    .@..@
    @..@.
    .....
    @..@.
    @..@.
    .@@@.
    .....

    offset: 0 -1


u+0172:
Uogonek:
    @..@.
    @..@.
    @..@.
    @..@.
    @..@.
    .@@..
    .@...

    offset: 0 -1


u+0173:
uogonek:
    .....
    .....
    @..@.
    @..@.
    @..@.
    .@@@.
    ..@..

    offset: 0 -1


u+0174:
Wcircumflex:
    @..@.
    @..@.
    @..@.
    @@@@.
    @@@@.
    @..@.
    .....

    offset: 0 -1


u+0175:
wcircumflex:
    ..@..
    .@.@.
    .....
    @..@.
    @@@@.
    @@@@.
    .....

    offset: 0 -1


u+0176:
Ycircumflex:
    @.@..
    @.@..
    @.@..
    .@...
    .@...
    .@...
    .....

    offset: 0 -1


u+0177:
ycircumflex:
    ..@..
    .@.@.
    .....
    @..@.
    .@.@.
    ..@..
    .@...

    offset: 0 -1


u+0178:
Ydieresis:
    @.@..
    @.@..
    @.@..
    .@...
    .@...
    .@...
    .....

    offset: 0 -1


u+0179:
Zacute:
    @@@@.
    ...@.
    ..@..
    .@...
    @....
    @@@@.
    .....

    offset: 0 -1


u+017a:
zacute:
    ..@..
    .@...
    @@@@.
    ..@..
    .@...
    @@@@.
    .....

    offset: 0 -1


u+017b:
Zdotaccent:
    @@@@.
    ...@.
    ..@..
    .@...
    @....
    @@@@.
    .....

    offset: 0 -1


u+017c:
zdotaccent:
    ..@..
    .....
    @@@@.
    ..@..
    .@...
    @@@@.
    .....

    offset: 0 -1


u+017d:
Zcaron:
    @@@@.
    ...@.
    ..@..
    .@...
    @....
    @@@@.
    .....

    offset: 0 -1


u+017e:
zcaron:
    .@.@.
    ..@..
    @@@@.
    ..@..
    .@...
    @@@@.
    .....

    offset: 0 -1


u+017f:
longs:
    ...@.
    ..@..
    .@@..
    ..@..
    ..@..
    ..@..
    .....

    offset: 0 -1


u+0180:
uni0180:
    .@...
    @@@..
    .@...
    .@@..
    .@.@.
    .@@..
    .....

    offset: 0 -1


u+0181:
uni0181:
    @@@..
    .@.@.
    .@@..
    .@.@.
    .@.@.
    .@@..
    .....

    offset: 0 -1


u+0182:
uni0182:
    @@@..
    @....
    @@@..
    @..@.
    @..@.
    @@@..
    .....

    offset: 0 -1


u+0183:
uni0183:
    .@@..
    .@...
    .@@..
    .@.@.
    .@.@.
    .@@..
    .....

    offset: 0 -1


u+0184:
uni0184:
    .@...
    @@...
    @@@@.
    .@..@
    .@..@
    .@@@.
    .....

    offset: 0 -1


u+0185:
uni0185:
    .@...
    @@...
    .@@..
    .@.@.
    .@.@.
    .@@..
    .....

    offset: 0 -1


u+0186:
uni0186:
    .@@..
    @..@.
    ...@.
    ...@.
    @..@.
    .@@..
    .....

    offset: 0 -1


u+0187:
uni0187:
    .@@.@
    @..@.
    @....
    @....
    @..@.
    .@@..
    .....

    offset: 0 -1


u+0188:
uni0188:
    .....
    ...@.
    .@@..
    @....
    @....
    .@@..
    .....

    offset: 0 -1


u+0189:
uni0189:
    @@@..
    .@.@.
    @@.@.
    .@.@.
    .@.@.
    @@@..
    .....

    offset: 0 -1


u+018a:
uni018A:
    @@@..
    .@.@.
    .@.@.
    .@.@.
    .@.@.
    .@@..
    .....

    offset: 0 -1


u+018b:
uni018B:
    .@@@.
    ...@.
    .@@@.
    @..@.
    @..@.
    .@@@.
    .....

    offset: 0 -1


u+018c:
uni018C:
    ..@@.
    ...@.
    ..@@.
    .@.@.
    .@.@.
    ..@@.
    .....

    offset: 0 -1


u+018d:
uni018D:
    .....
    .....
    .@@..
    @..@.
    .@@..
    ...@.
    .@@..

    offset: 0 -1


u+018e:
uni018E:
    @@@@.
    ...@.
    .@@@.
    ...@.
    ...@.
    @@@@.
    .....

    offset: 0 -1


u+018f:
uni018F:
    .@@..
    @..@.
    ...@.
    @@@@.
    @..@.
    .@@..
    .....

    offset: 0 -1


u+0190:
uni0190:
    .@@..
    @..@.
    .@...
    @....
    @..@.
    .@@..
    .....

    offset: 0 -1


u+0191:
uni0191:
    .@@@.
    .@...
    .@@..
    .@...
    .@...
    .@...
    @....

    offset: 0 -1


u+0192:
florin:
    ..@..
    .@.@.
    .@...
    @@@..
    .@...
    .@...
    @....

    offset: 0 -1


u+0193:
uni0193:
    .@@@.
    @..@.
    @....
    @.@@.
    @..@.
    .@@@.
    .....

    offset: 0 -1


u+0194:
uni0194:
    .....
    @..@.
    @..@.
    .@@..
    @..@.
    .@@..
    .....

    offset: 0 -1


u+0195:
uni0195:
    @....
    @....
    @@..@
    @.@.@
    @.@.@
    @..@.
    .....

    offset: 0 -1


u+0196:
uni0196:
    .@@..
    ..@..
    ..@..
    ..@..
    ..@..
    ...@.
    .....

    offset: 0 -1


u+0197:
uni0197:
    .@@@.
    ..@..
    .@@@.
    ..@..
    ..@..
    .@@@.
    .....

    offset: 0 -1


u+0198:
uni0198:
    @.@..
    @@.@.
    @....
    @@...
    @.@..
    @..@.
    .....

    offset: 0 -1


u+0199:
uni0199:
    .@@..
    @....
    @.@..
    @@...
    @.@..
    @..@.
    .....

    offset: 0 -1


u+019a:
uni019A:
    .@@..
    ..@..
    .@@@.
    ..@..
    ..@..
    .@@@.
    .....

    offset: 0 -1


u+019b:
uni019B:
    .@...
    ..@@.
    .@@..
    ..@..
    .@.@.
    .@.@.
    .....

    offset: 0 -1


u+019c:
uni019C:
    @..@.
    @..@.
    @..@.
    @..@.
    @@@@.
    .@.@.
    .....

    offset: 0 -1


u+019d:
uni019D:
    .@..@
    .@@.@
    .@@.@
    .@.@@
    .@.@@
    .@..@
    @....

    offset: 0 -1


u+019e:
uni019E:
    .....
    .....
    @@@..
    @..@.
    @..@.
    @..@.
    ...@.

    offset: 0 -1


u+019f:
uni019F:
    .@@..
    @..@.
    @@@@.
    @..@.
    @..@.
    .@@..
    .....

    offset: 0 -1


u+01a0:
Ohorn:
    .@@.@
    @..@.
    @..@.
    @..@.
    @..@.
    .@@..
    .....

    offset: 0 -1


u+01a1:
ohorn:
    .....
    ....@
    .@@@.
    @..@.
    @..@.
    .@@..
    .....

    offset: 0 -1


u+01a2:
uni01A2:
    .@@@.
    @.@.@
    @.@.@
    @.@.@
    @.@.@
    .@...
    .....

    offset: 0 -1


u+01a3:
uni01A3:
    .....
    .....
    .@@@.
    @.@.@
    @.@.@
    .@..@
    .....

    offset: 0 -1


u+01a4:
uni01A4:
    @@@..
    .@.@.
    .@.@.
    .@@..
    .@...
    .@...
    .....

    offset: 0 -1


u+01a5:
uni01A5:
    .@@..
    @....
    @@@..
    @..@.
    @..@.
    @@@..
    @....

    offset: 0 -1


u+01a6:
uni01A6:
    @....
    @@@..
    @..@.
    @@@..
    @@...
    @.@..
    ...@.

    offset: 0 -1


u+01a7:
uni01A7:
    .@@..
    @..@.
    ..@..
    .@...
    @..@.
    .@@..
    .....

    offset: 0 -1


u+01a8:
uni01A8:
    .....
    .....
    @@@..
    ..@@.
    @@...
    .@@@.
    .....

    offset: 0 -1


u+01a9:
uni01A9:
    @@@@.
    @....
    .@...
    .@...
    @....
    @@@@.
    .....

    offset: 0 -1


u+01aa:
uni01AA:
    .@...
    @.@..
    .@@@.
    ..@..
    ..@..
    ..@..
    ...@.

    offset: 0 -1


u+01ab:
uni01AB:
    .@...
    .@...
    @@@..
    .@...
    .@@@.
    ...@.
    ..@..

    offset: 0 -1


u+01ac:
uni01AC:
    .@@@.
    @.@..
    @.@..
    ..@..
    ..@..
    ..@..
    .....

    offset: 0 -1


u+01ad:
uni01AD:
    ..@@.
    .@...
    @@@..
    .@...
    .@...
    ..@@.
    .....

    offset: 0 -1


u+01ae:
uni01AE:
    @@@..
    .@...
    .@...
    .@...
    .@...
    .@...
    ..@@.

    offset: 0 -1


u+01af:
Uhorn:
    @..@@
    @..@.
    @..@.
    @..@.
    @..@.
    .@@..
    .....

    offset: 0 -1


u+01b0:
uhorn:
    .....
    ....@
    @..@.
    @..@.
    @..@.
    .@@@.
    .....

    offset: 0 -1


u+01b1:
uni01B1:
    .@.@.
    @...@
    @...@
    @...@
    @...@
    .@@@.
    .....

    offset: 0 -1


u+01b2:
uni01B2:
    @.@..
    @..@.
    @..@.
    @..@.
    @..@.
    .@@..
    .....

    offset: 0 -1


u+01b3:
uni01B3:
    @..@.
    .@.@.
    .@.@.
    ..@..
    ..@..
    ..@..
    .....

    offset: 0 -1


u+01b4:
uni01B4:
    .....
    .....
    @..@.
    @.@..
    @.@..
    .@...
    @....

    offset: 0 -1


u+01b5:
uni01B5:
    @@@@.
    ...@.
    @@@@.
    .@...
    @....
    @@@@.
    .....

    offset: 0 -1


u+01b6:
uni01B6:
    .....
    .....
    @@@@.
    .@@@.
    .@...
    @@@@.
    .....

    offset: 0 -1


u+01b7:
uni01B7:
    @@@@.
    ..@..
    .@@..
    ...@.
    ...@.
    @@@..
    .....

    offset: 0 -1


u+01b8:
uni01B8:
    @@@@.
    .@...
    .@@..
    @....
    @....
    .@@@.
    .....

    offset: 0 -1


u+01b9:
uni01B9:
    .....
    .....
    @@@@.
    .@...
    .@@..
    @....
    .@@@.

    offset: 0 -1


u+01ba:
uni01BA:
    .....
    .....
    @@@@.
    ..@..
    .@@..
    ..@@.
    @@@@@

    offset: 0 -1


u+01bb:
uni01BB:
    .@@..
    @..@.
    ...@.
    @@@@.
    .@...
    @@@@.
    .....

    offset: 0 -1


u+01bc:
uni01BC:
    @@@@.
    @....
    @@@..
    @..@.
    ...@.
    @@@..
    .....

    offset: 0 -1


u+01bd:
uni01BD:
    .....
    .....
    .@@@.
    .@@..
    ...@.
    .@@..
    .....

    offset: 0 -1


u+01be:
uni01BE:
    .....
    ..@..
    .@@@.
    ..@..
    ...@.
    .@@..
    .....

    offset: 0 -1


u+01bf:
uni01BF:
    .....
    .....
    @@@..
    @..@.
    @.@..
    @@...
    @....

    offset: 0 -1


u+01c0:
uni01C0:
    .....
    ..@..
    ..@..
    ..@..
    ..@..
    ..@..
    .....

    offset: 0 -1


u+01c1:
uni01C1:
    .....
    .@.@.
    .@.@.
    .@.@.
    .@.@.
    .@.@.
    .....

    offset: 0 -1


u+01c2:
uni01C2:
    .....
    ..@..
    .@@@.
    ..@..
    .@@@.
    ..@..
    .....

    offset: 0 -1


u+01c3:
uni01C3:
    .....
    ..@..
    ..@..
    ..@..
    .....
    ..@..
    .....

    offset: 0 -1


u+01c4:
uni01C4:
    ...@@
    @@.@@
    @.@.@
    @.@.@
    @.@@.
    @@.@@
    .....

    offset: 0 -1


u+01c5:
uni01C5:
    @@.@@
    @.@..
    @.@@@
    @.@.@
    @.@@.
    @@.@@
    .....

    offset: 0 -1


u+01c6:
uni01C6:
    ..@@@
    ..@..
    .@@@@
    @.@.@
    @.@@.
    .@@@@
    .....

    offset: 0 -1


u+01c7:
uni01C7:
    @...@
    @...@
    @...@
    @...@
    @.@.@
    @@.@.
    .....

    offset: 0 -1


u+01c8:
uni01C8:
    @...@
    @....
    @...@
    @...@
    @...@
    @@@.@
    ...@.

    offset: 0 -1


u+01c9:
uni01C9:
    @@..@
    .@...
    .@..@
    .@..@
    .@..@
    @@@.@
    ...@.

    offset: 0 -1


u+01ca:
uni01CA:
    @@..@
    @.@.@
    @.@.@
    @.@.@
    @.@.@
    @.@@.
    .....

    offset: 0 -1


u+01cb:
uni01CB:
    @@..@
    @.@..
    @.@.@
    @.@.@
    @.@.@
    @.@.@
    ...@.

    offset: 0 -1


u+01cc:
uni01CC:
    ....@
    .....
    @@..@
    @.@.@
    @.@.@
    @.@.@
    ...@.

    offset: 0 -1


u+01cd:
uni01CD:
    .@@..
    @..@.
    @..@.
    @@@@.
    @..@.
    @..@.
    .....

    offset: 0 -1


u+01ce:
uni01CE:
    .@.@.
    ..@..
    .@@@.
    @..@.
    @.@@.
    .@.@.
    .....

    offset: 0 -1


u+01cf:
uni01CF:
    .@@@.
    ..@..
    ..@..
    ..@..
    ..@..
    .@@@.
    .....

    offset: 0 -1


u+01d0:
uni01D0:
    .@.@.
    ..@..
    .@@..
    ..@..
    ..@..
    .@@@.
    .....

    offset: 0 -1


u+01d1:
uni01D1:
    .@@..
    @..@.
    @..@.
    @..@.
    @..@.
    .@@..
    .....

    offset: 0 -1


u+01d2:
uni01D2:
    @.@..
    .@...
    .@@..
    @..@.
    @..@.
    .@@..
    .....

    offset: 0 -1


u+01d3:
uni01D3:
    @..@.
    @..@.
    @..@.
    @..@.
    @..@.
    .@@..
    .....

    offset: 0 -1


u+01d4:
uni01D4:
    .@.@.
    ..@..
    @..@.
    @..@.
    @..@.
    .@@@.
    .....

    offset: 0 -1


u+01d5:
uni01D5:
    @..@.
    @..@.
    @..@.
    @..@.
    @..@.
    .@@..
    .....

    offset: 0 -1


u+01d6:
uni01D6:
    .@@@.
    .@.@.
    .....
    @..@.
    @..@.
    .@@@.
    .....

    offset: 0 -1


u+01d7:
uni01D7:
    @..@.
    @..@.
    @..@.
    @..@.
    @..@.
    .@@..
    .....

    offset: 0 -1


u+01d8:
uni01D8:
    ...@.
    .@@@.
    .....
    @..@.
    @..@.
    .@@@.
    .....

    offset: 0 -1


u+01d9:
uni01D9:
    @..@.
    @..@.
    @..@.
    @..@.
    @..@.
    .@@..
    .....

    offset: 0 -1


u+01da:
uni01DA:
    .@.@.
    .@@@.
    .....
    @..@.
    @..@.
    .@@@.
    .....

    offset: 0 -1


u+01db:
uni01DB:
    @..@.
    @..@.
    @..@.
    @..@.
    @..@.
    .@@..
    .....

    offset: 0 -1


u+01dc:
uni01DC:
    .@...
    .@@@.
    .....
    @..@.
    @..@.
    .@@@.
    .....

    offset: 0 -1


u+01dd:
uni01DD:
    .....
    .....
    .@@..
    ..@@.
    @@.@.
    .@@..
    .....

    offset: 0 -1


u+01de:
uni01DE:
    .@@..
    @..@.
    @..@.
    @@@@.
    @..@.
    @..@.
    .....

    offset: 0 -1


u+01df:
uni01DF:
    .@@@.
    .@.@.
    .@@@.
    @..@.
    @.@@.
    .@.@.
    .....

    offset: 0 -1


u+01e0:
uni01E0:
    .@@..
    @..@.
    @..@.
    @@@@.
    @..@.
    @..@.
    .....

    offset: 0 -1


u+01e1:
uni01E1:
    .@@@.
    ..@..
    .@@@.
    @..@.
    @.@@.
    .@.@.
    .....

    offset: 0 -1


u+01e2:
uni01E2:
    @@@@.
    .@@@.
    @.@..
    @@@@.
    @.@..
    @.@@.
    .....

    offset: 0 -1


u+01e3:
uni01E3:
    @@@@.
    .....
    .@@@.
    @.@@.
    @.@..
    .@@@.
    .....

    offset: 0 -1


u+01e4:
uni01E4:
    .@@..
    @..@.
    @....
    @.@@.
    @.@@@
    .@@@.
    .....

    offset: 0 -1


u+01e5:
uni01E5:
    .....
    .....
    .@@@.
    @..@.
    .@@..
    @.@@@
    .@@@.

    offset: 0 -1


u+01e6:
Gcaron:
    .@@..
    @..@.
    @....
    @.@@.
    @..@.
    .@@@.
    .....

    offset: 0 -1


u+01e7:
gcaron:
    .@.@.
    ..@..
    .@@@.
    @..@.
    .@@..
    @....
    .@@@.

    offset: 0 -1


u+01e8:
uni01E8:
    @..@.
    @.@..
    @@...
    @@...
    @.@..
    @..@.
    .....

    offset: 0 -1


u+01e9:
uni01E9:
    @@.@.
    @.@..
    @....
    @.@..
    @@...
    @.@..
    .....

    offset: 0 -1


u+01ea:
uni01EA:
    .@@..
    @..@.
    @..@.
    @..@.
    @..@.
    .@@..
    .@...

    offset: 0 -1


u+01eb:
uni01EB:
    .....
    .....
    .@@..
    @..@.
    @..@.
    .@@..
    .@...

    offset: 0 -1


u+01ec:
uni01EC:
    .@@..
    @..@.
    @..@.
    @..@.
    @..@.
    .@@..
    .@...

    offset: 0 -1


u+01ed:
uni01ED:
    @@@@.
    .....
    .@@..
    @..@.
    @..@.
    .@@..
    .@...

    offset: 0 -1


u+01ee:
uni01EE:
    @@@@.
    ..@..
    .@@..
    ...@.
    ...@.
    @@@..
    .....

    offset: 0 -1


u+01ef:
uni01EF:
    .@.@.
    ..@..
    @@@@.
    ..@..
    .@@..
    ...@.
    @@@..

    offset: 0 -1


u+01f0:
uni01F0:
    .@.@.
    ..@..
    .....
    ..@..
    ..@..
    @.@..
    .@...

    offset: 0 -1


u+01f1:
uni01F1:
    @@.@@
    @.@.@
    @.@.@
    @.@@.
    @.@@.
    @@.@@
    .....

    offset: 0 -1


u+01f2:
uni01F2:
    @@...
    @.@..
    @.@@@
    @.@.@
    @.@@.
    @@.@@
    .....

    offset: 0 -1


u+01f3:
uni01F3:
    ..@..
    ..@..
    .@@@@
    @.@.@
    @.@@.
    .@@@@
    .....

    offset: 0 -1


u+01f4:
uni01F4:
    .@@..
    @..@.
    @....
    @.@@.
    @..@.
    .@@@.
    .....

    offset: 0 -1


u+01f5:
uni01F5:
    ...@.
    ..@..
    .@@@.
    @..@.
    .@@..
    @....
    .@@@.

    offset: 0 -1


u+01f6:
uni01F6:
    @.@..
    @.@..
    @@@.@
    @.@.@
    @.@.@
    @..@.
    .....

    offset: 0 -1


u+01f7:
uni01F7:
    @@@..
    @..@.
    @.@..
    @@...
    @....
    @....
    .....

    offset: 0 -1


u+01f8:
uni01F8:
    @..@.
    @@.@.
    @@.@.
    @.@@.
    @.@@.
    @..@.
    .....

    offset: 0 -1


u+01f9:
uni01F9:
    .@...
    ..@..
    @@@..
    @..@.
    @..@.
    @..@.
    .....

    offset: 0 -1


u+01fa:
Aringacute:
    .@@..
    @..@.
    @..@.
    @@@@.
    @..@.
    @..@.
    .....

    offset: 0 -1


u+01fb:
aringacute:
    ..@..
    .@...
    .@@..
    .@@..
    @..@.
    .@@@.
    .....

    offset: 0 -1


u+01fc:
AEacute:
    .@@@.
    @.@..
    @.@@.
    @@@..
    @.@..
    @.@@.
    .....

    offset: 0 -1


u+01fd:
aeacute:
    ...@.
    ..@..
    .@@@.
    @.@@.
    @.@..
    .@@@.
    .....

    offset: 0 -1


u+01fe:
Oslashacute:
    .@@@.
    @.@@.
    @.@@.
    @@.@.
    @@.@.
    @@@..
    .....

    offset: 0 -1


u+01ff:
oslashacute:
    ...@.
    ..@..
    .@@@.
    @.@@.
    @@.@.
    @@@..
    .....

    offset: 0 -1


u+0200:
uni0200:
    .@@..
    @..@.
    @..@.
    @@@@.
    @..@.
    @..@.
    .....

    offset: 0 -1


u+0201:
uni0201:
    @.@..
    .@.@.
    .@@@.
    @..@.
    @.@@.
    .@.@.
    .....

    offset: 0 -1


u+0202:
uni0202:
    .@@..
    @..@.
    @..@.
    @@@@.
    @..@.
    @..@.
    .....

    offset: 0 -1


u+0203:
uni0203:
    .@@..
    @..@.
    .@@@.
    @..@.
    @.@@.
    .@.@.
    .....

    offset: 0 -1


u+0204:
uni0204:
    @@@@.
    @....
    @@@..
    @....
    @....
    @@@@.
    .....

    offset: 0 -1


u+0205:
uni0205:
    @.@..
    .@.@.
    .@@..
    @.@@.
    @@...
    .@@..
    .....

    offset: 0 -1


u+0206:
uni0206:
    @@@@.
    @....
    @@@..
    @....
    @....
    @@@@.
    .....

    offset: 0 -1


u+0207:
uni0207:
    .@@..
    @..@.
    .@@..
    @.@@.
    @@...
    .@@..
    .....

    offset: 0 -1


u+0208:
uni0208:
    .@@@.
    ..@..
    ..@..
    ..@..
    ..@..
    .@@@.
    .....

    offset: 0 -1


u+0209:
uni0209:
    @.@..
    .@.@.
    .@@..
    ..@..
    ..@..
    .@@@.
    .....

    offset: 0 -1


u+020a:
uni020A:
    .@@@.
    ..@..
    ..@..
    ..@..
    ..@..
    .@@@.
    .....

    offset: 0 -1


u+020b:
uni020B:
    .@@..
    @..@.
    .@@..
    ..@..
    ..@..
    .@@@.
    .....

    offset: 0 -1


u+020c:
uni020C:
    .@@..
    @..@.
    @..@.
    @..@.
    @..@.
    .@@..
    .....

    offset: 0 -1


u+020d:
uni020D:
    @.@..
    .@.@.
    .@@..
    @..@.
    @..@.
    .@@..
    .....

    offset: 0 -1


u+020e:
uni020E:
    .@@..
    @..@.
    @..@.
    @..@.
    @..@.
    .@@..
    .....

    offset: 0 -1


u+020f:
uni020F:
    .@@..
    @..@.
    .@@..
    @..@.
    @..@.
    .@@..
    .....

    offset: 0 -1


u+0210:
uni0210:
    @@@..
    @..@.
    @..@.
    @@@..
    @.@..
    @..@.
    .....

    offset: 0 -1


u+0211:
uni0211:
    @.@..
    .@.@.
    @@@..
    @..@.
    @....
    @....
    .....

    offset: 0 -1


u+0212:
uni0212:
    @@@..
    @..@.
    @..@.
    @@@..
    @.@..
    @..@.
    .....

    offset: 0 -1


u+0213:
uni0213:
    .@@..
    @..@.
    @@@..
    @..@.
    @....
    @....
    .....

    offset: 0 -1


u+0214:
uni0214:
    @..@.
    @..@.
    @..@.
    @..@.
    @..@.
    .@@..
    .....

    offset: 0 -1


u+0215:
uni0215:
    @.@..
    .@.@.
    @..@.
    @..@.
    @..@.
    .@@@.
    .....

    offset: 0 -1


u+0216:
uni0216:
    @..@.
    @..@.
    @..@.
    @..@.
    @..@.
    .@@..
    .....

    offset: 0 -1


u+0217:
uni0217:
    .@@..
    @..@.
    @..@.
    @..@.
    @..@.
    .@@@.
    .....

    offset: 0 -1


u+0218:
Scommaaccent:
    .@@..
    @..@.
    .@...
    ..@..
    @..@.
    .@@..
    @@...

    offset: 0 -1


u+0219:
scommaaccent:
    .....
    .....
    .@@@.
    @@...
    ..@@.
    @@@..
    @@...

    offset: 0 -1


u+021a:
Tcommaaccent:
    .@@@.
    ..@..
    ..@..
    ..@..
    ..@..
    ..@..
    .@...

    offset: 0 -1


u+021b:
tcommaaccent:
    .@...
    .@...
    @@@..
    .@...
    .@...
    ..@@.
    .@...

    offset: 0 -1


u+021c:
uni021C:
    .@@..
    @..@.
    ...@.
    ..@..
    ...@.
    @@@..
    .....

    offset: 0 -1


u+021d:
uni021D:
    .....
    .....
    .@@..
    @.@@.
    .@.@.
    ..@..
    @@...

    offset: 0 -1


u+021e:
uni021E:
    @..@.
    @..@.
    @@@@.
    @..@.
    @..@.
    @..@.
    .....

    offset: 0 -1


u+021f:
uni021F:
    .@.@.
    @.@..
    @....
    @@@..
    @..@.
    @..@.
    .....

    offset: 0 -1


u+0250:
uni0250:
    .....
    .....
    @.@..
    @@.@.
    @..@.
    @@@..
    .....

    offset: 0 -1


u+0251:
uni0251:
    .....
    .....
    .@@@.
    @..@.
    @..@.
    .@@@.
    .....

    offset: 0 -1


u+0252:
uni0252:
    .....
    .....
    @@@..
    @..@.
    @..@.
    @@@..
    .....

    offset: 0 -1


u+0253:
uni0253:
    .@@..
    @....
    @@@..
    @..@.
    @..@.
    @@@..
    .....

    offset: 0 -1


u+0254:
uni0254:
    .....
    .....
    .@@..
    ...@.
    ...@.
    .@@..
    .....

    offset: 0 -1


u+0255:
uni0255:
    .....
    .....
    .@@..
    @....
    @.@@.
    .@@..
    @....

    offset: 0 -1


u+0256:
uni0256:
    ...@.
    ...@.
    .@@@.
    @..@.
    @..@.
    .@@@.
    ...@@

    offset: 0 -1


u+0257:
uni0257:
    ...@@
    ...@.
    .@@@.
    @..@.
    @..@.
    .@@@.
    .....

    offset: 0 -1


u+0258:
uni0258:
    .....
    .....
    .@@..
    @@.@.
    ..@@.
    .@@..
    .....

    offset: 0 -1


u+0259:
uni0259:
    .....
    .....
    .@@..
    ..@@.
    @@.@.
    .@@..
    .....

    offset: 0 -1


u+025a:
uni025A:
    .....
    .....
    .@@..
    ..@@@
    @@.@.
    .@@..
    .....

    offset: 0 -1


u+025b:
uni025B:
    .....
    .....
    ..@@.
    ..@..
    .@...
    ..@@.
    .....

    offset: 0 -1


u+025c:
uni025C:
    .....
    .....
    .@@..
    ..@..
    ...@.
    .@@..
    .....

    offset: 0 -1


u+025d:
uni025D:
    .....
    .....
    @@@@.
    .@...
    ..@..
    @@...
    .....

    offset: 0 -1


u+025e:
uni025E:
    .....
    .....
    .@@..
    @.@..
    @..@.
    .@@..
    .....

    offset: 0 -1


u+025f:
uni025F:
    .....
    ..@..
    ..@..
    .@@@.
    ..@..
    @.@..
    .@...

    offset: 0 -1


u+0260:
uni0260:
    .....
    ....@
    .@@@.
    @..@.
    .@@@.
    ...@.
    .@@..

    offset: 0 -1


u+0261:
uni0261:
    .....
    .....
    .@@@.
    @..@.
    .@@@.
    ...@.
    .@@..

    offset: 0 -1


u+0262:
uni0262:
    .....
    .....
    .@@@.
    @....
    @..@.
    .@@@.
    .....

    offset: 0 -1


u+0263:
uni0263:
    .....
    .....
    .@.@.
    .@.@.
    ..@..
    .@.@.
    ..@..

    offset: 0 -1


u+0264:
uni0264:
    .....
    .....
    .@.@.
    ..@..
    .@.@.
    ..@..
    .....

    offset: 0 -1


u+0265:
uni0265:
    .....
    .....
    @..@.
    @..@.
    @..@.
    .@@@.
    ...@.

    offset: 0 -1


u+0266:
uni0266:
    .@@..
    @....
    @@@..
    @..@.
    @..@.
    @..@.
    .....

    offset: 0 -1


u+0267:
uni0267:
    .@@..
    @....
    @@@..
    @..@.
    @..@.
    @..@.
    ..@..

    offset: 0 -1


u+0268:
uni0268:
    ..@..
    .....
    ..@..
    .@@@.
    ..@..
    .@@@.
    .....

    offset: 0 -1


u+0269:
uni0269:
    .....
    .....
    .@...
    .@...
    .@...
    ..@..
    .....

    offset: 0 -1


u+026a:
uni026A:
    .....
    .....
    @@@..
    .@...
    .@...
    @@@..
    .....

    offset: 0 -1


u+026b:
uni026B:
    .@@..
    ..@..
    .@@.@
    @.@@.
    ..@..
    .@@@.
    .....

    offset: 0 -1


u+026c:
uni026C:
    .@@..
    ..@..
    .@@..
    .@@@.
    ..@..
    .@@@.
    .....

    offset: 0 -1


u+026d:
uni026D:
    .@@..
    ..@..
    ..@..
    ..@..
    ..@..
    ..@..
    ...@.

    offset: 0 -1


u+026e:
uni026E:
    @....
    @....
    @@@..
    @..@.
    @..@.
    @.@..
    .@@..

    offset: 0 -1


u+026f:
uni026F:
    .....
    .....
    @..@.
    @..@.
    @@@@.
    .@.@.
    .....

    offset: 0 -1


u+0270:
uni0270:
    .....
    .....
    @..@.
    @..@.
    @@@@.
    .@.@.
    ...@.

    offset: 0 -1


u+0271:
uni0271:
    .....
    .....
    @.@..
    @@@@.
    @..@.
    @..@.
    ..@..

    offset: 0 -1


u+0272:
uni0272:
    .....
    .....
    .@@..
    .@.@.
    .@.@.
    .@.@.
    @....

    offset: 0 -1


u+0273:
uni0273:
    .....
    .....
    @@...
    @.@..
    @.@..
    @.@..
    ...@.

    offset: 0 -1


u+0274:
uni0274:
    .....
    .....
    @..@.
    @@.@.
    @.@@.
    @..@.
    .....

    offset: 0 -1


u+0275:
uni0275:
    .....
    .@@..
    @..@.
    @@@@.
    @..@.
    .@@..
    .....

    offset: 0 -1


u+0276:
uni0276:
    .....
    .....
    .@@@.
    @.@@.
    @.@..
    .@@@.
    .....

    offset: 0 -1


u+0277:
uni0277:
    .....
    .....
    .@@..
    @..@.
    @@@@.
    @@@@.
    .....

    offset: 0 -1


u+0278:
uni0278:
    .....
    ..@..
    .@@@.
    @.@.@
    .@@@.
    ..@..
    .....

    offset: 0 -1


u+0279:
uni0279:
    .....
    .....
    ...@.
    ...@.
    @..@.
    .@@@.
    .....

    offset: 0 -1


u+027a:
uni027A:
    .....
    ...@.
    ...@.
    ...@.
    @..@.
    .@@@.
    .....

    offset: 0 -1


u+027b:
uni027B:
    .....
    .....
    ..@..
    @.@..
    .@@..
    ..@@.
    .....

    offset: 0 -1


u+027c:
uni027C:
    .....
    @@@..
    @..@.
    @....
    @....
    @....
    @....

    offset: 0 -1


u+027d:
uni027D:
    .....
    @@@..
    @..@.
    @....
    @....
    @....
    .@...

    offset: 0 -1


u+027e:
uni027E:
    .....
    .....
    .@@..
    @..@.
    @....
    @....
    .....

    offset: 0 -1


u+027f:
uni027F:
    .....
    .....
    .@@..
    @..@.
    ...@.
    ...@.
    .....

    offset: 0 -1


u+0280:
uni0280:
    .....
    .....
    @@@..
    @..@.
    @@@..
    @..@.
    .....

    offset: 0 -1


u+0281:
uni0281:
    .....
    .....
    @..@.
    @@@..
    @..@.
    @@@..
    .....

    offset: 0 -1


u+0282:
uni0282:
    .....
    .....
    .@@@.
    @@...
    ..@@.
    @@@..
    @....

    offset: 0 -1


u+0283:
uni0283:
    ...@.
    ..@..
    ..@..
    ..@..
    ..@..
    ..@..
    .@...

    offset: 0 -1


u+0284:
uni0284:
    ...@.
    ..@..
    ..@..
    ..@..
    .@@@.
    ..@..
    .@...

    offset: 0 -1


u+0285:
uni0285:
    .....
    .....
    .@...
    ..@..
    ..@..
    ...@.
    .....

    offset: 0 -1


u+0286:
uni0286:
    ...@.
    ..@..
    ..@..
    ..@..
    .@@@.
    @.@..
    .@...

    offset: 0 -1


u+0287:
uni0287:
    .....
    @@...
    ..@..
    ..@..
    .@@@.
    ..@..
    ..@..

    offset: 0 -1


u+0288:
uni0288:
    .@...
    .@...
    @@@..
    .@...
    .@...
    .@...
    ..@@.

    offset: 0 -1


u+0289:
uni0289:
    .....
    .....
    @..@.
    @@@@.
    @..@.
    .@@@.
    .....

    offset: 0 -1


u+028a:
uni028A:
    .....
    .....
    @..@.
    @..@.
    @..@.
    .@@..
    .....

    offset: 0 -1


u+028b:
uni028B:
    .....
    .....
    @.@..
    @..@.
    @..@.
    .@@..
    .....

    offset: 0 -1


u+028c:
uni028C:
    .....
    .....
    ..@..
    .@.@.
    .@.@.
    .@.@.
    .....

    offset: 0 -1


u+028d:
uni028D:
    .....
    .....
    @@@@.
    @@@@.
    @..@.
    @..@.
    .....

    offset: 0 -1


u+028e:
uni028E:
    .....
    ..@..
    .@...
    @.@..
    @..@.
    @..@.
    .....

    offset: 0 -1


u+028f:
uni028F:
    .....
    .....
    @.@..
    .@...
    .@...
    .@...
    .....

    offset: 0 -1


u+0290:
uni0290:
    .....
    .....
    @@@@.
    ..@..
    .@...
    @@@@.
    ...@.

    offset: 0 -1


u+0291:
uni0291:
    .....
    .....
    @@@@.
    ..@..
    .@.@.
    @@@@.
    .@...

    offset: 0 -1


u+0292:
uni0292:
    .....
    .....
    @@@@.
    ..@..
    .@@..
    ...@.
    @@@..

    offset: 0 -1


u+0293:
uni0293:
    .....
    .....
    @@@@.
    ..@..
    .@@..
    .@.@.
    .@@@@

    offset: 0 -1


u+0294:
uni0294:
    .....
    .@@..
    ...@.
    ..@@.
    ..@..
    ..@..
    .....

    offset: 0 -1


u+0295:
uni0295:
    .....
    ..@@.
    .@...
    .@@..
    ..@..
    ..@..
    .....

    offset: 0 -1


u+0296:
uni0296:
    .....
    ..@..
    ..@..
    ..@@.
    ...@.
    .@@..
    .....

    offset: 0 -1


u+0297:
uni0297:
    .....
    ..@..
    .@.@.
    .@...
    .@...
    .@.@.
    ..@..

    offset: 0 -1


u+0298:
uni0298:
    .....
    .@@@.
    @...@
    @.@.@
    @...@
    .@@@.
    .....

    offset: 0 -1


u+0299:
uni0299:
    .....
    .....
    @@@..
    @@@..
    @..@.
    @@@..
    .....

    offset: 0 -1


u+029a:
uni029A:
    .....
    .....
    .@@..
    .@.@.
    @..@.
    .@@..
    .....

    offset: 0 -1


u+029b:
uni029B:
    .....
    ...@@
    .@@@.
    @....
    @..@.
    .@@@.
    .....

    offset: 0 -1


u+029c:
uni029C:
    .....
    .....
    @..@.
    @@@@.
    @..@.
    @..@.
    .....

    offset: 0 -1


u+029d:
uni029D:
    ..@..
    .....
    ..@..
    ..@..
    .@@@.
    @.@..
    .@...

    offset: 0 -1


u+029e:
uni029E:
    .....
    .....
    @..@.
    .@.@.
    ..@@.
    .@.@.
    ...@.

    offset: 0 -1


u+029f:
uni029F:
    .....
    .....
    @....
    @....
    @....
    @@@@.
    .....

    offset: 0 -1


u+02a0:
uni02A0:
    .....
    ...@@
    .@@@.
    @..@.
    @..@.
    .@@@.
    ...@.

    offset: 0 -1


u+02a1:
uni02A1:
    .....
    .@@..
    ...@.
    ..@..
    .@@@.
    ..@..
    .....

    offset: 0 -1


u+02a2:
uni02A2:
    .....
    ..@@.
    .@...
    ..@..
    .@@@.
    ..@..
    .....

    offset: 0 -1


u+02a3:
uni02A3:
    ..@..
    ..@..
    .@@@@
    @.@.@
    @.@@.
    .@@@@
    .....

    offset: 0 -1


u+02a4:
uni02A4:
    ..@..
    ..@..
    .@@@@
    @.@.@
    @.@@.
    .@@.@
    ...@.

    offset: 0 -1


u+02a5:
uni02A5:
    ..@..
    ..@..
    .@@@@
    @.@.@
    @.@@@
    .@@@@
    .....

    offset: 0 -1


u+02a6:
uni02A6:
    .@...
    .@...
    @@@.@
    .@.@.
    .@..@
    ..@@.
    .....

    offset: 0 -1


u+02a7:
uni02A7:
    .@..@
    .@.@.
    @@@@.
    .@.@.
    .@.@.
    ..@@.
    ..@..

    offset: 0 -1


u+02a8:
uni02A8:
    .@...
    .@...
    @@@.@
    .@.@.
    .@.@.
    ..@@@
    ...@.

    offset: 0 -1


u+02b6:
uni02B6:
    @.@..
    @@...
    @.@..
    @@...
    .....
    .....
    .....

    offset: 0 -1


u+02b8:
uni02B8:
    .@...
    @....
    .....
    .....
    .....
    .....
    .....

    offset: 0 -1


u+02b9:
uni02B9:
    .@.@.
    @.@..
    .....
    .....
    .....
    .....
    .....

    offset: 0 -1


u+02bc:
afii57929:
    ..@@.
    ..@..
    .@...
    .....
    .....
    .....
    .....

    offset: 0 -1


u+02bd:
afii64937:
    .@@..
    ..@..
    ...@.
    .....
    .....
    .....
    .....

    offset: 0 -1


u+02c6:
circumflex:
    ..@..
    .@.@.
    .....
    .....
    .....
    .....
    .....

    offset: 0 -1


u+02c7:
caron:
    .@.@.
    ..@..
    .....
    .....
    .....
    .....
    .....

    offset: 0 -1


u+02c8:
uni02C8:
    ..@..
    ..@..
    .....
    .....
    .....
    .....
    .....

    offset: 0 -1


u+02c9:
macron:
    .@@@.
    .....
    .....
    .....
    .....
    .....
    .....

    offset: 0 -1


u+02cc:
uni02CC:
    .....
    .....
    .....
    .....
    .....
    ..@..
    ..@..

    offset: 0 -1


u+02d0:
uni02D0:
    .....
    .@@@.
    ..@..
    .....
    ..@..
    .@@@.
    .....

    offset: 0 -1


u+02d6:
uni02D6:
    .....
    .....
    ..@..
    .@@@.
    ..@..
    .....
    .....

    offset: 0 -1


u+02d8:
breve:
    @..@.
    .@@..
    .....
    .....
    .....
    .....
    .....

    offset: 0 -1


u+02d9:
dotaccent:
    ..@..
    .....
    .....
    .....
    .....
    .....
    .....

    offset: 0 -1


u+02da:
ring:
    ..@..
    .@.@.
    ..@..
    .....
    .....
    .....
    .....

    offset: 0 -1


u+02db:
ogonek:
    .....
    .....
    .....
    .....
    .....
    ..@..
    ..@@.

    offset: 0 -1


u+02dc:
tilde:
    .@.@.
    @.@..
    .....
    .....
    .....
    .....
    .....

    offset: 0 -1


u+02dd:
hungarumlaut:
    .@..@
    @..@.
    .....
    .....
    .....
    .....
    .....

    offset: 0 -1


u+0300:
gravecomb:
    .@...
    ..@..
    .....
    .....
    .....
    .....
    .....

    offset: 0 -1


u+0301:
acutecomb:
    ..@..
    .@...
    .....
    .....
    .....
    .....
    .....

    offset: 0 -1


u+0302:
uni0302:
    .@@..
    .....
    .....
    .....
    .....
    .....
    .....

    offset: 0 -1


u+0303:
tildecomb:
    .@.@.
    @.@..
    .....
    .....
    .....
    .....
    .....

    offset: 0 -1


u+0304:
uni0304:
    .@@@.
    .....
    .....
    .....
    .....
    .....
    .....

    offset: 0 -1


u+0305:
uni0305:
    @@@@@
    .....
    .....
    .....
    .....
    .....
    .....

    offset: 0 -1


u+0306:
uni0306:
    @..@.
    .@@..
    .....
    .....
    .....
    .....
    .....

    offset: 0 -1


u+0307:
uni0307:
    ..@..
    .....
    .....
    .....
    .....
    .....
    .....

    offset: 0 -1


u+0308:
uni0308:
    .@.@.
    .....
    .....
    .....
    .....
    .....
    .....

    offset: 0 -1


u+0309:
hookabovecomb:
    .@@..
    ..@..
    .....
    .....
    .....
    .....
    .....

    offset: 0 -1


u+030a:
uni030A:
    .@@..
    .@@..
    .....
    .....
    .....
    .....
    .....

    offset: 0 -1


u+030b:
uni030B:
    .@..@
    @..@.
    .....
    .....
    .....
    .....
    .....

    offset: 0 -1


u+030c:
uni030C:
    .@.@.
    ..@..
    .....
    .....
    .....
    .....
    .....

    offset: 0 -1


u+030d:
uni030D:
    ..@..
    ..@..
    .....
    .....
    .....
    .....
    .....

    offset: 0 -1


u+030e:
uni030E:
    .@.@.
    .@.@.
    .....
    .....
    .....
    .....
    .....

    offset: 0 -1


u+030f:
uni030F:
    @..@.
    .@..@
    .....
    .....
    .....
    .....
    .....

    offset: 0 -1


u+0310:
uni0310:
    @.@.@
    .@@@.
    .....
    .....
    .....
    .....
    .....

    offset: 0 -1


u+0311:
uni0311:
    .@@..
    @..@.
    .....
    .....
    .....
    .....
    .....

    offset: 0 -1


u+0323:
dotbelowcomb:
    .....
    .....
    .....
    .....
    .....
    .....
    ..@..

    offset: 0 -1


u+0324:
uni0324:
    .....
    .....
    .....
    .....
    .....
    .....
    .@.@.

    offset: 0 -1


u+0338:
uni0338:
    ...@.
    ..@..
    ..@..
    .@...
    .@...
    @....
    .....

    offset: 0 -1


u+0340:
uni0340:
    .@...
    ..@..
    .....
    .....
    .....
    .....
    .....

    offset: 0 -1


u+0341:
uni0341:
    ..@..
    .@...
    .....
    .....
    .....
    .....
    .....

    offset: 0 -1


u+0374:
uni0374:
    ..@..
    .@...
    .....
    .....
    .....
    .....
    .....

    offset: 0 -1


u+0375:
uni0375:
    .....
    .....
    .....
    .....
    .....
    ..@..
    .@...

    offset: 0 -1


u+037a:
uni037A:
    .....
    .....
    .....
    .....
    .....
    .....
    .@...

    offset: 0 -1


u+037e:
uni037E:
    .....
    .@@..
    .@@..
    .....
    .@@..
    .@...
    @....

    offset: 0 -1


u+0384:
tonos:
    ..@..
    .@...
    .....
    .....
    .....
    .....
    .....

    offset: 0 -1


u+0385:
dieresistonos:
    @.@@.
    .@...
    .....
    .....
    .....
    .....
    .....

    offset: 0 -1


u+0386:
Alphatonos:
    @.@..
    @@.@.
    .@.@.
    .@@@.
    .@.@.
    .@.@.
    .....

    offset: 0 -1


u+0387:
anoteleia:
    .....
    .....
    .@@..
    .@@..
    .....
    .....
    .....

    offset: 0 -1


u+0388:
Epsilontonos:
    @@@@.
    @@...
    .@@..
    .@...
    .@...
    .@@@.
    .....

    offset: 0 -1


u+0389:
Etatonos:
    @@.@.
    @@.@.
    .@@@.
    .@.@.
    .@.@.
    .@.@.
    .....

    offset: 0 -1


u+038a:
Iotatonos:
    @@@@.
    @.@..
    ..@..
    ..@..
    ..@..
    .@@@.
    .....

    offset: 0 -1


u+038c:
Omicrontonos:
    @.@..
    @@.@.
    .@.@.
    .@.@.
    .@.@.
    ..@..
    .....

    offset: 0 -1


u+038e:
Upsilontonos:
    @@.@.
    @@.@.
    .@.@.
    ..@..
    ..@..
    ..@..
    .....

    offset: 0 -1


u+038f:
Omegatonos:
    @.@..
    @@.@.
    .@.@.
    .@.@.
    ..@..
    .@.@.
    .....

    offset: 0 -1


u+0390:
iotadieresistonos:
    @.@@.
    .@...
    .....
    .@...
    .@...
    ..@..
    .....

    offset: 0 -1


u+0391:
Alpha:
    .@@..
    @..@.
    @..@.
    @@@@.
    @..@.
    @..@.
    .....

    offset: 0 -1


u+0392:
Beta:
    @@@..
    @..@.
    @@@..
    @..@.
    @..@.
    @@@..
    .....

    offset: 0 -1


u+0393:
Gamma:
    @@@@.
    @....
    @....
    @....
    @....
    @....
    .....

    offset: 0 -1


u+0394:
Delta:
    .@@..
    .@@..
    @..@.
    @..@.
    @..@.
    @@@@.
    .....

    offset: 0 -1


u+0395:
Epsilon:
    @@@@.
    @....
    @@@..
    @....
    @....
    @@@@.
    .....

    offset: 0 -1


u+0396:
Zeta:
    @@@@.
    ...@.
    ..@..
    .@...
    @....
    @@@@.
    .....

    offset: 0 -1


u+0397:
Eta:
    @..@.
    @..@.
    @@@@.
    @..@.
    @..@.
    @..@.
    .....

    offset: 0 -1


u+0398:
Theta:
    .@@..
    @..@.
    @@@@.
    @..@.
    @..@.
    .@@..
    .....

    offset: 0 -1


u+0399:
Iota:
    .@@@.
    ..@..
    ..@..
    ..@..
    ..@..
    .@@@.
    .....

    offset: 0 -1


u+039a:
Kappa:
    @..@.
    @.@..
    @@...
    @@...
    @.@..
    @..@.
    .....

    offset: 0 -1


u+039b:
Lambda:
    .@@..
    .@@..
    .@@..
    @..@.
    @..@.
    @..@.
    .....

    offset: 0 -1


u+039c:
Mu:
    @..@.
    @@@@.
    @@@@.
    @..@.
    @..@.
    @..@.
    .....

    offset: 0 -1


u+039d:
Nu:
    @..@.
    @@.@.
    @@.@.
    @.@@.
    @.@@.
    @..@.
    .....

    offset: 0 -1


u+039e:
Xi:
    @@@@.
    .....
    .@@..
    .....
    .....
    @@@@.
    .....

    offset: 0 -1


u+039f:
Omicron:
    .@@..
    @..@.
    @..@.
    @..@.
    @..@.
    .@@..
    .....

    offset: 0 -1


u+03a0:
Pi:
    @@@@.
    @..@.
    @..@.
    @..@.
    @..@.
    @..@.
    .....

    offset: 0 -1


u+03a1:
Rho:
    @@@..
    @..@.
    @..@.
    @@@..
    @....
    @....
    .....

    offset: 0 -1


u+03a3:
Sigma:
    @@@@.
    @....
    .@...
    .@...
    @....
    @@@@.
    .....

    offset: 0 -1


u+03a4:
Tau:
    .@@@.
    ..@..
    ..@..
    ..@..
    ..@..
    ..@..
    .....

    offset: 0 -1


u+03a5:
Upsilon:
    .@.@.
    .@.@.
    .@.@.
    ..@..
    ..@..
    ..@..
    .....

    offset: 0 -1


u+03a6:
Phi:
    ..@..
    .@@@.
    .@.@.
    .@.@.
    .@@@.
    ..@..
    .....

    offset: 0 -1


u+03a7:
Chi:
    @..@.
    @..@.
    .@@..
    .@@..
    @..@.
    @..@.
    .....

    offset: 0 -1


u+03a8:
Psi:
    .@.@.
    .@@@.
    .@@@.
    .@@@.
    ..@..
    ..@..
    .....

    offset: 0 -1


u+03a9:
Omega:
    ..@..
    .@.@.
    .@.@.
    .@.@.
    ..@..
    .@.@.
    .....

    offset: 0 -1


u+03aa:
Iotadieresis:
    .@.@.
    .....
    .@@@.
    ..@..
    ..@..
    .@@@.
    .....

    offset: 0 -1


u+03ab:
Upsilondieresis:
    @.@..
    .....
    @.@..
    @.@..
    .@...
    .@...
    .....

    offset: 0 -1


u+03ac:
alphatonos:
    ...@.
    ..@..
    .@@@.
    @..@.
    @.@@.
    .@.@.
    .....

    offset: 0 -1


u+03ad:
epsilontonos:
    ...@.
    ..@..
    .@@@.
    ..@..
    .@...
    ..@@.
    .....

    offset: 0 -1


u+03ae:
etatonos:
    ..@..
    .@...
    @@@..
    @..@.
    @..@.
    @..@.
    ...@.

    offset: 0 -1


u+03af:
iotatonos:
    ..@..
    .@...
    .....
    .@...
    .@...
    ..@..
    .....

    offset: 0 -1


u+03b0:
upsilondieresistonos:
    @.@@.
    .@...
    @..@.
    @..@.
    @..@.
    .@@..
    .....

    offset: 0 -1


u+03b1:
alpha:
    .....
    .....
    .@@@.
    @..@.
    @.@@.
    .@.@.
    .....

    offset: 0 -1


u+03b2:
beta:
    .@@..
    @..@.
    @@@..
    @..@.
    @..@.
    @@@..
    @....

    offset: 0 -1


u+03b3:
gamma:
    .....
    .....
    .@.@.
    .@.@.
    ..@..
    ..@..
    ..@..

    offset: 0 -1


u+03b4:
delta:
    .@@@.
    @....
    .@@..
    @..@.
    @..@.
    .@@..
    .....

    offset: 0 -1


u+03b5:
epsilon:
    .....
    .....
    .@@@.
    ..@..
    .@...
    ..@@.
    .....

    offset: 0 -1


u+03b6:
zeta:
    @@@@.
    .@...
    @....
    @....
    @....
    .@@@.
    ...@.

    offset: 0 -1


u+03b7:
eta:
    .....
    .....
    @@@..
    @..@.
    @..@.
    @..@.
    ...@.

    offset: 0 -1


u+03b8:
theta:
    ..@..
    .@.@.
    .@@@.
    .@.@.
    .@.@.
    ..@..
    .....

    offset: 0 -1


u+03b9:
iota:
    .....
    .....
    .@...
    .@...
    .@...
    ..@..
    .....

    offset: 0 -1


u+03ba:
kappa:
    .....
    .....
    @..@.
    @.@..
    @@@..
    @..@.
    .....

    offset: 0 -1


u+03bb:
lambda:
    @@@..
    ...@.
    .@.@.
    @.@@.
    @..@.
    @..@.
    .....

    offset: 0 -1


u+03bc:
mu:
    .....
    .....
    @..@.
    @..@.
    @..@.
    @@@@.
    @....

    offset: 0 -1


u+03bd:
nu:
    .....
    .....
    .@.@.
    .@.@.
    .@.@.
    ..@..
    .....

    offset: 0 -1


u+03be:
xi:
    @@@@.
    .@...
    @....
    .@@..
    @....
    .@@@.
    ...@.

    offset: 0 -1


u+03bf:
omicron:
    .....
    .....
    .@@..
    @..@.
    @..@.
    .@@..
    .....

    offset: 0 -1


u+03c0:
pi:
    .....
    .....
    .@@@.
    .@.@.
    .@.@.
    .@.@.
    .....

    offset: 0 -1


u+03c1:
rho:
    .....
    .....
    .@@..
    @..@.
    @..@.
    @@@..
    @....

    offset: 0 -1


u+03c2:
sigma1:
    .....
    .....
    .@@@.
    @@...
    ..@@.
    .@@..
    .....

    offset: 0 -1


u+03c3:
sigma:
    .....
    .....
    .@@@.
    @.@..
    @..@.
    .@@..
    .....

    offset: 0 -1


u+03c4:
tau:
    .....
    .....
    @@@@.
    .@...
    .@...
    ..@..
    .....

    offset: 0 -1


u+03c5:
upsilon:
    .....
    .....
    @..@.
    @..@.
    @..@.
    .@@..
    .....

    offset: 0 -1


u+03c6:
phi:
    .....
    .....
    ..@..
    .@@@.
    .@.@.
    .@@@.
    ..@..

    offset: 0 -1


u+03c7:
chi:
    .....
    .....
    @..@.
    .@@..
    .@@..
    @..@.
    @..@.

    offset: 0 -1


u+03c8:
psi:
    .....
    .....
    .@.@.
    .@@@.
    .@@@.
    ..@..
    ..@..

    offset: 0 -1


u+03c9:
omega:
    .....
    .....
    @..@.
    @..@.
    @@@@.
    @@@@.
    .....

    offset: 0 -1


u+03ca:
iotadieresis:
    @.@..
    .....
    .@...
    .@...
    .@...
    ..@..
    .....

    offset: 0 -1


u+03cb:
upsilondieresis:
    @..@.
    .....
    @..@.
    @..@.
    @..@.
    .@@..
    .....

    offset: 0 -1


u+03cc:
omicrontonos:
    ..@..
    .@...
    .@@..
    @..@.
    @..@.
    .@@..
    .....

    offset: 0 -1


u+03cd:
upsilontonos:
    ..@..
    .@...
    @..@.
    @..@.
    @..@.
    .@@..
    .....

    offset: 0 -1


u+03ce:
omegatonos:
    ..@..
    .@...
    @..@.
    @..@.
    @@@@.
    @@@@.
    .....

    offset: 0 -1


u+03d0:
uni03D0:
    .@@..
    @..@.
    @.@..
    @@.@.
    @..@.
    .@@..
    .....

    offset: 0 -1


u+03d1:
theta1:
    .@@..
    @..@.
    .@@@.
    ...@.
    @..@.
    .@@..
    .....

    offset: 0 -1


u+03d2:
Upsilon1:
    .@.@.
    .@.@.
    .@.@.
    ..@..
    ..@..
    ..@..
    .....

    offset: 0 -1


u+03d3:
uni03D3:
    @@.@.
    @@.@.
    .@.@.
    ..@..
    ..@..
    ..@..
    .....

    offset: 0 -1


u+03d4:
uni03D4:
    .@.@.
    .....
    .@.@.
    .@.@.
    ..@..
    ..@..
    .....

    offset: 0 -1


u+03d5:
phi1:
    .....
    .....
    ..@..
    .@@@.
    .@.@.
    .@@@.
    ..@..

    offset: 0 -1


u+03d6:
omega1:
    .....
    .....
    @@@@.
    @..@.
    @@@@.
    @@@@.
    .....

    offset: 0 -1


u+03d7:
uni03D7:
    .@...
    ..@..
    @..@.
    .@@..
    .@@..
    @..@.
    ..@@.

    offset: 0 -1


u+03da:
uni03DA:
    ..@..
    .@.@.
    @....
    @....
    .@@..
    ...@.
    ..@..

    offset: 0 -1


u+03db:
uni03DB:
    .....
    .....
    .@@@.
    @@...
    ..@@.
    .@@..
    .....

    offset: 0 -1


u+03dc:
uni03DC:
    @@@@.
    @....
    @@@..
    @....
    @....
    @....
    .....

    offset: 0 -1


u+03dd:
uni03DD:
    .....
    .....
    .@@@.
    .@...
    .@@..
    .@...
    .@...

    offset: 0 -1


u+03de:
uni03DE:
    @....
    @..@.
    @.@@.
    @@.@.
    @..@.
    ...@.
    .....

    offset: 0 -1


u+03df:
uni03DF:
    .@...
    .@...
    @....
    @@@@.
    ...@.
    ..@..
    ..@..

    offset: 0 -1


u+03e0:
uni03E0:
    .@@..
    .@@..
    .@@..
    @..@.
    @.@@.
    @.@@.
    .....

    offset: 0 -1


u+03e1:
uni03E1:
    @@...
    ..@..
    .@.@.
    @.@@.
    .@.@.
    ...@.
    ...@.

    offset: 0 -1


u+03f0:
uni03F0:
    .....
    .....
    @..@.
    .@@..
    .@@..
    @.@@.
    .....

    offset: 0 -1


u+03f1:
uni03F1:
    .....
    .....
    .@@..
    @..@.
    @@@..
    @....
    .@@..

    offset: 0 -1


u+03f2:
uni03F2:
    .....
    .....
    ..@@.
    .@...
    .@...
    ..@@.
    .....

    offset: 0 -1


u+03f3:
uni03F3:
    ...@.
    .....
    ...@.
    ...@.
    ...@.
    .@.@.
    ..@..

    offset: 0 -1


u+03f4:
uni03F4:
    .@@..
    @..@.
    @@@@.
    @..@.
    @..@.
    .@@..
    .....

    offset: 0 -1


u+03f5:
uni03F5:
    .....
    .....
    ..@@.
    .@@..
    .@...
    ..@@.
    .....

    offset: 0 -1


u+0401:
afii10023:
    @@@@.
    @....
    @@@..
    @....
    @....
    @@@@.
    .....

    offset: 0 -1


u+0402:
afii10051:
    @@@..
    .@...
    .@@..
    .@.@.
    .@.@.
    ...@.
    ..@..

    offset: 0 -1


u+0403:
afii10052:
    @@@@.
    @....
    @....
    @....
    @....
    @....
    .....

    offset: 0 -1


u+0404:
afii10053:
    .@@..
    @..@.
    @@...
    @....
    @..@.
    .@@..
    .....

    offset: 0 -1


u+0405:
afii10054:
    .@@..
    @..@.
    .@...
    ..@..
    @..@.
    .@@..
    .....

    offset: 0 -1


u+0406:
afii10055:
    .@@@.
    ..@..
    ..@..
    ..@..
    ..@..
    .@@@.
    .....

    offset: 0 -1


u+0407:
afii10056:
    .@@@.
    ..@..
    ..@..
    ..@..
    ..@..
    .@@@.
    .....

    offset: 0 -1


u+0408:
afii10057:
    ...@.
    ...@.
    ...@.
    ...@.
    @..@.
    .@@..
    .....

    offset: 0 -1


u+0409:
afii10058:
    .@@..
    @.@..
    @.@@.
    @.@.@
    @.@.@
    @.@@.
    .....

    offset: 0 -1


u+040a:
afii10059:
    @.@..
    @.@..
    @@@@.
    @.@.@
    @.@.@
    @.@@.
    .....

    offset: 0 -1


u+040b:
afii10060:
    @@@..
    .@...
    .@@..
    .@.@.
    .@.@.
    .@.@.
    .....

    offset: 0 -1


u+040c:
afii10061:
    @..@.
    @.@..
    @@...
    @@...
    @.@..
    @..@.
    .....

    offset: 0 -1


u+040e:
afii10062:
    .@.@.
    .@.@.
    .@.@.
    ..@..
    ..@..
    .@...
    .....

    offset: 0 -1


u+040f:
afii10145:
    .@.@.
    .@.@.
    .@.@.
    .@.@.
    .@.@.
    .@@@.
    ..@..

    offset: 0 -1


u+0410:
afii10017:
    .@@..
    @..@.
    @..@.
    @@@@.
    @..@.
    @..@.
    .....

    offset: 0 -1


u+0411:
afii10018:
    @@@..
    @....
    @@@..
    @..@.
    @..@.
    @@@..
    .....

    offset: 0 -1


u+0412:
afii10019:
    @@@..
    @..@.
    @@@..
    @..@.
    @..@.
    @@@..
    .....

    offset: 0 -1


u+0413:
afii10020:
    @@@@.
    @....
    @....
    @....
    @....
    @....
    .....

    offset: 0 -1


u+0414:
afii10021:
    ..@@.
    .@.@.
    .@.@.
    .@.@.
    .@.@.
    @@@@.
    @..@.

    offset: 0 -1


u+0415:
afii10022:
    @@@@.
    @....
    @@@..
    @....
    @....
    @@@@.
    .....

    offset: 0 -1


u+0416:
afii10024:
    @.@.@
    @.@.@
    .@@@.
    .@@@.
    @.@.@
    @.@.@
    .....

    offset: 0 -1


u+0417:
afii10025:
    @@@..
    ...@.
    .@@..
    ...@.
    @..@.
    .@@..
    .....

    offset: 0 -1


u+0418:
afii10026:
    @..@.
    @.@@.
    @.@@.
    @@.@.
    @@.@.
    @..@.
    .....

    offset: 0 -1


u+0419:
afii10027:
    @@.@.
    @.@@.
    @.@@.
    @@.@.
    @@.@.
    @..@.
    .....

    offset: 0 -1


u+041a:
afii10028:
    @..@.
    @.@..
    @@...
    @@...
    @.@..
    @..@.
    .....

    offset: 0 -1


u+041b:
afii10029:
    ..@@.
    .@.@.
    .@.@.
    .@.@.
    .@.@.
    @..@.
    .....

    offset: 0 -1


u+041c:
afii10030:
    @..@.
    @@@@.
    @@@@.
    @..@.
    @..@.
    @..@.
    .....

    offset: 0 -1


u+041d:
afii10031:
    @..@.
    @..@.
    @@@@.
    @..@.
    @..@.
    @..@.
    .....

    offset: 0 -1


u+041e:
afii10032:
    .@@..
    @..@.
    @..@.
    @..@.
    @..@.
    .@@..
    .....

    offset: 0 -1


u+041f:
afii10033:
    @@@@.
    @..@.
    @..@.
    @..@.
    @..@.
    @..@.
    .....

    offset: 0 -1


u+0420:
afii10034:
    @@@..
    @..@.
    @..@.
    @@@..
    @....
    @....
    .....

    offset: 0 -1


u+0421:
afii10035:
    .@@..
    @..@.
    @....
    @....
    @..@.
    .@@..
    .....

    offset: 0 -1


u+0422:
afii10036:
    .@@@.
    ..@..
    ..@..
    ..@..
    ..@..
    ..@..
    .....

    offset: 0 -1


u+0423:
afii10037:
    .@.@.
    .@.@.
    .@.@.
    ..@..
    ..@..
    .@...
    .....

    offset: 0 -1


u+0424:
afii10038:
    ..@..
    .@@@.
    .@.@.
    .@.@.
    .@@@.
    ..@..
    .....

    offset: 0 -1


u+0425:
afii10039:
    @..@.
    @..@.
    .@@..
    .@@..
    @..@.
    @..@.
    .....

    offset: 0 -1


u+0426:
afii10040:
    @..@.
    @..@.
    @..@.
    @..@.
    @..@.
    @@@@.
    ...@.

    offset: 0 -1


u+0427:
afii10041:
    @..@.
    @..@.
    @..@.
    .@@@.
    ...@.
    ...@.
    .....

    offset: 0 -1


u+0428:
afii10042:
    @.@.@
    @.@.@
    @.@.@
    @.@.@
    @.@.@
    @@@@@
    .....

    offset: 0 -1


u+0429:
afii10043:
    @.@.@
    @.@.@
    @.@.@
    @.@.@
    @.@.@
    @@@@@
    ....@

    offset: 0 -1


u+042a:
afii10044:
    @@...
    .@...
    .@@..
    .@.@.
    .@.@.
    .@@..
    .....

    offset: 0 -1


u+042b:
afii10045:
    @..@.
    @..@.
    @@.@.
    @.@@.
    @.@@.
    @@.@.
    .....

    offset: 0 -1


u+042c:
afii10046:
    @....
    @....
    @@@..
    @..@.
    @..@.
    @@@..
    .....

    offset: 0 -1


u+042d:
afii10047:
    .@@..
    @..@.
    ..@@.
    ...@.
    @..@.
    .@@..
    .....

    offset: 0 -1


u+042e:
afii10048:
    @.@..
    @@.@.
    @@.@.
    @@.@.
    @@.@.
    @.@..
    .....

    offset: 0 -1


u+042f:
afii10049:
    .@@@.
    @..@.
    @..@.
    .@@@.
    .@.@.
    @..@.
    .....

    offset: 0 -1


u+0430:
afii10065:
    .....
    .....
    .@@@.
    @..@.
    @.@@.
    .@.@.
    .....

    offset: 0 -1


u+0431:
afii10066:
    .....
    .@@..
    @....
    @@@..
    @..@.
    .@@..
    .....

    offset: 0 -1


u+0432:
afii10067:
    .....
    .....
    @@@..
    @@@..
    @..@.
    @@@..
    .....

    offset: 0 -1


u+0433:
afii10068:
    .....
    .....
    @@@@.
    @....
    @....
    @....
    .....

    offset: 0 -1


u+0434:
afii10069:
    .....
    .....
    ..@@.
    .@.@.
    .@.@.
    @@@@.
    @..@.

    offset: 0 -1


u+0435:
afii10070:
    .....
    .....
    .@@..
    @.@@.
    @@...
    .@@..
    .....

    offset: 0 -1


u+0436:
afii10072:
    .....
    .....
    @.@.@
    .@@@.
    .@@@.
    @.@.@
    .....

    offset: 0 -1


u+0437:
afii10073:
    .....
    .....
    @@@..
    .@@..
    ..@..
    @@...
    .....

    offset: 0 -1


u+0438:
afii10074:
    .....
    .....
    @..@.
    @.@@.
    @@.@.
    @..@.
    .....

    offset: 0 -1


u+0439:
afii10075:
    @..@.
    .@@..
    @..@.
    @.@@.
    @@.@.
    @..@.
    .....

    offset: 0 -1


u+043a:
afii10076:
    .....
    .....
    @..@.
    @@@..
    @.@..
    @..@.
    .....

    offset: 0 -1


u+043b:
afii10077:
    .....
    .....
    ..@@.
    .@.@.
    .@.@.
    @..@.
    .....

    offset: 0 -1


u+043c:
afii10078:
    .....
    .....
    @...@
    @@.@@
    @.@.@
    @.@.@
    .....

    offset: 0 -1


u+043d:
afii10079:
    .....
    .....
    @..@.
    @@@@.
    @..@.
    @..@.
    .....

    offset: 0 -1


u+043e:
afii10080:
    .....
    .....
    .@@..
    @..@.
    @..@.
    .@@..
    .....

    offset: 0 -1


u+043f:
afii10081:
    .....
    .....
    @@@@.
    @..@.
    @..@.
    @..@.
    .....

    offset: 0 -1


u+0440:
afii10082:
    .....
    .....
    @@@..
    @..@.
    @..@.
    @@@..
    @....

    offset: 0 -1


u+0441:
afii10083:
    .....
    .....
    .@@..
    @....
    @....
    .@@..
    .....

    offset: 0 -1


u+0442:
afii10084:
    .....
    .....
    @@@..
    .@...
    .@...
    .@...
    .....

    offset: 0 -1


u+0443:
afii10085:
    .....
    .....
    @..@.
    @..@.
    .@.@.
    ..@..
    .@...

    offset: 0 -1


u+0444:
afii10086:
    .@@..
    ..@..
    ..@..
    .@@@.
    .@.@.
    .@@@.
    ..@..

    offset: 0 -1


u+0445:
afii10087:
    .....
    .....
    @..@.
    .@@..
    .@@..
    @..@.
    .....

    offset: 0 -1


u+0446:
afii10088:
    .....
    .....
    @..@.
    @..@.
    @..@.
    @@@@.
    ...@.

    offset: 0 -1


u+0447:
afii10089:
    .....
    .....
    @..@.
    @..@.
    .@@@.
    ...@.
    .....

    offset: 0 -1


u+0448:
afii10090:
    .....
    .....
    @.@.@
    @.@.@
    @.@.@
    @@@@@
    .....

    offset: 0 -1


u+0449:
afii10091:
    .....
    .....
    @.@.@
    @.@.@
    @.@.@
    @@@@@
    ....@

    offset: 0 -1


u+044a:
afii10092:
    .....
    .....
    @@...
    .@@..
    .@.@.
    .@@..
    .....

    offset: 0 -1


u+044b:
afii10093:
    .....
    .....
    @..@.
    @@.@.
    @.@@.
    @@.@.
    .....

    offset: 0 -1


u+044c:
afii10094:
    .....
    .....
    @....
    @@@..
    @..@.
    @@@..
    .....

    offset: 0 -1


u+044d:
afii10095:
    .....
    .....
    .@@..
    ..@@.
    ...@.
    .@@..
    .....

    offset: 0 -1


u+044e:
afii10096:
    .....
    .....
    @.@..
    @@.@.
    @@.@.
    @.@..
    .....

    offset: 0 -1


u+044f:
afii10097:
    .....
    .....
    .@@..
    @.@..
    .@@..
    @.@..
    .....

    offset: 0 -1


u+0451:
afii10071:
    @.@..
    .....
    .@@..
    @.@@.
    @@...
    .@@..
    .....

    offset: 0 -1


u+0452:
afii10099:
    .@...
    @@@..
    .@...
    .@@..
    .@.@.
    ...@.
    ..@..

    offset: 0 -1


u+0453:
afii10100:
    ..@..
    .@...
    @@@@.
    @....
    @....
    @....
    .....

    offset: 0 -1


u+0454:
afii10101:
    .....
    .....
    ..@@.
    .@@..
    .@...
    ..@@.
    .....

    offset: 0 -1


u+0455:
afii10102:
    .....
    .....
    .@@@.
    @@...
    ..@@.
    @@@..
    .....

    offset: 0 -1


u+0456:
afii10103:
    ..@..
    .....
    .@@..
    ..@..
    ..@..
    .@@@.
    .....

    offset: 0 -1


u+0457:
afii10104:
    .@.@.
    .....
    .@@..
    ..@..
    ..@..
    .@@@.
    .....

    offset: 0 -1


u+0458:
afii10105:
    ...@.
    .....
    ...@.
    ...@.
    ...@.
    .@.@.
    ..@..

    offset: 0 -1


u+0459:
afii10106:
    .....
    .....
    .@@..
    @.@@@
    @.@.@
    @.@@.
    .....

    offset: 0 -1


u+045a:
afii10107:
    .....
    .....
    @.@..
    @@@@.
    @.@.@
    @.@@.
    .....

    offset: 0 -1


u+045b:
afii10108:
    .@...
    @@@..
    .@...
    .@@@.
    .@..@
    .@..@
    .....

    offset: 0 -1


u+045c:
afii10109:
    ..@..
    .@...
    @..@.
    @@@..
    @.@..
    @..@.
    .....

    offset: 0 -1


u+045e:
afii10110:
    @..@.
    .@@..
    .....
    @..@.
    .@.@.
    ..@..
    .@...

    offset: 0 -1


u+045f:
afii10193:
    .....
    .....
    .@.@.
    .@.@.
    .@.@.
    .@@@.
    ..@..

    offset: 0 -1


u+0490:
afii10050:
    ...@.
    @@@@.
    @....
    @....
    @....
    @....
    .....

    offset: 0 -1


u+0491:
afii10098:
    .....
    ...@.
    @@@@.
    @....
    @....
    @....
    .....

    offset: 0 -1


u+0492:
uni0492:
    .....
    .@@@.
    .@...
    @@@..
    .@...
    .@...
    .....

    offset: 0 -1


u+0493:
uni0493:
    .....
    .....
    .@@@.
    .@...
    @@@..
    .@...
    .....

    offset: 0 -1


u+0496:
uni0496:
    @.@.@
    @.@.@
    .@@@.
    .@@@.
    @.@.@
    @.@.@
    ....@

    offset: 0 -1


u+0497:
uni0497:
    .....
    .....
    @.@.@
    .@@@.
    .@@@.
    @.@.@
    ....@

    offset: 0 -1


u+049a:
uni049A:
    @..@.
    @.@..
    @@...
    @@...
    @.@..
    @..@.
    ....@

    offset: 0 -1


u+049b:
uni049B:
    .....
    .....
    @..@.
    @@@..
    @.@..
    @..@.
    ....@

    offset: 0 -1


u+04ae:
uni04AE:
    .@.@.
    .@.@.
    .@.@.
    ..@..
    ..@..
    ..@..
    .....

    offset: 0 -1


u+04af:
uni04AF:
    .....
    .....
    .@.@.
    .@.@.
    ..@..
    ..@..
    ..@..

    offset: 0 -1


u+04b0:
uni04B0:
    .@.@.
    .@.@.
    ..@..
    .@@@.
    ..@..
    ..@..
    .....

    offset: 0 -1


u+04b1:
uni04B1:
    .....
    .....
    .@.@.
    ..@..
    .@@@.
    ..@..
    ..@..

    offset: 0 -1


u+04b2:
uni04B2:
    @..@.
    @..@.
    .@@..
    .@@..
    @..@.
    @..@.
    ....@

    offset: 0 -1


u+04b3:
uni04B3:
    .....
    .....
    @..@.
    .@@..
    .@@..
    @..@.
    ....@

    offset: 0 -1


u+04ba:
uni04BA:
    @....
    @....
    @@@..
    @..@.
    @..@.
    @..@.
    .....

    offset: 0 -1


u+04bb:
uni04BB:
    .@...
    .@...
    .@@..
    .@.@.
    .@.@.
    .@.@.
    .....

    offset: 0 -1


u+04d8:
uni04D8:
    .@@..
    @..@.
    ...@.
    @@@@.
    @..@.
    .@@..
    .....

    offset: 0 -1


u+04d9:
afii10846:
    .....
    .....
    .@@..
    ..@@.
    @@.@.
    .@@..
    .....

    offset: 0 -1


u+04e2:
uni04E2:
    .@@@.
    ..@..
    ..@..
    ..@..
    ..@..
    .@@@.
    .....

    offset: 0 -1


u+04e3:
uni04E3:
    .@@@.
    .....
    .@@..
    ..@..
    ..@..
    .@@@.
    .....

    offset: 0 -1


u+04e8:
uni04E8:
    .@@..
    @..@.
    @@@@.
    @..@.
    @..@.
    .@@..
    .....

    offset: 0 -1


u+04e9:
uni04E9:
    .....
    .....
    .@@..
    @@@@.
    @..@.
    .@@..
    .....

    offset: 0 -1


u+04ee:
uni04EE:
    @..@.
    @..@.
    @..@.
    @..@.
    @..@.
    .@@..
    .....

    offset: 0 -1


u+04ef:
uni04EF:
    @@@@.
    .....
    @..@.
    @..@.
    @..@.
    .@@@.
    .....

    offset: 0 -1


u+05d0:
afii57664:
    .....
    .....
    @..@.
    .@.@.
    @.@..
    @..@.
    .....

    offset: 0 -1


u+05d1:
afii57665:
    .....
    .....
    @@@..
    ..@..
    ..@..
    @@@@.
    .....

    offset: 0 -1


u+05d2:
afii57666:
    .....
    .@...
    ..@..
    ..@..
    ..@..
    @@.@.
    .....

    offset: 0 -1


u+05d3:
afii57667:
    .....
    .....
    @@@@.
    ..@..
    ..@..
    ..@..
    .....

    offset: 0 -1


u+05d4:
afii57668:
    .....
    .....
    @@@@.
    ...@.
    @..@.
    @..@.
    .....

    offset: 0 -1


u+05d5:
afii57669:
    .....
    .@...
    ..@..
    ..@..
    ..@..
    ..@..
    .....

    offset: 0 -1


u+05d6:
afii57670:
    .....
    .....
    .@@@.
    ..@..
    ..@..
    ..@..
    .....

    offset: 0 -1


u+05d7:
afii57671:
    .....
    .....
    @@@@.
    .@.@.
    .@.@.
    .@.@.
    .....

    offset: 0 -1


u+05d8:
afii57672:
    .....
    .....
    @..@.
    @..@.
    @..@.
    @@@@.
    .....

    offset: 0 -1


u+05d9:
afii57673:
    .....
    .@...
    ..@..
    .....
    .....
    .....
    .....

    offset: 0 -1


u+05da:
afii57674:
    .....
    .....
    @@@@.
    ...@.
    ..@..
    ..@..
    .....

    offset: 0 -1


u+05db:
afii57675:
    .....
    @....
    .@@@.
    ...@.
    ...@.
    @@@..
    .....

    offset: 0 -1


u+05dc:
afii57676:
    .....
    @....
    .@@@.
    ...@.
    ..@..
    .@...
    .....

    offset: 0 -1


u+05dd:
afii57677:
    .....
    @....
    .@@@.
    @..@.
    @..@.
    @@@@.
    .....

    offset: 0 -1


u+05de:
afii57678:
    .....
    @....
    .@@@.
    @..@.
    @..@.
    @.@@.
    .....

    offset: 0 -1


u+05df:
afii57679:
    .....
    .@...
    ..@..
    .@...
    .@...
    .@...
    .....

    offset: 0 -1


u+05e0:
afii57680:
    .....
    .@...
    ..@..
    ..@..
    ..@..
    .@@..
    .....

    offset: 0 -1


u+05e1:
afii57681:
    .....
    @....
    .@@@@
    .@..@
    .@..@
    ..@@.
    .....

    offset: 0 -1


u+05e2:
afii57682:
    .....
    .....
    @..@.
    .@.@.
    .@.@.
    @@@@.
    .....

    offset: 0 -1


u+05e3:
afii57683:
    .....
    .....
    .@@@.
    @..@.
    ...@.
    ...@.
    .....

    offset: 0 -1


u+05e4:
afii57684:
    .....
    .....
    @@@@.
    @..@.
    ...@.
    @@@@.
    .....

    offset: 0 -1


u+05e5:
afii57685:
    .....
    .....
    .@.@.
    .@@..
    .@...
    .@...
    .....

    offset: 0 -1


u+05e6:
afii57686:
    .....
    .....
    @..@.
    .@@..
    ..@..
    @@@@.
    .....

    offset: 0 -1


u+05e7:
afii57687:
    .....
    .....
    @@@..
    ...@.
    @.@..
    @....
    .....

    offset: 0 -1


u+05e8:
afii57688:
    .....
    .....
    @@@@.
    ...@.
    ...@.
    ...@.
    .....

    offset: 0 -1


u+05e9:
afii57689:
    .....
    .....
    @.@.@
    @@..@
    @...@
    @@@@.
    .....

    offset: 0 -1


u+05ea:
afii57690:
    .....
    .....
    @@@@.
    .@.@.
    .@.@.
    @@.@.
    .....

    offset: 0 -1


u+16a0:
uni16A0:
    .@.@.
    .@@..
    .@.@.
    .@@..
    .@...
    .@...
    .....

    offset: 0 -1


u+16a2:
uni16A2:
    .@@..
    .@.@.
    .@.@.
    .@.@.
    .@.@.
    .@.@.
    .....

    offset: 0 -1


u+16a3:
uni16A3:
    ..@..
    .@.@.
    .@.@.
    .@@@.
    .@@@.
    .@@@.
    .....

    offset: 0 -1


u+16a6:
uni16A6:
    .@...
    .@@..
    .@.@.
    .@.@.
    .@@..
    .@...
    .....

    offset: 0 -1


u+16a9:
uni16A9:
    @@.@.
    @.@..
    @....
    @....
    @....
    @....
    .....

    offset: 0 -1


u+16aa:
uni16AA:
    @@.@.
    @.@..
    @....
    @@...
    @.@..
    @....
    .....

    offset: 0 -1


u+16ab:
uni16AB:
    .@@..
    .@.@.
    .@@..
    .@.@.
    .@...
    .@...
    .....

    offset: 0 -1


u+16b1:
uni16B1:
    @@@..
    @..@.
    @.@..
    @@...
    @.@..
    @....
    .....

    offset: 0 -1


u+16b3:
uni16B3:
    .@...
    .@...
    .@@..
    .@.@.
    .@.@.
    .@.@.
    .....

    offset: 0 -1


u+16b7:
uni16B7:
    .@.@.
    .@.@.
    ..@..
    ..@..
    .@.@.
    .@.@.
    .....

    offset: 0 -1


u+16b8:
uni16B8:
    .@.@.
    .@@@.
    @.@.@
    @.@.@
    .@@@.
    .@.@.
    .....

    offset: 0 -1


u+16b9:
uni16B9:
    .@@..
    .@.@.
    .@.@.
    .@@..
    .@...
    .@...
    .....

    offset: 0 -1


u+16bb:
uni16BB:
    @..@.
    @..@.
    @@.@.
    @.@@.
    @@.@.
    @.@@.
    .....

    offset: 0 -1


u+16be:
uni16BE:
    ..@..
    ..@..
    .@@..
    ..@@.
    ..@..
    ..@..
    .....

    offset: 0 -1


u+16c0:
uni16C0:
    ..@..
    ..@..
    ..@..
    ..@..
    ..@..
    ..@..
    .....

    offset: 0 -1


u+16c4:
uni16C4:
    ..@..
    .@@@.
    @.@.@
    @.@.@
    .@@@.
    ..@..
    .....

    offset: 0 -1


u+16c7:
uni16C7:
    ..@..
    ..@@.
    ..@.@
    @.@..
    .@@..
    ..@..
    .....

    offset: 0 -1


u+16c8:
uni16C8:
    @@.@.
    @.@..
    @....
    @....
    @.@..
    @@.@.
    .....

    offset: 0 -1


u+16c9:
uni16C9:
    @.@.@
    @.@.@
    @.@.@
    .@@@.
    ..@..
    ..@..
    .....

    offset: 0 -1


u+16cb:
uni16CB:
    @....
    @..@.
    @.@@.
    @@.@.
    @..@.
    ...@.
    .....

    offset: 0 -1


u+16cf:
uni16CF:
    ..@..
    .@@@.
    @.@.@
    ..@..
    ..@..
    ..@..
    .....

    offset: 0 -1


u+16d2:
uni16D2:
    @@@..
    @..@.
    @@@..
    @@@..
    @..@.
    @@@..
    .....

    offset: 0 -1


u+16d6:
uni16D6:
    @...@
    @@.@@
    @.@.@
    @...@
    @...@
    @...@
    .....

    offset: 0 -1


u+16d7:
uni16D7:
    @...@
    @@.@@
    @.@.@
    @@.@@
    @...@
    @...@
    .....

    offset: 0 -1


u+16da:
uni16DA:
    .@...
    .@@..
    .@.@.
    .@...
    .@...
    .@...
    .....

    offset: 0 -1


u+16dd:
uni16DD:
    .@.@.
    ..@..
    .@.@.
    .@.@.
    ..@..
    .@.@.
    .....

    offset: 0 -1


u+16de:
uni16DE:
    @...@
    @...@
    @@.@@
    @.@.@
    @@.@@
    @...@
    .....

    offset: 0 -1


u+16df:
uni16DF:
    ..@..
    .@.@.
    .@.@.
    ..@..
    .@.@.
    .@.@.
    .....

    offset: 0 -1


u+16e0:
uni16E0:
    @.@.@
    .@@@.
    ..@..
    ..@..
    ..@..
    ..@..
    .....

    offset: 0 -1


u+16e1:
uni16E1:
    @.@.@
    .@@@.
    .@@@.
    @.@.@
    ..@..
    ..@..
    .....

    offset: 0 -1


u+16e2:
uni16E2:
    ..@.@
    ..@@.
    ..@..
    ..@..
    .@@..
    @.@..
    .....

    offset: 0 -1


u+16e3:
uni16E3:
    ..@..
    ..@..
    ..@..
    .@@@.
    @.@.@
    @.@.@
    .....

    offset: 0 -1


u+16e4:
uni16E4:
    @..@.
    @@@@.
    @..@.
    @..@.
    @@@@.
    @..@.
    .....

    offset: 0 -1


u+16eb:
uni16EB:
    .....
    .....
    .....
    ..@..
    .....
    .....
    .....

    offset: 0 -1


u+16ec:
uni16EC:
    .....
    .....
    ..@..
    .....
    ..@..
    .....
    .....

    offset: 0 -1


u+16ed:
uni16ED:
    .....
    .....
    .@.@.
    ..@..
    .@.@.
    .....
    .....

    offset: 0 -1


u+1e02:
uni1E02:
    @@@..
    @..@.
    @@@..
    @..@.
    @..@.
    @@@..
    .....

    offset: 0 -1


u+1e03:
uni1E03:
    ..@..
    @....
    @....
    @@@..
    @..@.
    @@@..
    .....

    offset: 0 -1


u+1e0a:
uni1E0A:
    @@@..
    @..@.
    @..@.
    @..@.
    @..@.
    @@@..
    .....

    offset: 0 -1


u+1e0b:
uni1E0B:
    .@...
    ...@.
    ...@.
    .@@@.
    @..@.
    .@@@.
    .....

    offset: 0 -1


u+1e1e:
uni1E1E:
    @@@@.
    @....
    @@@..
    @....
    @....
    @....
    .....

    offset: 0 -1


u+1e1f:
uni1E1F:
    @....
    ..@..
    .@...
    @@@..
    .@...
    .@...
    .....

    offset: 0 -1


u+1e40:
uni1E40:
    @..@.
    @@@@.
    @@@@.
    @..@.
    @..@.
    @..@.
    .....

    offset: 0 -1


u+1e41:
uni1E41:
    ..@..
    .....
    @.@..
    @@@@.
    @..@.
    @..@.
    .....

    offset: 0 -1


u+1e56:
uni1E56:
    @@@..
    @..@.
    @..@.
    @@@..
    @....
    @....
    .....

    offset: 0 -1


u+1e57:
uni1E57:
    ..@..
    .....
    @@@..
    @..@.
    @..@.
    @@@..
    @....

    offset: 0 -1


u+1e60:
uni1E60:
    .@@..
    @..@.
    .@...
    ..@..
    @..@.
    .@@..
    .....

    offset: 0 -1


u+1e61:
uni1E61:
    ..@..
    .....
    .@@@.
    @@...
    ..@@.
    @@@..
    .....

    offset: 0 -1


u+1e6a:
uni1E6A:
    .@@@.
    ..@..
    ..@..
    ..@..
    ..@..
    ..@..
    .....

    offset: 0 -1


u+1e6b:
uni1E6B:
    @....
    ..@..
    .@@@.
    ..@..
    ..@..
    ...@.
    .....

    offset: 0 -1


u+1e80:
Wgrave:
    @..@.
    @..@.
    @..@.
    @@@@.
    @@@@.
    @..@.
    .....

    offset: 0 -1


u+1e81:
wgrave:
    .@...
    ..@..
    .....
    @..@.
    @@@@.
    @@@@.
    .....

    offset: 0 -1


u+1e82:
Wacute:
    @..@.
    @..@.
    @..@.
    @@@@.
    @@@@.
    @..@.
    .....

    offset: 0 -1


u+1e83:
wacute:
    ..@..
    .@...
    .....
    @..@.
    @@@@.
    @@@@.
    .....

    offset: 0 -1


u+1e84:
Wdieresis:
    @..@.
    @..@.
    @..@.
    @@@@.
    @@@@.
    @..@.
    .....

    offset: 0 -1


u+1e85:
wdieresis:
    .....
    @.@..
    .....
    @..@.
    @@@@.
    @@@@.
    .....

    offset: 0 -1


u+1ef2:
Ygrave:
    .@.@.
    .@.@.
    .@.@.
    ..@..
    ..@..
    ..@..
    .....

    offset: 0 -1


u+1ef3:
ygrave:
    .@...
    ..@..
    .....
    @..@.
    .@.@.
    ..@..
    .@...

    offset: 0 -1


u+1f00:
uni1F00:
    .@@..
    ..@..
    .@@@.
    @..@.
    @.@@.
    .@.@.
    .....

    offset: 0 -1


u+1f01:
uni1F01:
    .@@..
    .@...
    .@@@.
    @..@.
    @.@@.
    .@.@.
    .....

    offset: 0 -1


u+1f02:
uni1F02:
    @@@..
    .@.@.
    .@@@.
    @..@.
    @.@@.
    .@.@.
    .....

    offset: 0 -1


u+1f03:
uni1F03:
    @@@..
    @..@.
    .@@@.
    @..@.
    @.@@.
    .@.@.
    .....

    offset: 0 -1


u+1f04:
uni1F04:
    @@.@.
    .@@..
    .@@@.
    @..@.
    @.@@.
    .@.@.
    .....

    offset: 0 -1


u+1f05:
uni1F05:
    @@.@.
    @.@..
    .@@@.
    @..@.
    @.@@.
    .@.@.
    .....

    offset: 0 -1


u+1f06:
uni1F06:
    .@@@.
    ..@..
    .@@@.
    @..@.
    @.@@.
    .@.@.
    .....

    offset: 0 -1


u+1f07:
uni1F07:
    .@@@.
    ..@..
    .@@@.
    @..@.
    @.@@.
    .@.@.
    .....

    offset: 0 -1


u+1f08:
uni1F08:
    @.@..
    @@.@.
    .@.@.
    .@@@.
    .@.@.
    .@.@.
    .....

    offset: 0 -1


u+1f09:
uni1F09:
    @.@..
    @@.@.
    .@.@.
    .@@@.
    .@.@.
    .@.@.
    .....

    offset: 0 -1


u+1f0a:
uni1F0A:
    @.@..
    @@.@.
    .@.@.
    .@@@.
    .@.@.
    .@.@.
    .....

    offset: 0 -1


u+1f0b:
uni1F0B:
    @.@..
    @@.@.
    .@.@.
    .@@@.
    .@.@.
    .@.@.
    .....

    offset: 0 -1


u+1f0c:
uni1F0C:
    @.@..
    @@.@.
    .@.@.
    .@@@.
    .@.@.
    .@.@.
    .....

    offset: 0 -1


u+1f0d:
uni1F0D:
    @.@..
    @@.@.
    .@.@.
    .@@@.
    .@.@.
    .@.@.
    .....

    offset: 0 -1


u+1f0e:
uni1F0E:
    @.@..
    @@.@.
    .@.@.
    .@@@.
    .@.@.
    .@.@.
    .....

    offset: 0 -1


u+1f0f:
uni1F0F:
    @.@..
    @@.@.
    .@.@.
    .@@@.
    .@.@.
    .@.@.
    .....

    offset: 0 -1


u+1f10:
uni1F10:
    ..@@.
    ...@.
    .@@@.
    ..@..
    .@...
    ..@@.
    .....

    offset: 0 -1


u+1f11:
uni1F11:
    ..@@.
    ..@..
    .@@@.
    ..@..
    .@...
    ..@@.
    .....

    offset: 0 -1


u+1f12:
uni1F12:
    @@@..
    .@.@.
    @@@..
    .@...
    @....
    .@@..
    .....

    offset: 0 -1


u+1f13:
uni1F13:
    @@@..
    @..@.
    @@@..
    .@...
    @....
    .@@..
    .....

    offset: 0 -1


u+1f14:
uni1F14:
    @@.@.
    .@@..
    @@@..
    .@...
    @....
    .@@..
    .....

    offset: 0 -1


u+1f15:
uni1F15:
    @@.@.
    @.@..
    @@@..
    .@...
    @....
    .@@..
    .....

    offset: 0 -1


u+1f18:
uni1F18:
    @@@@.
    @@...
    .@@..
    .@...
    .@...
    .@@@.
    .....

    offset: 0 -1


u+1f19:
uni1F19:
    @@@@.
    @@...
    .@@..
    .@...
    .@...
    .@@@.
    .....

    offset: 0 -1


u+1f1a:
uni1F1A:
    @@@@.
    @@...
    .@@..
    .@...
    .@...
    .@@@.
    .....

    offset: 0 -1


u+1f1b:
uni1F1B:
    @@@@.
    @@...
    .@@..
    .@...
    .@...
    .@@@.
    .....

    offset: 0 -1


u+1f1c:
uni1F1C:
    @@@@.
    @@...
    .@@..
    .@...
    .@...
    .@@@.
    .....

    offset: 0 -1


u+1f1d:
uni1F1D:
    @@@@.
    @@...
    .@@..
    .@...
    .@...
    .@@@.
    .....

    offset: 0 -1


u+1f20:
uni1F20:
    .@@..
    ..@..
    @@@..
    @..@.
    @..@.
    @..@.
    ...@.

    offset: 0 -1


u+1f21:
uni1F21:
    .@@..
    .@...
    @@@..
    @..@.
    @..@.
    @..@.
    ...@.

    offset: 0 -1


u+1f22:
uni1F22:
    @@@..
    .@.@.
    @@@..
    @..@.
    @..@.
    @..@.
    ...@.

    offset: 0 -1


u+1f23:
uni1F23:
    @@@..
    @..@.
    @@@..
    @..@.
    @..@.
    @..@.
    ...@.

    offset: 0 -1


u+1f24:
uni1F24:
    @@.@.
    .@@..
    @@@..
    @..@.
    @..@.
    @..@.
    ...@.

    offset: 0 -1


u+1f25:
uni1F25:
    @@.@.
    @.@..
    @@@..
    @..@.
    @..@.
    @..@.
    ...@.

    offset: 0 -1


u+1f26:
uni1F26:
    .@@@.
    ..@..
    @@@..
    @..@.
    @..@.
    @..@.
    ...@.

    offset: 0 -1


u+1f27:
uni1F27:
    .@@@.
    ..@..
    @@@..
    @..@.
    @..@.
    @..@.
    ...@.

    offset: 0 -1


u+1f28:
uni1F28:
    @@.@.
    @@.@.
    .@@@.
    .@.@.
    .@.@.
    .@.@.
    .....

    offset: 0 -1


u+1f29:
uni1F29:
    @@.@.
    @@.@.
    .@@@.
    .@.@.
    .@.@.
    .@.@.
    .....

    offset: 0 -1


u+1f2a:
uni1F2A:
    @@.@.
    @@.@.
    .@@@.
    .@.@.
    .@.@.
    .@.@.
    .....

    offset: 0 -1


u+1f2b:
uni1F2B:
    @@.@.
    @@.@.
    .@@@.
    .@.@.
    .@.@.
    .@.@.
    .....

    offset: 0 -1


u+1f2c:
uni1F2C:
    @@.@.
    @@.@.
    .@@@.
    .@.@.
    .@.@.
    .@.@.
    .....

    offset: 0 -1


u+1f2d:
uni1F2D:
    @@.@.
    @@.@.
    .@@@.
    .@.@.
    .@.@.
    .@.@.
    .....

    offset: 0 -1


u+1f2e:
uni1F2E:
    @@.@.
    @@.@.
    .@@@.
    .@.@.
    .@.@.
    .@.@.
    .....

    offset: 0 -1


u+1f2f:
uni1F2F:
    @@.@.
    @@.@.
    .@@@.
    .@.@.
    .@.@.
    .@.@.
    .....

    offset: 0 -1


u+1f30:
uni1F30:
    .@@..
    ..@..
    .....
    .@...
    .@...
    ..@..
    .....

    offset: 0 -1


u+1f31:
uni1F31:
    .@@..
    .@...
    .....
    .@...
    .@...
    ..@..
    .....

    offset: 0 -1


u+1f32:
uni1F32:
    @@@..
    .@.@.
    .....
    .@...
    .@...
    ..@..
    .....

    offset: 0 -1


u+1f33:
uni1F33:
    @@@..
    @..@.
    .....
    .@...
    .@...
    ..@..
    .....

    offset: 0 -1


u+1f34:
uni1F34:
    @@.@.
    .@@..
    .....
    .@...
    .@...
    ..@..
    .....

    offset: 0 -1


u+1f35:
uni1F35:
    @@.@.
    @.@..
    .....
    .@...
    .@...
    ..@..
    .....

    offset: 0 -1


u+1f36:
uni1F36:
    @@@..
    .@...
    .....
    .@...
    .@...
    ..@..
    .....

    offset: 0 -1


u+1f37:
uni1F37:
    @@@..
    .@...
    .....
    .@...
    .@...
    ..@..
    .....

    offset: 0 -1


u+1f38:
uni1F38:
    @@@@.
    @.@..
    ..@..
    ..@..
    ..@..
    .@@@.
    .....

    offset: 0 -1


u+1f39:
uni1F39:
    @@@@.
    @.@..
    ..@..
    ..@..
    ..@..
    .@@@.
    .....

    offset: 0 -1


u+1f3a:
uni1F3A:
    @@@@.
    @.@..
    ..@..
    ..@..
    ..@..
    .@@@.
    .....

    offset: 0 -1


u+1f3b:
uni1F3B:
    @@@@.
    @.@..
    ..@..
    ..@..
    ..@..
    .@@@.
    .....

    offset: 0 -1


u+1f3c:
uni1F3C:
    @@@@.
    @.@..
    ..@..
    ..@..
    ..@..
    .@@@.
    .....

    offset: 0 -1


u+1f3d:
uni1F3D:
    @@@@.
    @.@..
    ..@..
    ..@..
    ..@..
    .@@@.
    .....

    offset: 0 -1


u+1f3e:
uni1F3E:
    @@@@.
    @.@..
    ..@..
    ..@..
    ..@..
    .@@@.
    .....

    offset: 0 -1


u+1f3f:
uni1F3F:
    @@@@.
    @.@..
    ..@..
    ..@..
    ..@..
    .@@@.
    .....

    offset: 0 -1


u+1f40:
uni1F40:
    .@@..
    ..@..
    .@@..
    @..@.
    @..@.
    .@@..
    .....

    offset: 0 -1


u+1f41:
uni1F41:
    .@@..
    .@...
    .@@..
    @..@.
    @..@.
    .@@..
    .....

    offset: 0 -1


u+1f42:
uni1F42:
    @@@..
    .@.@.
    .@@..
    @..@.
    @..@.
    .@@..
    .....

    offset: 0 -1


u+1f43:
uni1F43:
    @@@..
    @..@.
    .@@..
    @..@.
    @..@.
    .@@..
    .....

    offset: 0 -1


u+1f44:
uni1F44:
    @@.@.
    .@@..
    .@@..
    @..@.
    @..@.
    .@@..
    .....

    offset: 0 -1


u+1f45:
uni1F45:
    @@.@.
    @.@..
    .@@..
    @..@.
    @..@.
    .@@..
    .....

    offset: 0 -1


u+1f48:
uni1F48:
    @.@..
    @@.@.
    .@.@.
    .@.@.
    .@.@.
    ..@..
    .....

    offset: 0 -1


u+1f49:
uni1F49:
    @.@..
    @@.@.
    .@.@.
    .@.@.
    .@.@.
    ..@..
    .....

    offset: 0 -1


u+1f4a:
uni1F4A:
    @.@..
    @@.@.
    .@.@.
    .@.@.
    .@.@.
    ..@..
    .....

    offset: 0 -1


u+1f4b:
uni1F4B:
    @.@..
    @@.@.
    .@.@.
    .@.@.
    .@.@.
    ..@..
    .....

    offset: 0 -1


u+1f4c:
uni1F4C:
    @.@..
    @@.@.
    .@.@.
    .@.@.
    .@.@.
    ..@..
    .....

    offset: 0 -1


u+1f4d:
uni1F4D:
    @.@..
    @@.@.
    .@.@.
    .@.@.
    .@.@.
    ..@..
    .....

    offset: 0 -1


u+1f50:
uni1F50:
    .@@..
    ..@..
    @..@.
    @..@.
    @..@.
    .@@..
    .....

    offset: 0 -1


u+1f51:
uni1F51:
    .@@..
    .@...
    @..@.
    @..@.
    @..@.
    .@@..
    .....

    offset: 0 -1


u+1f52:
uni1F52:
    @@@..
    .@.@.
    @..@.
    @..@.
    @..@.
    .@@..
    .....

    offset: 0 -1


u+1f53:
uni1F53:
    @@@..
    @..@.
    @..@.
    @..@.
    @..@.
    .@@..
    .....

    offset: 0 -1


u+1f54:
uni1F54:
    @@.@.
    .@@..
    @..@.
    @..@.
    @..@.
    .@@..
    .....

    offset: 0 -1


u+1f55:
uni1F55:
    @@.@.
    @.@..
    @..@.
    @..@.
    @..@.
    .@@..
    .....

    offset: 0 -1


u+1f56:
uni1F56:
    .@@@.
    ..@..
    @..@.
    @..@.
    @..@.
    .@@..
    .....

    offset: 0 -1


u+1f57:
uni1F57:
    .@@@.
    ..@..
    @..@.
    @..@.
    @..@.
    .@@..
    .....

    offset: 0 -1


u+1f59:
uni1F59:
    @@.@.
    @@.@.
    .@.@.
    ..@..
    ..@..
    ..@..
    .....

    offset: 0 -1


u+1f5b:
uni1F5B:
    @@.@.
    @@.@.
    .@.@.
    ..@..
    ..@..
    ..@..
    .....

    offset: 0 -1


u+1f5d:
uni1F5D:
    @@.@.
    @@.@.
    .@.@.
    ..@..
    ..@..
    ..@..
    .....

    offset: 0 -1


u+1f5f:
uni1F5F:
    @@.@.
    @@.@.
    .@.@.
    ..@..
    ..@..
    ..@..
    .....

    offset: 0 -1


u+1f60:
uni1F60:
    .@@..
    ..@..
    @..@.
    @..@.
    @@@@.
    @@@@.
    .....

    offset: 0 -1


u+1f61:
uni1F61:
    .@@..
    .@...
    @..@.
    @..@.
    @@@@.
    @@@@.
    .....

    offset: 0 -1


u+1f62:
uni1F62:
    @@@..
    .@.@.
    @..@.
    @..@.
    @@@@.
    @@@@.
    .....

    offset: 0 -1


u+1f63:
uni1F63:
    @@@..
    @..@.
    @..@.
    @..@.
    @@@@.
    @@@@.
    .....

    offset: 0 -1


u+1f64:
uni1F64:
    @@.@.
    .@@..
    @..@.
    @..@.
    @@@@.
    @@@@.
    .....

    offset: 0 -1


u+1f65:
uni1F65:
    @@.@.
    @.@..
    @..@.
    @..@.
    @@@@.
    @@@@.
    .....

    offset: 0 -1


u+1f66:
uni1F66:
    .@@@.
    ..@..
    @..@.
    @..@.
    @@@@.
    @@@@.
    .....

    offset: 0 -1


u+1f67:
uni1F67:
    .@@@.
    ..@..
    @..@.
    @..@.
    @@@@.
    @@@@.
    .....

    offset: 0 -1


u+1f68:
uni1F68:
    @.@..
    @@.@.
    .@.@.
    .@.@.
    ..@..
    .@.@.
    .....

    offset: 0 -1


u+1f69:
uni1F69:
    @.@..
    @@.@.
    .@.@.
    .@.@.
    ..@..
    .@.@.
    .....

    offset: 0 -1


u+1f6a:
uni1F6A:
    @.@..
    @@.@.
    .@.@.
    .@.@.
    ..@..
    .@.@.
    .....

    offset: 0 -1


u+1f6b:
uni1F6B:
    @.@..
    @@.@.
    .@.@.
    .@.@.
    ..@..
    .@.@.
    .....

    offset: 0 -1


u+1f6c:
uni1F6C:
    @.@..
    @@.@.
    .@.@.
    .@.@.
    ..@..
    .@.@.
    .....

    offset: 0 -1


u+1f6d:
uni1F6D:
    @.@..
    @@.@.
    .@.@.
    .@.@.
    ..@..
    .@.@.
    .....

    offset: 0 -1


u+1f6e:
uni1F6E:
    @.@..
    @@.@.
    .@.@.
    .@.@.
    ..@..
    .@.@.
    .....

    offset: 0 -1


u+1f6f:
uni1F6F:
    @.@..
    @@.@.
    .@.@.
    .@.@.
    ..@..
    .@.@.
    .....

    offset: 0 -1


u+1f70:
uni1F70:
    .@...
    ..@..
    .@@@.
    @..@.
    @.@@.
    .@.@.
    .....

    offset: 0 -1


u+1f71:
uni1F71:
    ...@.
    ..@..
    .@@@.
    @..@.
    @.@@.
    .@.@.
    .....

    offset: 0 -1


u+1f72:
uni1F72:
    .@...
    ..@..
    .@@@.
    ..@..
    .@...
    ..@@.
    .....

    offset: 0 -1


u+1f73:
uni1F73:
    ...@.
    ..@..
    .@@@.
    ..@..
    .@...
    ..@@.
    .....

    offset: 0 -1


u+1f74:
uni1F74:
    @....
    .@...
    @@@..
    @..@.
    @..@.
    @..@.
    ...@.

    offset: 0 -1


u+1f75:
uni1F75:
    ..@..
    .@...
    @@@..
    @..@.
    @..@.
    @..@.
    ...@.

    offset: 0 -1


u+1f76:
uni1F76:
    @....
    .@...
    .....
    .@...
    .@...
    ..@..
    .....

    offset: 0 -1


u+1f77:
uni1F77:
    ..@..
    .@...
    .....
    .@...
    .@...
    ..@..
    .....

    offset: 0 -1


u+1f78:
uni1F78:
    @....
    .@...
    .@@..
    @..@.
    @..@.
    .@@..
    .....

    offset: 0 -1


u+1f79:
uni1F79:
    ..@..
    .@...
    .@@..
    @..@.
    @..@.
    .@@..
    .....

    offset: 0 -1


u+1f7a:
uni1F7A:
    .@...
    ..@..
    @..@.
    @..@.
    @..@.
    .@@..
    .....

    offset: 0 -1


u+1f7b:
uni1F7B:
    ..@..
    .@...
    @..@.
    @..@.
    @..@.
    .@@..
    .....

    offset: 0 -1


u+1f7c:
uni1F7C:
    .@...
    ..@..
    @..@.
    @..@.
    @@@@.
    @@@@.
    .....

    offset: 0 -1


u+1f7d:
uni1F7D:
    ..@..
    .@...
    @..@.
    @..@.
    @@@@.
    @@@@.
    .....

    offset: 0 -1


u+1f80:
uni1F80:
    .@@..
    ..@..
    .@@@.
    @..@.
    @.@@.
    .@.@.
    .@...

    offset: 0 -1


u+1f81:
uni1F81:
    .@@..
    .@...
    .@@@.
    @..@.
    @.@@.
    .@.@.
    .@...

    offset: 0 -1


u+1f82:
uni1F82:
    @@@..
    .@.@.
    .@@@.
    @..@.
    @.@@.
    .@.@.
    .@...

    offset: 0 -1


u+1f83:
uni1F83:
    @@@..
    @..@.
    .@@@.
    @..@.
    @.@@.
    .@.@.
    .@...

    offset: 0 -1


u+1f84:
uni1F84:
    @@.@.
    .@@..
    .@@@.
    @..@.
    @.@@.
    .@.@.
    .@...

    offset: 0 -1


u+1f85:
uni1F85:
    @@.@.
    @.@..
    .@@@.
    @..@.
    @.@@.
    .@.@.
    .@...

    offset: 0 -1


u+1f86:
uni1F86:
    .@@@.
    ..@..
    .@@@.
    @..@.
    @.@@.
    .@.@.
    .@...

    offset: 0 -1


u+1f87:
uni1F87:
    .@@@.
    ..@..
    .@@@.
    @..@.
    @.@@.
    .@.@.
    .@...

    offset: 0 -1


u+1f88:
uni1F88:
    @.@..
    @@.@.
    .@.@.
    .@@@.
    .@.@.
    .@.@.
    ..@..

    offset: 0 -1


u+1f89:
uni1F89:
    @.@..
    @@.@.
    .@.@.
    .@@@.
    .@.@.
    .@.@.
    ..@..

    offset: 0 -1


u+1f8a:
uni1F8A:
    @.@..
    @@.@.
    .@.@.
    .@@@.
    .@.@.
    .@.@.
    ..@..

    offset: 0 -1


u+1f8b:
uni1F8B:
    @.@..
    @@.@.
    .@.@.
    .@@@.
    .@.@.
    .@.@.
    ..@..

    offset: 0 -1


u+1f8c:
uni1F8C:
    @.@..
    @@.@.
    .@.@.
    .@@@.
    .@.@.
    .@.@.
    ..@..

    offset: 0 -1


u+1f8d:
uni1F8D:
    @.@..
    @@.@.
    .@.@.
    .@@@.
    .@.@.
    .@.@.
    ..@..

    offset: 0 -1


u+1f8e:
uni1F8E:
    @.@..
    @@.@.
    .@.@.
    .@@@.
    .@.@.
    .@.@.
    ..@..

    offset: 0 -1


u+1f8f:
uni1F8F:
    @.@..
    @@.@.
    .@.@.
    .@@@.
    .@.@.
    .@.@.
    ..@..

    offset: 0 -1


u+1f90:
uni1F90:
    .@@..
    ..@..
    @@@..
    @..@.
    @..@.
    ...@.
    @..@.

    offset: 0 -1


u+1f91:
uni1F91:
    .@@..
    .@...
    @@@..
    @..@.
    @..@.
    ...@.
    @..@.

    offset: 0 -1


u+1f92:
uni1F92:
    @@@..
    .@.@.
    @@@..
    @..@.
    @..@.
    ...@.
    @..@.

    offset: 0 -1


u+1f93:
uni1F93:
    @@@..
    @..@.
    @@@..
    @..@.
    @..@.
    ...@.
    @..@.

    offset: 0 -1


u+1f94:
uni1F94:
    @@.@.
    .@@..
    @@@..
    @..@.
    @..@.
    ...@.
    @..@.

    offset: 0 -1


u+1f95:
uni1F95:
    @@.@.
    @.@..
    @@@..
    @..@.
    @..@.
    ...@.
    @..@.

    offset: 0 -1


u+1f96:
uni1F96:
    .@@@.
    ..@..
    @@@..
    @..@.
    @..@.
    ...@.
    @..@.

    offset: 0 -1


u+1f97:
uni1F97:
    .@@@.
    ..@..
    @@@..
    @..@.
    @..@.
    ...@.
    @..@.

    offset: 0 -1


u+1f98:
uni1F98:
    @@.@.
    @@.@.
    .@@@.
    .@.@.
    .@.@.
    .@.@.
    ..@..

    offset: 0 -1


u+1f99:
uni1F99:
    @@.@.
    @@.@.
    .@@@.
    .@.@.
    .@.@.
    .@.@.
    ..@..

    offset: 0 -1


u+1f9a:
uni1F9A:
    @@.@.
    @@.@.
    .@@@.
    .@.@.
    .@.@.
    .@.@.
    ..@..

    offset: 0 -1


u+1f9b:
uni1F9B:
    @@.@.
    @@.@.
    .@@@.
    .@.@.
    .@.@.
    .@.@.
    ..@..

    offset: 0 -1


u+1f9c:
uni1F9C:
    @@.@.
    @@.@.
    .@@@.
    .@.@.
    .@.@.
    .@.@.
    ..@..

    offset: 0 -1


u+1f9d:
uni1F9D:
    @@.@.
    @@.@.
    .@@@.
    .@.@.
    .@.@.
    .@.@.
    ..@..

    offset: 0 -1


u+1f9e:
uni1F9E:
    @@.@.
    @@.@.
    .@@@.
    .@.@.
    .@.@.
    .@.@.
    ..@..

    offset: 0 -1


u+1f9f:
uni1F9F:
    @@.@.
    @@.@.
    .@@@.
    .@.@.
    .@.@.
    .@.@.
    ..@..

    offset: 0 -1


u+1fa0:
uni1FA0:
    .@@..
    ..@..
    @..@.
    @..@.
    @@@@.
    @@@@.
    .@...

    offset: 0 -1


u+1fa1:
uni1FA1:
    .@@..
    .@...
    @..@.
    @..@.
    @@@@.
    @@@@.
    .@...

    offset: 0 -1


u+1fa2:
uni1FA2:
    @@@..
    .@.@.
    @..@.
    @..@.
    @@@@.
    @@@@.
    .@...

    offset: 0 -1


u+1fa3:
uni1FA3:
    @@@..
    @..@.
    @..@.
    @..@.
    @@@@.
    @@@@.
    .@...

    offset: 0 -1


u+1fa4:
uni1FA4:
    @@.@.
    .@@..
    @..@.
    @..@.
    @@@@.
    @@@@.
    .@...

    offset: 0 -1


u+1fa5:
uni1FA5:
    @@.@.
    @.@..
    @..@.
    @..@.
    @@@@.
    @@@@.
    .@...

    offset: 0 -1


u+1fa6:
uni1FA6:
    .@@@.
    ..@..
    @..@.
    @..@.
    @@@@.
    @@@@.
    .@...

    offset: 0 -1


u+1fa7:
uni1FA7:
    .@@@.
    ..@..
    @..@.
    @..@.
    @@@@.
    @@@@.
    .@...

    offset: 0 -1


u+1fa8:
uni1FA8:
    @.@..
    @@.@.
    .@.@.
    .@.@.
    ..@..
    .@.@.
    ..@..

    offset: 0 -1


u+1fa9:
uni1FA9:
    @.@..
    @@.@.
    .@.@.
    .@.@.
    ..@..
    .@.@.
    ..@..

    offset: 0 -1


u+1faa:
uni1FAA:
    @.@..
    @@.@.
    .@.@.
    .@.@.
    ..@..
    .@.@.
    ..@..

    offset: 0 -1


u+1fab:
uni1FAB:
    @.@..
    @@.@.
    .@.@.
    .@.@.
    ..@..
    .@.@.
    ..@..

    offset: 0 -1


u+1fac:
uni1FAC:
    @.@..
    @@.@.
    .@.@.
    .@.@.
    ..@..
    .@.@.
    ..@..

    offset: 0 -1


u+1fad:
uni1FAD:
    @.@..
    @@.@.
    .@.@.
    .@.@.
    ..@..
    .@.@.
    ..@..

    offset: 0 -1


u+1fae:
uni1FAE:
    @.@..
    @@.@.
    .@.@.
    .@.@.
    ..@..
    .@.@.
    ..@..

    offset: 0 -1


u+1faf:
uni1FAF:
    @.@..
    @@.@.
    .@.@.
    .@.@.
    ..@..
    .@.@.
    ..@..

    offset: 0 -1


u+1fb0:
uni1FB0:
    @..@.
    .@@..
    .@@@.
    @..@.
    @.@@.
    .@.@.
    .....

    offset: 0 -1


u+1fb1:
uni1FB1:
    @@@@.
    .....
    .@@@.
    @..@.
    @.@@.
    .@.@.
    .....

    offset: 0 -1


u+1fb2:
uni1FB2:
    .@...
    ..@..
    .@@@.
    @..@.
    @.@@.
    .@.@.
    .@...

    offset: 0 -1


u+1fb3:
uni1FB3:
    .....
    .....
    .@@@.
    @..@.
    @.@@.
    .@.@.
    .@...

    offset: 0 -1


u+1fb4:
uni1FB4:
    ...@.
    ..@..
    .@@@.
    @..@.
    @.@@.
    .@.@.
    .@...

    offset: 0 -1


u+1fb6:
uni1FB6:
    .@@@.
    .....
    .@@@.
    @..@.
    @.@@.
    .@.@.
    .....

    offset: 0 -1


u+1fb7:
uni1FB7:
    .@@@.
    .....
    .@@@.
    @..@.
    @.@@.
    .@.@.
    .@...

    offset: 0 -1


u+1fb8:
uni1FB8:
    @..@.
    .@@..
    .@@..
    @..@.
    @@@@.
    @..@.
    .....

    offset: 0 -1


u+1fb9:
uni1FB9:
    @@@@.
    .....
    .@@..
    @..@.
    @@@@.
    @..@.
    .....

    offset: 0 -1


u+1fba:
uni1FBA:
    @.@..
    @@.@.
    .@.@.
    .@@@.
    .@.@.
    .@.@.
    .....

    offset: 0 -1


u+1fbb:
uni1FBB:
    @.@..
    @@.@.
    .@.@.
    .@@@.
    .@.@.
    .@.@.
    .....

    offset: 0 -1


u+1fbc:
uni1FBC:
    .@@..
    @..@.
    @..@.
    @@@@.
    @..@.
    @..@.
    .@...

    offset: 0 -1


u+1fbd:
uni1FBD:
    .@@..
    ..@..
    .....
    .....
    .....
    .....
    .....

    offset: 0 -1


u+1fbe:
uni1FBE:
    .....
    .....
    .....
    .@...
    .@...
    ..@..
    .....

    offset: 0 -1


u+1fbf:
uni1FBF:
    .@@..
    ..@..
    .....
    .....
    .....
    .....
    .....

    offset: 0 -1


u+1fc0:
uni1FC0:
    @@@..
    .....
    .....
    .....
    .....
    .....
    .....

    offset: 0 -1


u+1fc1:
uni1FC1:
    @@@..
    @.@..
    .....
    .....
    .....
    .....
    .....

    offset: 0 -1


u+1fc2:
uni1FC2:
    @....
    .@...
    @@@..
    @..@.
    @..@.
    ...@.
    @..@.

    offset: 0 -1


u+1fc3:
uni1FC3:
    .....
    .....
    @@@..
    @..@.
    @..@.
    ...@.
    @..@.

    offset: 0 -1


u+1fc4:
uni1FC4:
    ..@..
    .@...
    @@@..
    @..@.
    @..@.
    ...@.
    @..@.

    offset: 0 -1


u+1fc6:
uni1FC6:
    .@@@.
    .....
    @@@..
    @..@.
    @..@.
    @..@.
    ...@.

    offset: 0 -1


u+1fc7:
uni1FC7:
    .@@@.
    .....
    @@@..
    @..@.
    @..@.
    ...@.
    @..@.

    offset: 0 -1


u+1fc8:
uni1FC8:
    @@@@.
    @@...
    .@@..
    .@...
    .@...
    .@@@.
    .....

    offset: 0 -1


u+1fc9:
uni1FC9:
    @@@@.
    @@...
    .@@..
    .@...
    .@...
    .@@@.
    .....

    offset: 0 -1


u+1fca:
uni1FCA:
    @@.@.
    @@.@.
    .@@@.
    .@.@.
    .@.@.
    .@.@.
    .....

    offset: 0 -1


u+1fcb:
uni1FCB:
    @@.@.
    @@.@.
    .@@@.
    .@.@.
    .@.@.
    .@.@.
    .....

    offset: 0 -1


u+1fcc:
uni1FCC:
    @..@.
    @..@.
    @@@@.
    @..@.
    @..@.
    @..@.
    .@...

    offset: 0 -1


u+1fcd:
uni1FCD:
    @@@..
    .@.@.
    .....
    .....
    .....
    .....
    .....

    offset: 0 -1


u+1fce:
uni1FCE:
    @@.@.
    .@@..
    .....
    .....
    .....
    .....
    .....

    offset: 0 -1


u+1fcf:
uni1FCF:
    @@@..
    .@...
    .....
    .....
    .....
    .....
    .....

    offset: 0 -1


u+1fd0:
uni1FD0:
    @..@.
    .@@..
    .@...
    .@...
    .@...
    ..@..
    .....

    offset: 0 -1


u+1fd1:
uni1FD1:
    @@@@.
    .....
    .@...
    .@...
    .@...
    ..@..
    .....

    offset: 0 -1


u+1fd2:
uni1FD2:
    @@.@.
    ..@..
    .....
    ..@..
    ..@..
    ...@.
    .....

    offset: 0 -1


u+1fd3:
uni1FD3:
    @.@@.
    .@...
    .....
    .@...
    .@...
    ..@..
    .....

    offset: 0 -1


u+1fd6:
uni1FD6:
    @@@..
    .....
    .@...
    .@...
    .@...
    ..@..
    .....

    offset: 0 -1


u+1fd7:
uni1FD7:
    @@@..
    @.@..
    .....
    .@...
    .@...
    ..@..
    .....

    offset: 0 -1


u+1fd8:
uni1FD8:
    @..@.
    .@@..
    .@@@.
    ..@..
    ..@..
    .@@@.
    .....

    offset: 0 -1


u+1fd9:
uni1FD9:
    .@@@.
    .....
    .@@@.
    ..@..
    ..@..
    .@@@.
    .....

    offset: 0 -1


u+1fda:
uni1FDA:
    @@@@.
    @.@..
    ..@..
    ..@..
    ..@..
    .@@@.
    .....

    offset: 0 -1


u+1fdb:
uni1FDB:
    @@@@.
    @.@..
    ..@..
    ..@..
    ..@..
    .@@@.
    .....

    offset: 0 -1


u+1fdd:
uni1FDD:
    @@@..
    @..@.
    .....
    .....
    .....
    .....
    .....

    offset: 0 -1


u+1fde:
uni1FDE:
    @@.@.
    @.@..
    .....
    .....
    .....
    .....
    .....

    offset: 0 -1


u+1fdf:
uni1FDF:
    @@@..
    .@...
    .....
    .....
    .....
    .....
    .....

    offset: 0 -1


u+1fe0:
uni1FE0:
    @..@.
    .@@..
    @..@.
    @..@.
    @..@.
    .@@..
    .....

    offset: 0 -1


u+1fe1:
uni1FE1:
    @@@@.
    .....
    @..@.
    @..@.
    @..@.
    .@@..
    .....

    offset: 0 -1


u+1fe2:
uni1FE2:
    @@.@.
    ..@..
    @..@.
    @..@.
    @..@.
    .@@..
    .....

    offset: 0 -1


u+1fe3:
uni1FE3:
    @.@@.
    .@...
    @..@.
    @..@.
    @..@.
    .@@..
    .....

    offset: 0 -1


u+1fe4:
uni1FE4:
    .@@..
    ..@..
    .@@..
    @..@.
    @..@.
    @@@..
    @....

    offset: 0 -1


u+1fe5:
uni1FE5:
    .@@..
    .@...
    .@@..
    @..@.
    @..@.
    @@@..
    @....

    offset: 0 -1


u+1fe6:
uni1FE6:
    .@@@.
    .....
    @..@.
    @..@.
    @..@.
    .@@..
    .....

    offset: 0 -1


u+1fe7:
uni1FE7:
    @@@@.
    @..@.
    .....
    @..@.
    @..@.
    .@@..
    .....

    offset: 0 -1


u+1fe8:
uni1FE8:
    @..@.
    .@@..
    @.@..
    @.@..
    .@...
    .@...
    .....

    offset: 0 -1


u+1fe9:
uni1FE9:
    @@@@.
    .....
    @.@..
    @.@..
    .@...
    .@...
    .....

    offset: 0 -1


u+1fea:
uni1FEA:
    @@.@.
    @@.@.
    .@.@.
    ..@..
    ..@..
    ..@..
    .....

    offset: 0 -1


u+1feb:
uni1FEB:
    @@.@.
    @@.@.
    .@.@.
    ..@..
    ..@..
    ..@..
    .....

    offset: 0 -1


u+1fec:
uni1FEC:
    @@@..
    @@.@.
    .@.@.
    .@@..
    .@...
    .@...
    .....

    offset: 0 -1


u+1fed:
uni1FED:
    @@.@.
    ..@..
    .....
    .....
    .....
    .....
    .....

    offset: 0 -1


u+1fee:
uni1FEE:
    @.@@.
    .@...
    .....
    .....
    .....
    .....
    .....

    offset: 0 -1


u+1fef:
uni1FEF:
    .@...
    ..@..
    .....
    .....
    .....
    .....
    .....

    offset: 0 -1


u+1ff2:
uni1FF2:
    .@...
    ..@..
    @..@.
    @..@.
    @@@@.
    @@@@.
    .@...

    offset: 0 -1


u+1ff3:
uni1FF3:
    .....
    .....
    @..@.
    @..@.
    @@@@.
    @@@@.
    .@...

    offset: 0 -1


u+1ff4:
uni1FF4:
    ..@..
    .@...
    @..@.
    @..@.
    @@@@.
    @@@@.
    .@...

    offset: 0 -1


u+1ff6:
uni1FF6:
    .@@@.
    .....
    @..@.
    @..@.
    @@@@.
    @@@@.
    .....

    offset: 0 -1


u+1ff7:
uni1FF7:
    .@@@.
    .....
    @..@.
    @..@.
    @@@@.
    @@@@.
    .@...

    offset: 0 -1


u+1ff8:
uni1FF8:
    @.@..
    @@.@.
    .@.@.
    .@.@.
    .@.@.
    ..@..
    .....

    offset: 0 -1


u+1ff9:
uni1FF9:
    @.@..
    @@.@.
    .@.@.
    .@.@.
    .@.@.
    ..@..
    .....

    offset: 0 -1


u+1ffa:
uni1FFA:
    @.@..
    @@.@.
    .@.@.
    .@.@.
    ..@..
    .@.@.
    .....

    offset: 0 -1


u+1ffb:
uni1FFB:
    @.@..
    @@.@.
    .@.@.
    .@.@.
    ..@..
    .@.@.
    .....

    offset: 0 -1


u+1ffc:
uni1FFC:
    ..@..
    .@.@.
    .@.@.
    .@.@.
    ..@..
    .@.@.
    ..@..

    offset: 0 -1


u+1ffd:
uni1FFD:
    ..@..
    .@...
    .....
    .....
    .....
    .....
    .....

    offset: 0 -1


u+1ffe:
uni1FFE:
    .@@..
    .@...
    .....
    .....
    .....
    .....
    .....

    offset: 0 -1


u+2010:
uni2010:
    .....
    .....
    .....
    .@@@.
    .....
    .....
    .....

    offset: 0 -1


u+2011:
uni2011:
    .....
    .....
    .....
    .@@@.
    .....
    .....
    .....

    offset: 0 -1


u+2012:
figuredash:
    .....
    .....
    .....
    @@@@.
    .....
    .....
    .....

    offset: 0 -1


u+2013:
endash:
    .....
    .....
    .....
    @@@@.
    .....
    .....
    .....

    offset: 0 -1


u+2014:
emdash:
    .....
    .....
    .....
    @@@@@
    .....
    .....
    .....

    offset: 0 -1


u+2015:
afii00208:
    .....
    .....
    .....
    @@@@@
    .....
    .....
    .....

    offset: 0 -1


u+2016:
uni2016:
    .@.@.
    .@.@.
    .@.@.
    .@.@.
    .@.@.
    .@.@.
    .....

    offset: 0 -1


u+2017:
underscoredbl:
    .....
    .....
    .....
    .....
    @@@@.
    .....
    @@@@.

    offset: 0 -1


u+2018:
quoteleft:
    ..@..
    .@...
    .@@..
    .....
    .....
    .....
    .....

    offset: 0 -1


u+2019:
quoteright:
    .@@..
    ..@..
    .@...
    .....
    .....
    .....
    .....

    offset: 0 -1


u+201a:
quotesinglbase:
    .....
    .....
    .....
    .....
    .@@..
    ..@..
    .@...

    offset: 0 -1


u+201b:
quotereversed:
    .@@..
    .@...
    ..@..
    .....
    .....
    .....
    .....

    offset: 0 -1


u+201c:
quotedblleft:
    .@.@.
    @.@..
    @.@..
    .....
    .....
    .....
    .....

    offset: 0 -1


u+201d:
quotedblright:
    .@.@.
    .@.@.
    @.@..
    .....
    .....
    .....
    .....

    offset: 0 -1


u+201e:
quotedblbase:
    .....
    .....
    .....
    .....
    .@.@.
    .@.@.
    @.@..

    offset: 0 -1


u+201f:
uni201F:
    @.@..
    @.@..
    .@.@.
    .....
    .....
    .....
    .....

    offset: 0 -1


u+2020:
dagger:
    .....
    ..@..
    .@@@.
    ..@..
    ..@..
    ..@..
    .....

    offset: 0 -1


u+2021:
daggerdbl:
    .....
    ..@..
    .@@@.
    ..@..
    .@@@.
    ..@..
    .....

    offset: 0 -1


u+2022:
bullet:
    .....
    .....
    .@@..
    @@@@.
    @@@@.
    .@@..
    .....

    offset: 0 -1


u+2023:
uni2023:
    .....
    .@...
    .@@..
    .@@@.
    .@@..
    .@...
    .....

    offset: 0 -1


u+2024:
onedotenleader:
    .....
    .....
    .....
    .....
    .....
    ..@..
    .....

    offset: 0 -1


u+2025:
twodotenleader:
    .....
    .....
    .....
    .....
    .....
    .@.@.
    .....

    offset: 0 -1


u+2026:
ellipsis:
    .....
    .....
    .....
    .....
    .....
    @.@.@
    .....

    offset: 0 -1


u+2027:
uni2027:
    .....
    .....
    .....
    .@@..
    .....
    .....
    .....

    offset: 0 -1


u+2030:
perthousand:
    @....
    @..@.
    ..@..
    .@...
    @.@.@
    ..@.@
    .....

    offset: 0 -1


u+2032:
minute:
    ..@..
    ..@..
    .@...
    .....
    .....
    .....
    .....

    offset: 0 -1


u+2033:
second:
    .@.@.
    .@.@.
    @.@..
    .....
    .....
    .....
    .....

    offset: 0 -1


u+2034:
uni2034:
    .@@@.
    .@@@.
    @@@..
    .....
    .....
    .....
    .....

    offset: 0 -1


u+2035:
uni2035:
    .@...
    .@...
    ..@..
    .....
    .....
    .....
    .....

    offset: 0 -1


u+2036:
uni2036:
    @.@..
    @.@..
    .@.@.
    .....
    .....
    .....
    .....

    offset: 0 -1


u+2037:
uni2037:
    @@@..
    @@@..
    .@@@.
    .....
    .....
    .....
    .....

    offset: 0 -1


u+2039:
guilsinglleft:
    .....
    .....
    ..@..
    .@...
    ..@..
    .....
    .....

    offset: 0 -1


u+203a:
guilsinglright:
    .....
    .....
    .@...
    ..@..
    .@...
    .....
    .....

    offset: 0 -1


u+203c:
exclamdbl:
    .@.@.
    .@.@.
    .@.@.
    .@.@.
    .....
    .@.@.
    .....

    offset: 0 -1


u+203e:
uni203E:
    @@@@@
    .....
    .....
    .....
    .....
    .....
    .....

    offset: 0 -1


u+2044:
fraction:
    .....
    ...@.
    ..@..
    .@...
    @....
    .....
    .....

    offset: 0 -1


u+2070:
zerosuperior:
    ..@..
    .@.@.
    .@.@.
    ..@..
    .....
    .....
    .....

    offset: 0 -1


u+2071:
uni2071:
    ..@..
    .....
    ..@..
    ..@..
    .....
    .....
    .....

    offset: 0 -1


u+2074:
foursuperior:
    ..@..
    .@@..
    .@@@.
    ..@..
    .....
    .....
    .....

    offset: 0 -1


u+2075:
fivesuperior:
    .@@@.
    .@@..
    ...@.
    .@@..
    .....
    .....
    .....

    offset: 0 -1


u+2076:
sixsuperior:
    ..@@.
    .@@..
    .@.@.
    ..@..
    .....
    .....
    .....

    offset: 0 -1


u+2077:
sevensuperior:
    .@@@.
    ...@.
    ..@..
    ..@..
    .....
    .....
    .....

    offset: 0 -1


u+2078:
eightsuperior:
    ..@..
    .@.@.
    ..@..
    .@.@.
    ..@..
    .....
    .....

    offset: 0 -1


u+2079:
ninesuperior:
    ..@..
    .@.@.
    ..@@.
    .@@..
    .....
    .....
    .....

    offset: 0 -1


u+207a:
uni207A:
    .....
    ..@..
    .@@@.
    ..@..
    .....
    .....
    .....

    offset: 0 -1


u+207b:
uni207B:
    .....
    .....
    .@@@.
    .....
    .....
    .....
    .....

    offset: 0 -1


u+207c:
uni207C:
    .....
    .@@@.
    .....
    .@@@.
    .....
    .....
    .....

    offset: 0 -1


u+207d:
parenleftsuperior:
    ..@..
    .@...
    .@...
    ..@..
    .....
    .....
    .....

    offset: 0 -1


u+207e:
parenrightsuperior:
    ..@..
    ...@.
    ...@.
    ..@..
    .....
    .....
    .....

    offset: 0 -1


u+207f:
nsuperior:
    .....
    .@@..
    .@.@.
    .@.@.
    .....
    .....
    .....

    offset: 0 -1


u+2080:
zeroinferior:
    .....
    .....
    .....
    ..@..
    .@.@.
    .@.@.
    ..@..

    offset: 0 -1


u+2081:
oneinferior:
    .....
    .....
    .....
    ..@..
    .@@..
    ..@..
    .@@@.

    offset: 0 -1


u+2082:
twoinferior:
    .....
    .....
    .....
    .@@..
    ..@..
    .@...
    .@@..

    offset: 0 -1


u+2083:
threeinferior:
    .....
    .....
    .....
    .@@..
    .@@..
    ..@..
    .@@..

    offset: 0 -1


u+2084:
fourinferior:
    .....
    .....
    .....
    ..@..
    .@@..
    .@@@.
    ..@..

    offset: 0 -1


u+2085:
fiveinferior:
    .....
    .....
    .....
    .@@@.
    .@@..
    ...@.
    .@@..

    offset: 0 -1


u+2086:
sixinferior:
    .....
    .....
    .....
    ..@@.
    .@@..
    .@.@.
    ..@..

    offset: 0 -1


u+2087:
seveninferior:
    .....
    .....
    .....
    .@@@.
    ...@.
    ..@..
    ..@..

    offset: 0 -1


u+2088:
eightinferior:
    .....
    .....
    ..@..
    .@.@.
    ..@..
    .@.@.
    ..@..

    offset: 0 -1


u+2089:
nineinferior:
    .....
    .....
    .....
    ..@..
    .@.@.
    ..@@.
    .@@..

    offset: 0 -1


u+208a:
uni208A:
    .....
    .....
    .....
    .....
    ..@..
    .@@@.
    ..@..

    offset: 0 -1


u+208b:
uni208B:
    .....
    .....
    .....
    .....
    .....
    .@@@.
    .....

    offset: 0 -1


u+208c:
uni208C:
    .....
    .....
    .....
    .....
    .@@@.
    .....
    .@@@.

    offset: 0 -1


u+208d:
parenleftinferior:
    .....
    .....
    .....
    ..@..
    .@...
    .@...
    ..@..

    offset: 0 -1


u+208e:
parenrightinferior:
    .....
    .....
    .....
    ..@..
    ...@.
    ...@.
    ..@..

    offset: 0 -1


u+20a3:
franc:
    @@@@.
    @....
    @@.@@
    @.@..
    @.@..
    @.@..
    .....

    offset: 0 -1


u+20a4:
lira:
    ..@@.
    .@...
    @@@..
    @@@..
    .@...
    @.@@.
    .....

    offset: 0 -1


u+20a7:
peseta:
    .@@..
    .@.@.
    @@@@@
    .@@@.
    .@...
    .@...
    .....

    offset: 0 -1


u+20ab:
dong:
    ...@.
    ..@@@
    .@@@.
    @..@.
    @..@.
    .@@@.
    @@@@.

    offset: 0 -1


u+20ac:
Euro:
    ..@@.
    .@...
    @@@..
    @@@..
    .@...
    ..@@.
    .....

    offset: 0 -1


u+20af:
uni20AF:
    .@...
    .@@..
    @@.@.
    .@.@.
    @@.@.
    @@@..
    .....

    offset: 0 -1


u+20d0:
uni20D0:
    .@...
    @@@@@
    .....
    .....
    .....
    .....
    .....

    offset: 0 -1


u+20d1:
uni20D1:
    ...@.
    @@@@@
    .....
    .....
    .....
    .....
    .....

    offset: 0 -1


u+20d2:
uni20D2:
    ..@..
    ..@..
    ..@..
    ..@..
    ..@..
    ..@..
    ..@..

    offset: 0 -1


u+20d3:
uni20D3:
    .....
    ..@..
    ..@..
    ..@..
    ..@..
    ..@..
    ..@..

    offset: 0 -1


u+20d4:
uni20D4:
    @.@..
    @@.@.
    @@.@.
    .....
    .....
    .....
    .....

    offset: 0 -1


u+20d5:
uni20D5:
    .@.@.
    @.@@.
    @.@@.
    .....
    .....
    .....
    .....

    offset: 0 -1


u+20d6:
uni20D6:
    .@...
    @@@@@
    .@...
    .....
    .....
    .....
    .....

    offset: 0 -1


u+20d7:
uni20D7:
    ...@.
    @@@@@
    ...@.
    .....
    .....
    .....
    .....

    offset: 0 -1


u+2102:
uni2102:
    .@@..
    @@.@.
    @@...
    @@...
    @@.@.
    .@@..
    .....

    offset: 0 -1


u+2105:
afii61248:
    .@@..
    @....
    .@@@.
    .@@..
    @.@..
    .@.@.
    ..@..

    offset: 0 -1


u+2113:
afii61289:
    ..@@.
    ..@@.
    ..@@.
    ..@..
    ..@..
    .@.@.
    .....

    offset: 0 -1


u+2115:
uni2115:
    @@..@
    @@..@
    @@@.@
    @@.@@
    @@..@
    @@..@
    .....

    offset: 0 -1


u+2116:
afii61352:
    @@...
    @.@..
    @.@..
    @.@@.
    @.@.@
    @.@@.
    .....

    offset: 0 -1


u+211a:
uni211A:
    .@@..
    @@.@.
    @@.@.
    @@.@.
    @@@@.
    .@@@.
    ...@.

    offset: 0 -1


u+211d:
uni211D:
    @@@..
    @@.@.
    @@.@.
    @@@@.
    @@@..
    @@.@.
    .....

    offset: 0 -1


u+2122:
trademark:
    .@@@.
    ..@..
    ..@..
    .....
    @@@@@
    @.@.@
    @.@.@

    offset: 0 -1


u+2124:
uni2124:
    @@@@.
    ..@@.
    .@@..
    .@@..
    @@...
    @@@@.
    .....

    offset: 0 -1


u+2126:
Omega:
    ..@..
    .@.@.
    .@.@.
    .@.@.
    ..@..
    .@@@.
    .....

    offset: 0 -1


u+2127:
uni2127:
    .@@@.
    ..@..
    .@.@.
    .@.@.
    .@.@.
    ..@..
    .....

    offset: 0 -1


u+212e:
estimated:
    .....
    .....
    .@@@.
    @@.@@
    @@@..
    .@@@.
    .....

    offset: 0 -1


u+215b:
oneeighth:
    @....
    @....
    @....
    @.@@.
    ..@@.
    ..@@.
    ..@@.

    offset: 0 -1


u+215c:
threeeighths:
    @@...
    @@...
    .@...
    @@@@.
    ..@@.
    ..@@.
    ..@@.

    offset: 0 -1


u+215d:
fiveeighths:
    @@...
    @....
    .@...
    @.@@.
    ..@@.
    ..@@.
    ..@@.

    offset: 0 -1


u+215e:
seveneighths:
    @@...
    .@...
    @....
    @.@@.
    ..@@.
    ..@@.
    ..@@.

    offset: 0 -1


u+2190:
arrowleft:
    .....
    .....
    .@...
    @@@@.
    .@...
    .....
    .....

    offset: 0 -1


u+2191:
arrowup:
    ..@..
    .@@@.
    ..@..
    ..@..
    ..@..
    ..@..
    .....

    offset: 0 -1


u+2192:
arrowright:
    .....
    .....
    ..@..
    @@@@.
    ..@..
    .....
    .....

    offset: 0 -1


u+2193:
arrowdown:
    ..@..
    ..@..
    ..@..
    ..@..
    .@@@.
    ..@..
    .....

    offset: 0 -1


u+2194:
arrowboth:
    .....
    .....
    .@.@.
    @@@@@
    .@.@.
    .....
    .....

    offset: 0 -1


u+2195:
arrowupdn:
    ..@..
    .@@@.
    ..@..
    ..@..
    .@@@.
    ..@..
    .....

    offset: 0 -1


u+21a4:
uni21A4:
    .....
    .....
    .@.@.
    @@@@.
    .@.@.
    .....
    .....

    offset: 0 -1


u+21a5:
uni21A5:
    ..@..
    .@@@.
    ..@..
    ..@..
    ..@..
    .@@@.
    .....

    offset: 0 -1


u+21a6:
uni21A6:
    .....
    .....
    @.@..
    @@@@.
    @.@..
    .....
    .....

    offset: 0 -1


u+21a7:
uni21A7:
    .@@@.
    ..@..
    ..@..
    ..@..
    .@@@.
    ..@..
    .....

    offset: 0 -1


u+21a8:
arrowupdnbse:
    ..@..
    .@@@.
    ..@..
    ..@..
    .@@@.
    ..@..
    .@@@.

    offset: 0 -1


u+21c4:
uni21C4:
    ...@.
    @@@@@
    ...@.
    .@...
    @@@@@
    .@...
    .....

    offset: 0 -1


u+21c6:
uni21C6:
    .@...
    @@@@@
    .@...
    ...@.
    @@@@@
    ...@.
    .....

    offset: 0 -1


u+21cb:
uni21CB:
    .....
    .@...
    @@@@.
    .....
    @@@@.
    ..@..
    .....

    offset: 0 -1


u+21cc:
uni21CC:
    .....
    ..@..
    @@@@.
    .....
    @@@@.
    .@...
    .....

    offset: 0 -1


u+21d0:
arrowdblleft:
    ...@.
    ..@..
    .@@@@
    @....
    .@@@@
    ..@..
    ...@.

    offset: 0 -1


u+21d1:
arrowdblup:
    ..@..
    .@.@.
    @@.@@
    .@.@.
    .@.@.
    .@.@.
    .....

    offset: 0 -1


u+21d2:
arrowdblright:
    .@...
    ..@..
    @@@@.
    ....@
    @@@@.
    ..@..
    .@...

    offset: 0 -1


u+21d3:
arrowdbldown:
    .@.@.
    .@.@.
    .@.@.
    @@.@@
    .@.@.
    ..@..
    .....

    offset: 0 -1


u+21d4:
arrowdblboth:
    .....
    ..@..
    .@@@.
    @...@
    .@@@.
    ..@..
    .....

    offset: 0 -1


u+21d5:
uni21D5:
    ..@..
    .@.@.
    @@.@@
    .@.@.
    @@.@@
    .@.@.
    ..@..

    offset: 0 -1


u+2200:
universal:
    @..@.
    @..@.
    @@@@.
    @..@.
    @..@.
    .@@..
    .....

    offset: 0 -1


u+2201:
uni2201:
    ..@..
    .@.@.
    .@...
    .@...
    .@.@.
    ..@..
    .....

    offset: 0 -1


u+2202:
partialdiff:
    ..@..
    ...@.
    ..@@.
    .@.@.
    .@.@.
    ..@..
    .....

    offset: 0 -1


u+2203:
existential:
    @@@@.
    ...@.
    .@@@.
    ...@.
    ...@.
    @@@@.
    .....

    offset: 0 -1


u+2204:
uni2204:
    ..@..
    @@@@.
    .@.@.
    .@@@.
    .@.@.
    @@@@.
    .@...

    offset: 0 -1


u+2205:
emptyset:
    ...@.
    .@@@.
    @.@@.
    @@.@.
    @@.@.
    @@@..
    @....

    offset: 0 -1


u+2206:
Delta:
    ..@..
    ..@..
    .@.@.
    .@.@.
    @...@
    @@@@@
    .....

    offset: 0 -1


u+2207:
gradient:
    @@@@@
    @...@
    .@.@.
    .@.@.
    ..@..
    ..@..
    .....

    offset: 0 -1


u+2208:
element:
    .....
    .@@@.
    @....
    @@@@.
    @....
    .@@@.
    .....

    offset: 0 -1


u+2209:
notelement:
    ...@.
    .@@@.
    @.@..
    @@@@.
    @.@..
    .@@@.
    .@...

    offset: 0 -1


u+220a:
uni220A:
    .....
    ..@@.
    .@...
    .@@@.
    .@...
    ..@@.
    .....

    offset: 0 -1


u+220b:
suchthat:
    .....
    @@@..
    ...@.
    @@@@.
    ...@.
    @@@..
    .....

    offset: 0 -1


u+220c:
uni220C:
    ..@..
    @@@..
    .@.@.
    @@@@.
    .@.@.
    @@@..
    @....

    offset: 0 -1


u+220d:
uni220D:
    .....
    .@@..
    ...@.
    .@@@.
    ...@.
    .@@..
    .....

    offset: 0 -1


u+220e:
uni220E:
    .....
    @@@@.
    @@@@.
    @@@@.
    @@@@.
    @@@@.
    .....

    offset: 0 -1


u+220f:
product:
    @@@@@
    .@.@.
    .@.@.
    .@.@.
    .@.@.
    @@.@@
    .....

    offset: 0 -1


u+2210:
uni2210:
    @@.@@
    .@.@.
    .@.@.
    .@.@.
    .@.@.
    @@@@@
    .....

    offset: 0 -1


u+2211:
summation:
    @@@@.
    .@...
    ..@..
    .@...
    @....
    @@@@.
    .....

    offset: 0 -1


u+2212:
minus:
    .....
    .....
    .....
    @@@@@
    .....
    .....
    .....

    offset: 0 -1


u+2213:
uni2213:
    @@@@@
    ..@..
    ..@..
    @@@@@
    ..@..
    ..@..
    .....

    offset: 0 -1


u+2214:
uni2214:
    ..@..
    .....
    ..@..
    ..@..
    @@@@@
    ..@..
    ..@..

    offset: 0 -1


u+2215:
fraction:
    ...@.
    ...@.
    ..@..
    .@...
    @....
    @....
    .....

    offset: 0 -1


u+2216:
uni2216:
    .....
    .....
    @....
    .@...
    ..@..
    ...@.
    .....

    offset: 0 -1


u+2217:
asteriskmath:
    .....
    ..@..
    @.@.@
    .@@@.
    @.@.@
    ..@..
    .....

    offset: 0 -1


u+2218:
uni2218:
    .....
    .....
    ..@..
    .@.@.
    ..@..
    .....
    .....

    offset: 0 -1


u+2219:
periodcentered:
    .....
    .....
    ..@..
    .@@@.
    ..@..
    .....
    .....

    offset: 0 -1


u+221a:
radical:
    ....@
    ...@.
    ...@.
    ..@..
    @.@..
    .@...
    .....

    offset: 0 -1


u+221b:
uni221B:
    @...@
    @@.@.
    @..@.
    ..@..
    @.@..
    .@...
    .....

    offset: 0 -1


u+221c:
uni221C:
    @...@
    @@.@.
    .@.@.
    ..@..
    @.@..
    .@...
    .....

    offset: 0 -1


u+221d:
proportional:
    .....
    .....
    .@.@.
    @.@..
    @.@..
    .@.@.
    .....

    offset: 0 -1


u+221e:
infinity:
    .....
    .....
    .@.@.
    @.@.@
    @.@.@
    .@.@.
    .....

    offset: 0 -1


u+221f:
orthogonal:
    .....
    .....
    @....
    @....
    @....
    @@@@.
    .....

    offset: 0 -1


u+2220:
angle:
    .....
    .....
    ...@.
    ..@..
    .@...
    @@@@.
    .....

    offset: 0 -1


u+2221:
uni2221:
    .....
    .....
    ...@.
    @.@..
    .@...
    @@@@.
    ..@..

    offset: 0 -1


u+2222:
uni2222:
    .....
    .@.@.
    .@@..
    @.@..
    .@@..
    .@.@.
    .....

    offset: 0 -1


u+2223:
uni2223:
    ..@..
    ..@..
    ..@..
    ..@..
    ..@..
    ..@..
    .....

    offset: 0 -1


u+2224:
uni2224:
    ..@..
    ..@..
    ..@@.
    .@@..
    ..@..
    ..@..
    .....

    offset: 0 -1


u+2225:
uni2225:
    .@.@.
    .@.@.
    .@.@.
    .@.@.
    .@.@.
    .@.@.
    .....

    offset: 0 -1


u+2226:
uni2226:
    .@.@.
    .@.@@
    .@@@.
    .@@@.
    @@.@.
    .@.@.
    .....

    offset: 0 -1


u+2227:
logicaland:
    .....
    .....
    ..@..
    ..@..
    .@.@.
    .@.@.
    .....

    offset: 0 -1


u+2228:
logicalor:
    .....
    .....
    .@.@.
    .@.@.
    ..@..
    ..@..
    .....

    offset: 0 -1


u+2229:
intersection:
    .....
    .....
    .@@..
    @..@.
    @..@.
    @..@.
    .....

    offset: 0 -1


u+222a:
union:
    .....
    .....
    @..@.
    @..@.
    @..@.
    .@@..
    .....

    offset: 0 -1


u+222b:
integral:
    ...@.
    ..@.@
    ..@..
    ..@..
    ..@..
    @.@..
    .@...

    offset: 0 -1


u+222c:
uni222C:
    ..@.@
    .@.@.
    .@.@.
    .@.@.
    .@.@.
    .@.@.
    @.@..

    offset: 0 -1


u+222d:
uni222D:
    ..@@@
    .@@@.
    .@@@.
    .@@@.
    .@@@.
    .@@@.
    @@@..

    offset: 0 -1


u+222e:
uni222E:
    ...@.
    ..@.@
    .@@@.
    @.@.@
    .@@@.
    @.@..
    .@...

    offset: 0 -1


u+222f:
uni222F:
    ..@.@
    .@.@.
    .@@@.
    @@.@@
    .@@@.
    .@.@.
    @.@..

    offset: 0 -1


u+2230:
uni2230:
    ..@@@
    .@@@.
    .@@@.
    @@@@@
    .@@@.
    .@@@.
    @@@..

    offset: 0 -1


u+2234:
therefore:
    .....
    .....
    ..@..
    .....
    .@.@.
    .....
    .....

    offset: 0 -1


u+2235:
uni2235:
    .....
    .....
    .@.@.
    .....
    ..@..
    .....
    .....

    offset: 0 -1


u+2236:
uni2236:
    .....
    .....
    ..@..
    .....
    .....
    ..@..
    .....

    offset: 0 -1


u+2237:
uni2237:
    .....
    .....
    @..@.
    .....
    .....
    @..@.
    .....

    offset: 0 -1


u+2238:
uni2238:
    .....
    .....
    ..@..
    .....
    @@@@@
    .....
    .....

    offset: 0 -1


u+2239:
uni2239:
    .....
    .....
    ...@.
    @@...
    ...@.
    .....
    .....

    offset: 0 -1


u+223a:
uni223A:
    .....
    @..@.
    .....
    @@@@.
    .....
    @..@.
    .....

    offset: 0 -1


u+223c:
similar:
    .....
    .....
    .....
    .@.@.
    @.@..
    .....
    .....

    offset: 0 -1


u+2243:
uni2243:
    .....
    .@.@.
    @.@..
    .....
    @@@@.
    .....
    .....

    offset: 0 -1


u+2245:
congruent:
    .@.@.
    @.@..
    .....
    @@@@.
    .....
    @@@@.
    .....

    offset: 0 -1


u+2248:
approxequal:
    .....
    .@.@.
    @.@..
    .....
    .@.@.
    @.@..
    .....

    offset: 0 -1


u+2249:
uni2249:
    ...@.
    .@.@.
    @.@..
    ..@..
    .@.@.
    @.@..
    @....

    offset: 0 -1


u+2259:
uni2259:
    ..@..
    .@.@.
    .....
    @@@@.
    .....
    @@@@.
    .....

    offset: 0 -1


u+225a:
uni225A:
    .@.@.
    ..@..
    .....
    @@@@.
    .....
    @@@@.
    .....

    offset: 0 -1


u+225f:
uni225F:
    .@@..
    ..@..
    .....
    ..@..
    @@@@.
    .....
    @@@@.

    offset: 0 -1


u+2260:
notequal:
    .....
    ...@.
    @@@@.
    ..@..
    @@@@.
    .@...
    .....

    offset: 0 -1


u+2261:
equivalence:
    .....
    @@@@.
    .....
    @@@@.
    .....
    @@@@.
    .....

    offset: 0 -1


u+2262:
uni2262:
    ...@.
    @@@@.
    ..@..
    @@@@.
    ..@..
    @@@@.
    .@...

    offset: 0 -1


u+2263:
uni2263:
    @@@@.
    .....
    @@@@.
    .....
    @@@@.
    .....
    @@@@.

    offset: 0 -1


u+2264:
lessequal:
    ...@.
    ..@..
    .@...
    ..@..
    ...@.
    .@@@.
    .....

    offset: 0 -1


u+2265:
greaterequal:
    .@...
    ..@..
    ...@.
    ..@..
    .@...
    .@@@.
    .....

    offset: 0 -1


u+226a:
uni226A:
    .....
    ..@.@
    .@.@.
    @.@..
    .@.@.
    ..@.@
    .....

    offset: 0 -1


u+226b:
uni226B:
    .....
    @.@..
    .@.@.
    ..@.@
    .@.@.
    @.@..
    .....

    offset: 0 -1


u+2282:
propersubset:
    .....
    .....
    .@@@.
    @....
    @....
    .@@@.
    .....

    offset: 0 -1


u+2283:
propersuperset:
    .....
    .....
    @@@..
    ...@.
    ...@.
    @@@..
    .....

    offset: 0 -1


u+2284:
notsubset:
    .....
    ..@..
    .@@@.
    @.@..
    @.@..
    .@@@.
    ..@..

    offset: 0 -1


u+2285:
uni2285:
    .....
    .@...
    @@@..
    .@.@.
    .@.@.
    @@@..
    .@...

    offset: 0 -1


u+2286:
reflexsubset:
    .....
    .@@@.
    @....
    .@@@.
    .....
    @@@@.
    .....

    offset: 0 -1


u+2287:
reflexsuperset:
    .....
    @@@..
    ...@.
    @@@..
    .....
    @@@@.
    .....

    offset: 0 -1


u+2288:
uni2288:
    ..@..
    .@@@.
    @.@..
    .@@@.
    ..@..
    @@@@.
    ..@..

    offset: 0 -1


u+2289:
uni2289:
    .@...
    @@@..
    .@.@.
    @@@..
    .@...
    @@@@.
    .@...

    offset: 0 -1


u+228a:
uni228A:
    .....
    .@@@.
    @....
    .@@@.
    ..@..
    @@@@.
    ..@..

    offset: 0 -1


u+228b:
uni228B:
    .....
    @@@..
    ...@.
    @@@..
    .@...
    @@@@.
    .@...

    offset: 0 -1


u+2295:
circleplus:
    .....
    .@@@.
    @.@.@
    @@@@@
    @.@.@
    .@@@.
    .....

    offset: 0 -1


u+2296:
uni2296:
    .....
    .@@@.
    @...@
    @@@@@
    @...@
    .@@@.
    .....

    offset: 0 -1


u+2297:
circlemultiply:
    .....
    .@@@.
    @@.@@
    @.@.@
    @@.@@
    .@@@.
    .....

    offset: 0 -1


u+2298:
uni2298:
    .....
    .@@@.
    @..@@
    @.@.@
    @@..@
    .@@@.
    .....

    offset: 0 -1


u+2299:
uni2299:
    .....
    .@@@.
    @...@
    @.@.@
    @...@
    .@@@.
    .....

    offset: 0 -1


u+22a2:
uni22A2:
    .....
    @....
    @....
    @@@@.
    @....
    @....
    .....

    offset: 0 -1


u+22a3:
uni22A3:
    .....
    ...@.
    ...@.
    @@@@.
    ...@.
    ...@.
    .....

    offset: 0 -1


u+22a4:
uni22A4:
    .@@@.
    ..@..
    ..@..
    ..@..
    ..@..
    ..@..
    .....

    offset: 0 -1


u+22a5:
perpendicular:
    ..@..
    ..@..
    ..@..
    ..@..
    ..@..
    .@@@.
    .....

    offset: 0 -1


u+22a6:
uni22A6:
    .....
    .@...
    .@...
    .@@@.
    .@...
    .@...
    .....

    offset: 0 -1


u+22a7:
uni22A7:
    .....
    .@...
    .@@@.
    .@...
    .@@@.
    .@...
    .....

    offset: 0 -1


u+22a8:
uni22A8:
    .....
    @....
    @@@@.
    @....
    @@@@.
    @....
    .....

    offset: 0 -1


u+22c2:
uni22C2:
    .@@..
    @..@.
    @..@.
    @..@.
    @..@.
    @..@.
    .....

    offset: 0 -1


u+22c3:
uni22C3:
    @..@.
    @..@.
    @..@.
    @..@.
    @..@.
    .@@..
    .....

    offset: 0 -1


u+22c5:
dotmath:
    .....
    .....
    .....
    ..@..
    .....
    .....
    .....

    offset: 0 -1


u+22ee:
uni22EE:
    .....
    ..@..
    .....
    ..@..
    .....
    ..@..
    .....

    offset: 0 -1


u+22ef:
uni22EF:
    .....
    .....
    .....
    @.@.@
    .....
    .....
    .....

    offset: 0 -1


u+22f0:
uni22F0:
    .....
    ....@
    .....
    ..@..
    .....
    @....
    .....

    offset: 0 -1


u+22f1:
uni22F1:
    .....
    @....
    .....
    ..@..
    .....
    ....@
    .....

    offset: 0 -1


u+2300:
uni2300:
    .....
    .@@@@
    @..@@
    @.@.@
    @@..@
    @@@@.
    .....

    offset: 0 -1


u+2302:
house:
    .....
    ..@..
    .@.@.
    @...@
    @...@
    @@@@@
    .....

    offset: 0 -1


u+2308:
uni2308:
    .@@@.
    .@...
    .@...
    .@...
    .@...
    .@...
    .....

    offset: 0 -1


u+2309:
uni2309:
    .@@@.
    ...@.
    ...@.
    ...@.
    ...@.
    ...@.
    .....

    offset: 0 -1


u+230a:
uni230A:
    .@...
    .@...
    .@...
    .@...
    .@...
    .@@@.
    .....

    offset: 0 -1


u+230b:
uni230B:
    ...@.
    ...@.
    ...@.
    ...@.
    ...@.
    .@@@.
    .....

    offset: 0 -1


u+2310:
revlogicalnot:
    .....
    .....
    .....
    @@@@.
    @....
    .....
    .....

    offset: 0 -1


u+2320:
integraltp:
    ...@.
    ..@.@
    ..@..
    ..@..
    ..@..
    ..@..
    ..@..

    offset: 0 -1


u+2321:
integralbt:
    ..@..
    ..@..
    ..@..
    ..@..
    ..@..
    @.@..
    .@...

    offset: 0 -1


u+23ba:
uni23BA:
    @@@@@
    .....
    .....
    .....
    .....
    .....
    .....

    offset: 0 -1


u+23bb:
uni23BB:
    .....
    @@@@@
    .....
    .....
    .....
    .....
    .....

    offset: 0 -1


u+23bc:
uni23BC:
    .....
    .....
    .....
    .....
    .....
    @@@@@
    .....

    offset: 0 -1


u+23bd:
uni23BD:
    .....
    .....
    .....
    .....
    .....
    .....
    @@@@@

    offset: 0 -1


u+2409:
uni2409:
    @.@..
    @@@..
    @.@..
    .@@@.
    ..@..
    ..@..
    .....

    offset: 0 -1


u+240a:
uni240A:
    @....
    @....
    @@@@.
    ..@..
    ..@@.
    ..@..
    .....

    offset: 0 -1


u+240b:
uni240B:
    @.@..
    @.@..
    .@@@@
    .@.@.
    ...@.
    ...@.
    .....

    offset: 0 -1


u+240c:
uni240C:
    @@@..
    @....
    @@@@@
    @.@..
    ..@@.
    ..@..
    .....

    offset: 0 -1


u+240d:
uni240D:
    .@@..
    @....
    @@@..
    .@.@.
    .@@..
    .@.@.
    .....

    offset: 0 -1


u+2423:
uni2423:
    .....
    .....
    .....
    .....
    @..@.
    @@@@.
    .....

    offset: 0 -1


u+2424:
uni2424:
    @@...
    @.@..
    @.@..
    @.@..
    ..@..
    ..@@@
    .....

    offset: 0 -1


u+2500:
SF100000:
    .....
    .....
    .....
    @@@@@
    .....
    .....
    .....

    offset: 0 -1


u+2501:
uni2501:
    .....
    .....
    @@@@@
    @@@@@
    .....
    .....
    .....

    offset: 0 -1


u+2502:
SF110000:
    ..@..
    ..@..
    ..@..
    ..@..
    ..@..
    ..@..
    ..@..

    offset: 0 -1


u+2503:
uni2503:
    ..@@.
    ..@@.
    ..@@.
    ..@@.
    ..@@.
    ..@@.
    ..@@.

    offset: 0 -1


u+2504:
uni2504:
    .....
    .....
    .....
    @.@.@
    .....
    .....
    .....

    offset: 0 -1


u+2505:
uni2505:
    .....
    .....
    @.@.@
    @.@.@
    .....
    .....
    .....

    offset: 0 -1


u+2506:
uni2506:
    ..@..
    .....
    ..@..
    ..@..
    .....
    ..@..
    .....

    offset: 0 -1


u+2507:
uni2507:
    ..@@.
    .....
    ..@@.
    ..@@.
    .....
    ..@@.
    .....

    offset: 0 -1


u+2508:
uni2508:
    .....
    .....
    .....
    @.@.@
    .....
    .....
    .....

    offset: 0 -1


u+2509:
uni2509:
    .....
    .....
    @.@.@
    @.@.@
    .....
    .....
    .....

    offset: 0 -1


u+250a:
uni250A:
    ..@..
    .....
    ..@..
    .....
    ..@..
    .....
    ..@..

    offset: 0 -1


u+250b:
uni250B:
    ..@@.
    .....
    ..@@.
    .....
    ..@@.
    .....
    ..@@.

    offset: 0 -1


u+250c:
SF010000:
    .....
    .....
    .....
    ..@@@
    ..@..
    ..@..
    ..@..

    offset: 0 -1


u+250d:
uni250D:
    .....
    .....
    ..@@@
    ..@@@
    ..@..
    ..@..
    ..@..

    offset: 0 -1


u+250e:
uni250E:
    .....
    .....
    .....
    ..@@@
    ..@@.
    ..@@.
    ..@@.

    offset: 0 -1


u+250f:
uni250F:
    .....
    .....
    ..@@@
    ..@@@
    ..@@.
    ..@@.
    ..@@.

    offset: 0 -1


u+2510:
SF030000:
    .....
    .....
    .....
    @@@..
    ..@..
    ..@..
    ..@..

    offset: 0 -1


u+2511:
uni2511:
    .....
    .....
    @@@..
    @@@..
    ..@..
    ..@..
    ..@..

    offset: 0 -1


u+2512:
uni2512:
    .....
    .....
    .....
    @@@@.
    ..@@.
    ..@@.
    ..@@.

    offset: 0 -1


u+2513:
uni2513:
    .....
    .....
    @@@@.
    @@@@.
    ..@@.
    ..@@.
    ..@@.

    offset: 0 -1


u+2514:
SF020000:
    ..@..
    ..@..
    ..@..
    ..@@@
    .....
    .....
    .....

    offset: 0 -1


u+2515:
uni2515:
    ..@..
    ..@..
    ..@@@
    ..@@@
    .....
    .....
    .....

    offset: 0 -1


u+2516:
uni2516:
    ..@@.
    ..@@.
    ..@@.
    ..@@@
    .....
    .....
    .....

    offset: 0 -1


u+2517:
uni2517:
    ..@@.
    ..@@.
    ..@@@
    ..@@@
    .....
    .....
    .....

    offset: 0 -1


u+2518:
SF040000:
    ..@..
    ..@..
    ..@..
    @@@..
    .....
    .....
    .....

    offset: 0 -1


u+2519:
uni2519:
    ..@..
    ..@..
    @@@..
    @@@..
    .....
    .....
    .....

    offset: 0 -1


u+251a:
uni251A:
    ..@@.
    ..@@.
    ..@@.
    @@@@.
    .....
    .....
    .....

    offset: 0 -1


u+251b:
uni251B:
    ..@@.
    ..@@.
    @@@@.
    @@@@.
    .....
    .....
    .....

    offset: 0 -1


u+251c:
SF080000:
    ..@..
    ..@..
    ..@..
    ..@@@
    ..@..
    ..@..
    ..@..

    offset: 0 -1


u+251d:
uni251D:
    ..@..
    ..@..
    ..@@@
    ..@@@
    ..@..
    ..@..
    ..@..

    offset: 0 -1


u+251e:
uni251E:
    ..@@.
    ..@@.
    ..@@.
    ..@@@
    ..@..
    ..@..
    ..@..

    offset: 0 -1


u+251f:
uni251F:
    ..@..
    ..@..
    ..@..
    ..@@@
    ..@@.
    ..@@.
    ..@@.

    offset: 0 -1


u+2520:
uni2520:
    ..@@.
    ..@@.
    ..@@.
    ..@@@
    ..@@.
    ..@@.
    ..@@.

    offset: 0 -1


u+2521:
uni2521:
    ..@@.
    ..@@.
    ..@@@
    ..@@@
    ..@..
    ..@..
    ..@..

    offset: 0 -1


u+2522:
uni2522:
    ..@..
    ..@..
    ..@@@
    ..@@@
    ..@@.
    ..@@.
    ..@@.

    offset: 0 -1


u+2523:
uni2523:
    ..@@.
    ..@@.
    ..@@@
    ..@@@
    ..@@.
    ..@@.
    ..@@.

    offset: 0 -1


u+2524:
SF090000:
    ..@..
    ..@..
    ..@..
    @@@..
    ..@..
    ..@..
    ..@..

    offset: 0 -1


u+2525:
uni2525:
    ..@..
    ..@..
    @@@..
    @@@..
    ..@..
    ..@..
    ..@..

    offset: 0 -1


u+2526:
uni2526:
    ..@@.
    ..@@.
    ..@@.
    @@@@.
    ..@..
    ..@..
    ..@..

    offset: 0 -1


u+2527:
uni2527:
    ..@..
    ..@..
    ..@..
    @@@@.
    ..@@.
    ..@@.
    ..@@.

    offset: 0 -1


u+2528:
uni2528:
    ..@@.
    ..@@.
    ..@@.
    @@@@.
    ..@@.
    ..@@.
    ..@@.

    offset: 0 -1


u+2529:
uni2529:
    ..@@.
    ..@@.
    @@@@.
    @@@@.
    ..@..
    ..@..
    ..@..

    offset: 0 -1


u+252a:
uni252A:
    ..@..
    ..@..
    @@@@.
    @@@@.
    ..@@.
    ..@@.
    ..@@.

    offset: 0 -1


u+252b:
uni252B:
    ..@@.
    ..@@.
    @@@@.
    @@@@.
    ..@@.
    ..@@.
    ..@@.

    offset: 0 -1


u+252c:
SF060000:
    .....
    .....
    .....
    @@@@@
    ..@..
    ..@..
    ..@..

    offset: 0 -1


u+252d:
uni252D:
    .....
    .....
    @@@..
    @@@@@
    ..@..
    ..@..
    ..@..

    offset: 0 -1


u+252e:
uni252E:
    .....
    .....
    ..@@@
    @@@@@
    ..@..
    ..@..
    ..@..

    offset: 0 -1


u+252f:
uni252F:
    .....
    .....
    @@@@@
    @@@@@
    ..@..
    ..@..
    ..@..

    offset: 0 -1


u+2530:
uni2530:
    .....
    .....
    .....
    @@@@@
    ..@@.
    ..@@.
    ..@@.

    offset: 0 -1


u+2531:
uni2531:
    .....
    .....
    @@@..
    @@@@@
    ..@@.
    ..@@.
    ..@@.

    offset: 0 -1


u+2532:
uni2532:
    .....
    .....
    ...@@
    @@@@@
    ..@@.
    ..@@.
    ..@@.

    offset: 0 -1


u+2533:
uni2533:
    .....
    .....
    @@@@@
    @@@@@
    ..@@.
    ..@@.
    ..@@.

    offset: 0 -1


u+2534:
SF070000:
    ..@..
    ..@..
    ..@..
    @@@@@
    .....
    .....
    .....

    offset: 0 -1


u+2535:
uni2535:
    ..@..
    ..@..
    @@@..
    @@@@@
    .....
    .....
    .....

    offset: 0 -1


u+2536:
uni2536:
    ..@..
    ..@..
    ..@@@
    @@@@@
    .....
    .....
    .....

    offset: 0 -1


u+2537:
uni2537:
    ..@..
    ..@..
    @@@@@
    @@@@@
    .....
    .....
    .....

    offset: 0 -1


u+2538:
uni2538:
    ..@@.
    ..@@.
    ..@@.
    @@@@@
    .....
    .....
    .....

    offset: 0 -1


u+2539:
uni2539:
    ..@@.
    ..@@.
    @@@@.
    @@@@@
    .....
    .....
    .....

    offset: 0 -1


u+253a:
uni253A:
    ..@@.
    ..@@.
    ..@@@
    @@@@@
    .....
    .....
    .....

    offset: 0 -1


u+253b:
uni253B:
    ..@@.
    ..@@.
    @@@@@
    @@@@@
    .....
    .....
    .....

    offset: 0 -1


u+253c:
SF050000:
    ..@..
    ..@..
    ..@..
    @@@@@
    ..@..
    ..@..
    ..@..

    offset: 0 -1


u+253d:
uni253D:
    ..@..
    ..@..
    @@@..
    @@@@@
    ..@..
    ..@..
    ..@..

    offset: 0 -1


u+253e:
uni253E:
    ..@..
    ..@..
    ..@@@
    @@@@@
    ..@..
    ..@..
    ..@..

    offset: 0 -1


u+253f:
uni253F:
    ..@..
    ..@..
    @@@@@
    @@@@@
    ..@..
    ..@..
    ..@..

    offset: 0 -1


u+2540:
uni2540:
    ..@@.
    ..@@.
    ..@@.
    @@@@@
    ..@..
    ..@..
    ..@..

    offset: 0 -1


u+2541:
uni2541:
    ..@..
    ..@..
    ..@..
    @@@@@
    ..@@.
    ..@@.
    ..@@.

    offset: 0 -1


u+2542:
uni2542:
    ..@@.
    ..@@.
    ..@@.
    @@@@@
    ..@@.
    ..@@.
    ..@@.

    offset: 0 -1


u+2543:
uni2543:
    ..@@.
    ..@@.
    @@@@.
    @@@@@
    ..@..
    ..@..
    ..@..

    offset: 0 -1


u+2544:
uni2544:
    ..@@.
    ..@@.
    ..@@@
    @@@@@
    ..@..
    ..@..
    ..@..

    offset: 0 -1


u+2545:
uni2545:
    ..@..
    ..@..
    @@@..
    @@@@@
    ..@@.
    ..@@.
    ..@@.

    offset: 0 -1


u+2546:
uni2546:
    ..@..
    ..@..
    ..@@@
    @@@@@
    ..@@.
    ..@@.
    ..@@.

    offset: 0 -1


u+2547:
uni2547:
    ..@@.
    ..@@.
    @@@@@
    @@@@@
    ..@..
    ..@..
    ..@..

    offset: 0 -1


u+2548:
uni2548:
    ..@..
    ..@..
    @@@@@
    @@@@@
    ..@@.
    ..@@.
    ..@@.

    offset: 0 -1


u+2549:
uni2549:
    ..@@.
    ..@@.
    @@@@.
    @@@@@
    ..@@.
    ..@@.
    ..@@.

    offset: 0 -1


u+254a:
uni254A:
    ..@@.
    ..@@.
    ..@@@
    @@@@@
    ..@@.
    ..@@.
    ..@@.

    offset: 0 -1


u+254b:
uni254B:
    ..@@.
    ..@@.
    @@@@@
    @@@@@
    ..@@.
    ..@@.
    ..@@.

    offset: 0 -1


u+254c:
uni254C:
    .....
    .....
    .....
    @@.@.
    .....
    .....
    .....

    offset: 0 -1


u+254d:
uni254D:
    .....
    .....
    @@.@.
    @@.@.
    .....
    .....
    .....

    offset: 0 -1


u+254e:
uni254E:
    ..@..
    ..@..
    ..@..
    .....
    ..@..
    ..@..
    .....

    offset: 0 -1


u+254f:
uni254F:
    ..@@.
    ..@@.
    ..@@.
    .....
    ..@@.
    ..@@.
    .....

    offset: 0 -1


u+2550:
SF430000:
    .....
    .....
    @@@@@
    .....
    @@@@@
    .....
    .....

    offset: 0 -1


u+2551:
SF240000:
    .@.@.
    .@.@.
    .@.@.
    .@.@.
    .@.@.
    .@.@.
    .@.@.

    offset: 0 -1


u+2552:
SF510000:
    .....
    .....
    ..@@@
    ..@..
    ..@@@
    ..@..
    ..@..

    offset: 0 -1


u+2553:
SF520000:
    .....
    .....
    .....
    .@@@@
    .@.@.
    .@.@.
    .@.@.

    offset: 0 -1


u+2554:
SF390000:
    .....
    .....
    .@@@@
    .@...
    .@.@@
    .@.@.
    .@.@.

    offset: 0 -1


u+2555:
SF220000:
    .....
    .....
    @@@..
    ..@..
    @@@..
    ..@..
    ..@..

    offset: 0 -1


u+2556:
SF210000:
    .....
    .....
    .....
    @@@@.
    .@.@.
    .@.@.
    .@.@.

    offset: 0 -1


u+2557:
SF250000:
    .....
    .....
    @@@@.
    ...@.
    @@.@.
    .@.@.
    .@.@.

    offset: 0 -1


u+2558:
SF500000:
    ..@..
    ..@..
    ..@@@
    ..@..
    ..@@@
    .....
    .....

    offset: 0 -1


u+2559:
SF490000:
    .@.@.
    .@.@.
    .@.@.
    .@@@@
    .....
    .....
    .....

    offset: 0 -1


u+255a:
SF380000:
    .@.@.
    .@.@.
    .@.@@
    .@...
    .@@@@
    .....
    .....

    offset: 0 -1


u+255b:
SF280000:
    ..@..
    ..@..
    @@@..
    ..@..
    @@@..
    .....
    .....

    offset: 0 -1


u+255c:
SF270000:
    .@.@.
    .@.@.
    .@.@.
    @@@@.
    .....
    .....
    .....

    offset: 0 -1


u+255d:
SF260000:
    .@.@.
    .@.@.
    @@.@.
    ...@.
    @@@@.
    .....
    .....

    offset: 0 -1


u+255e:
SF360000:
    ..@..
    ..@..
    ..@@@
    ..@..
    ..@@@
    ..@..
    ..@..

    offset: 0 -1


u+255f:
SF370000:
    .@.@.
    .@.@.
    .@.@.
    .@.@@
    .@.@.
    .@.@.
    .@.@.

    offset: 0 -1


u+2560:
SF420000:
    .@.@.
    .@.@.
    .@.@@
    .@...
    .@.@@
    .@.@.
    .@.@.

    offset: 0 -1


u+2561:
SF190000:
    ..@..
    ..@..
    @@@..
    ..@..
    @@@..
    ..@..
    ..@..

    offset: 0 -1


u+2562:
SF200000:
    .@.@.
    .@.@.
    .@.@.
    @@.@.
    .@.@.
    .@.@.
    .@.@.

    offset: 0 -1


u+2563:
SF230000:
    .@.@.
    .@.@.
    @@.@.
    ...@.
    @@.@.
    .@.@.
    .@.@.

    offset: 0 -1


u+2564:
SF470000:
    .....
    .....
    @@@@@
    .....
    @@@@@
    ..@..
    ..@..

    offset: 0 -1


u+2565:
SF480000:
    .....
    .....
    .....
    @@@@@
    .@.@.
    .@.@.
    .@.@.

    offset: 0 -1


u+2566:
SF410000:
    .....
    .....
    @@@@@
    .....
    @@.@@
    .@.@.
    .@.@.

    offset: 0 -1


u+2567:
SF450000:
    ..@..
    ..@..
    @@@@@
    .....
    @@@@@
    .....
    .....

    offset: 0 -1


u+2568:
SF460000:
    .@.@.
    .@.@.
    .@.@.
    @@@@@
    .....
    .....
    .....

    offset: 0 -1


u+2569:
SF400000:
    .@.@.
    .@.@.
    @@.@@
    .....
    @@@@@
    .....
    .....

    offset: 0 -1


u+256a:
SF540000:
    ..@..
    ..@..
    @@@@@
    ..@..
    @@@@@
    ..@..
    ..@..

    offset: 0 -1


u+256b:
SF530000:
    .@.@.
    .@.@.
    .@.@.
    @@@@@
    .@.@.
    .@.@.
    .@.@.

    offset: 0 -1


u+256c:
SF440000:
    .@.@.
    .@.@.
    @@.@@
    .....
    @@.@@
    .@.@.
    .@.@.

    offset: 0 -1


u+256d:
uni256D:
    .....
    .....
    .....
    ...@@
    ..@..
    ..@..
    ..@..

    offset: 0 -1


u+256e:
uni256E:
    .....
    .....
    .....
    @@...
    ..@..
    ..@..
    ..@..

    offset: 0 -1


u+256f:
uni256F:
    ..@..
    ..@..
    ..@..
    @@...
    .....
    .....
    .....

    offset: 0 -1


u+2570:
uni2570:
    ..@..
    ..@..
    ..@..
    ...@@
    .....
    .....
    .....

    offset: 0 -1


u+2571:
uni2571:
    ....@
    ...@.
    ...@.
    ..@..
    .@...
    .@...
    @....

    offset: 0 -1


u+2572:
uni2572:
    @....
    .@...
    .@...
    ..@..
    ...@.
    ...@.
    ....@

    offset: 0 -1


u+2573:
uni2573:
    @...@
    .@.@.
    .@.@.
    ..@..
    .@.@.
    .@.@.
    @...@

    offset: 0 -1


u+2574:
uni2574:
    .....
    .....
    .....
    @@@..
    .....
    .....
    .....

    offset: 0 -1


u+2575:
uni2575:
    ..@..
    ..@..
    ..@..
    ..@..
    .....
    .....
    .....

    offset: 0 -1


u+2576:
uni2576:
    .....
    .....
    .....
    ..@@@
    .....
    .....
    .....

    offset: 0 -1


u+2577:
uni2577:
    .....
    .....
    .....
    ..@..
    ..@..
    ..@..
    ..@..

    offset: 0 -1


u+2578:
uni2578:
    .....
    .....
    @@@..
    @@@..
    .....
    .....
    .....

    offset: 0 -1


u+2579:
uni2579:
    ..@@.
    ..@@.
    ..@@.
    ..@@.
    .....
    .....
    .....

    offset: 0 -1


u+257a:
uni257A:
    .....
    .....
    ..@@@
    ..@@@
    .....
    .....
    .....

    offset: 0 -1


u+257b:
uni257B:
    .....
    .....
    .....
    ..@@.
    ..@@.
    ..@@.
    ..@@.

    offset: 0 -1


u+257c:
uni257C:
    .....
    .....
    ..@@@
    @@@@@
    .....
    .....
    .....

    offset: 0 -1


u+257d:
uni257D:
    ..@..
    ..@..
    ..@..
    ..@@.
    ..@@.
    ..@@.
    ..@@.

    offset: 0 -1


u+257e:
uni257E:
    .....
    .....
    @@@..
    @@@@@
    .....
    .....
    .....

    offset: 0 -1


u+257f:
uni257F:
    ..@@.
    ..@@.
    ..@@.
    ..@@.
    ..@..
    ..@..
    ..@..

    offset: 0 -1


u+2580:
upblock:
    @@@@@
    @@@@@
    @@@@@
    .....
    .....
    .....
    .....

    offset: 0 -1


u+2581:
uni2581:
    .....
    .....
    .....
    .....
    .....
    .....
    @@@@@

    offset: 0 -1


u+2582:
uni2582:
    .....
    .....
    .....
    .....
    .....
    @@@@@
    @@@@@

    offset: 0 -1


u+2583:
uni2583:
    .....
    .....
    .....
    .....
    @@@@@
    @@@@@
    @@@@@

    offset: 0 -1


u+2584:
dnblock:
    .....
    .....
    .....
    @@@@@
    @@@@@
    @@@@@
    @@@@@

    offset: 0 -1


u+2585:
uni2585:
    .....
    .....
    .....
    @@@@@
    @@@@@
    @@@@@
    @@@@@

    offset: 0 -1


u+2586:
uni2586:
    .....
    .....
    @@@@@
    @@@@@
    @@@@@
    @@@@@
    @@@@@

    offset: 0 -1


u+2587:
uni2587:
    .....
    @@@@@
    @@@@@
    @@@@@
    @@@@@
    @@@@@
    @@@@@

    offset: 0 -1


u+2588:
block:
    @@@@@
    @@@@@
    @@@@@
    @@@@@
    @@@@@
    @@@@@
    @@@@@

    offset: 0 -1


u+2589:
uni2589:
    @@@@.
    @@@@.
    @@@@.
    @@@@.
    @@@@.
    @@@@.
    @@@@.

    offset: 0 -1


u+258a:
uni258A:
    @@@@.
    @@@@.
    @@@@.
    @@@@.
    @@@@.
    @@@@.
    @@@@.

    offset: 0 -1


u+258b:
uni258B:
    @@@..
    @@@..
    @@@..
    @@@..
    @@@..
    @@@..
    @@@..

    offset: 0 -1


u+258c:
lfblock:
    @@@..
    @@@..
    @@@..
    @@@..
    @@@..
    @@@..
    @@@..

    offset: 0 -1


u+258d:
uni258D:
    @@...
    @@...
    @@...
    @@...
    @@...
    @@...
    @@...

    offset: 0 -1


u+258e:
uni258E:
    @....
    @....
    @....
    @....
    @....
    @....
    @....

    offset: 0 -1


u+258f:
uni258F:
    @....
    @....
    @....
    @....
    @....
    @....
    @....

    offset: 0 -1


u+2590:
rtblock:
    ...@@
    ...@@
    ...@@
    ...@@
    ...@@
    ...@@
    ...@@

    offset: 0 -1


u+2591:
ltshade:
    .@...
    ...@.
    .@...
    ...@.
    .@...
    ...@.
    .....

    offset: 0 -1


u+2592:
shade:
    @.@.@
    .@.@.
    @.@.@
    .@.@.
    @.@.@
    .@.@.
    @.@.@

    offset: 0 -1


u+2593:
dkshade:
    @.@@@
    @@@.@
    @.@@@
    @@@.@
    @.@@@
    @@@.@
    @@@@@

    offset: 0 -1


u+2594:
uni2594:
    @@@@@
    .....
    .....
    .....
    .....
    .....
    .....

    offset: 0 -1


u+2595:
uni2595:
    ....@
    ....@
    ....@
    ....@
    ....@
    ....@
    ....@

    offset: 0 -1


u+2596:
uni2596:
    .....
    .....
    .....
    @@@..
    @@@..
    @@@..
    @@@..

    offset: 0 -1


u+2597:
uni2597:
    .....
    .....
    .....
    ...@@
    ...@@
    ...@@
    ...@@

    offset: 0 -1


u+2598:
uni2598:
    @@@..
    @@@..
    @@@..
    .....
    .....
    .....
    .....

    offset: 0 -1


u+2599:
uni2599:
    @@@..
    @@@..
    @@@..
    @@@@@
    @@@@@
    @@@@@
    @@@@@

    offset: 0 -1


u+259a:
uni259A:
    @@@..
    @@@..
    @@@..
    ...@@
    ...@@
    ...@@
    ...@@

    offset: 0 -1


u+259b:
uni259B:
    @@@@@
    @@@@@
    @@@@@
    @@@..
    @@@..
    @@@..
    @@@..

    offset: 0 -1


u+259c:
uni259C:
    @@@@@
    @@@@@
    @@@@@
    ...@@
    ...@@
    ...@@
    ...@@

    offset: 0 -1


u+259d:
uni259D:
    ...@@
    ...@@
    ...@@
    .....
    .....
    .....
    .....

    offset: 0 -1


u+259e:
uni259E:
    ...@@
    ...@@
    ...@@
    @@@..
    @@@..
    @@@..
    @@@..

    offset: 0 -1


u+259f:
uni259F:
    ...@@
    ...@@
    ...@@
    @@@@@
    @@@@@
    @@@@@
    @@@@@

    offset: 0 -1


u+25a0:
filledbox:
    .....
    .....
    @@@@.
    @@@@.
    @@@@.
    @@@@.
    .....

    offset: 0 -1


u+25a1:
H22073:
    .....
    .....
    @@@@.
    @..@.
    @..@.
    @@@@.
    .....

    offset: 0 -1


u+25aa:
H18543:
    .....
    .....
    .@@@.
    .@@@.
    .@@@.
    .....
    .....

    offset: 0 -1


u+25ab:
H18551:
    .....
    .....
    .@@@.
    .@.@.
    .@@@.
    .....
    .....

    offset: 0 -1


u+25ac:
filledrect:
    .....
    .....
    @@@@@
    @@@@@
    @@@@@
    .....
    .....

    offset: 0 -1


u+25ad:
uni25AD:
    .....
    .....
    @@@@@
    @...@
    @@@@@
    .....
    .....

    offset: 0 -1


u+25ae:
uni25AE:
    .....
    .@@@.
    .@@@.
    .@@@.
    .@@@.
    .@@@.
    .....

    offset: 0 -1


u+25b2:
triagup:
    ..@..
    ..@..
    .@@@.
    .@@@.
    @@@@@
    @@@@@
    .....

    offset: 0 -1


u+25b3:
uni25B3:
    ..@..
    ..@..
    .@.@.
    .@.@.
    @...@
    @@@@@
    .....

    offset: 0 -1


u+25b6:
uni25B6:
    @....
    @@...
    @@@..
    @@@@.
    @@@..
    @@...
    @....

    offset: 0 -1


u+25b7:
uni25B7:
    @....
    @@...
    @.@..
    @..@.
    @.@..
    @@...
    @....

    offset: 0 -1


u+25b8:
uni25B8:
    .....
    .@...
    .@@..
    .@@@.
    .@@..
    .@...
    .....

    offset: 0 -1


u+25b9:
uni25B9:
    .....
    .@...
    .@@..
    .@.@.
    .@@..
    .@...
    .....

    offset: 0 -1


u+25ba:
triagrt:
    .....
    @....
    @@@..
    @@@@@
    @@@..
    @....
    .....

    offset: 0 -1


u+25bb:
uni25BB:
    .....
    @....
    @@@..
    @..@@
    @@@..
    @....
    .....

    offset: 0 -1


u+25bc:
triagdn:
    @@@@@
    @@@@@
    .@@@.
    .@@@.
    ..@..
    ..@..
    .....

    offset: 0 -1


u+25bd:
uni25BD:
    @@@@@
    @...@
    .@.@.
    .@.@.
    ..@..
    ..@..
    .....

    offset: 0 -1


u+25c0:
uni25C0:
    ...@.
    ..@@.
    .@@@.
    @@@@.
    .@@@.
    ..@@.
    ...@.

    offset: 0 -1


u+25c1:
uni25C1:
    ...@.
    ..@@.
    .@.@.
    @..@.
    .@.@.
    ..@@.
    ...@.

    offset: 0 -1


u+25c2:
uni25C2:
    .....
    ...@.
    ..@@.
    .@@@.
    ..@@.
    ...@.
    .....

    offset: 0 -1


u+25c3:
uni25C3:
    .....
    ...@.
    ..@@.
    .@.@.
    ..@@.
    ...@.
    .....

    offset: 0 -1


u+25c4:
triaglf:
    .....
    ....@
    ..@@@
    @@@@@
    ..@@@
    ....@
    .....

    offset: 0 -1


u+25c5:
uni25C5:
    .....
    ....@
    ..@@@
    @@..@
    ..@@@
    ....@
    .....

    offset: 0 -1


u+25c6:
uni25C6:
    .....
    ..@..
    .@@@.
    @@@@@
    .@@@.
    ..@..
    .....

    offset: 0 -1


u+25ca:
lozenge:
    .....
    ..@..
    .@.@.
    @...@
    .@.@.
    ..@..
    .....

    offset: 0 -1


u+25cb:
circle:
    .....
    .@@@.
    @...@
    @...@
    @...@
    .@@@.
    .....

    offset: 0 -1


u+25cf:
H18533:
    .....
    .@@@.
    @@@@@
    @@@@@
    @@@@@
    .@@@.
    .....

    offset: 0 -1


u+25d8:
invbullet:
    @@@@@
    @@@@@
    @@.@@
    @...@
    @@.@@
    @@@@@
    @@@@@

    offset: 0 -1


u+25d9:
invcircle:
    @@@@@
    @@@@@
    @@.@@
    @.@.@
    @@.@@
    @@@@@
    @@@@@

    offset: 0 -1


u+25e6:
openbullet:
    .....
    .....
    .@@..
    @..@.
    @..@.
    .@@..
    .....

    offset: 0 -1


u+2639:
uni2639:
    .....
    .@.@.
    .....
    ..@..
    .@.@.
    .....
    .....

    offset: 0 -1


u+263a:
smileface:
    .....
    .@.@.
    .....
    .@.@.
    ..@..
    .....
    .....

    offset: 0 -1


u+263b:
invsmileface:
    .@@@.
    @.@.@
    @@@@@
    @.@.@
    @@.@@
    .@@@.
    .....

    offset: 0 -1


u+263c:
sun:
    ..@..
    @.@.@
    .@@@.
    @@.@@
    .@@@.
    @.@.@
    ..@..

    offset: 0 -1


u+2640:
female:
    .....
    ..@..
    .@.@.
    ..@..
    .@@@.
    ..@..
    .....

    offset: 0 -1


u+2641:
uni2641:
    .....
    ..@..
    .@@@.
    ..@..
    .@.@.
    ..@..
    .....

    offset: 0 -1


u+2642:
male:
    ..@@@
    ...@@
    .@@.@
    @.@..
    .@...
    .....
    .....

    offset: 0 -1


u+2660:
spade:
    ..@..
    .@@@.
    @@@@@
    @@@@@
    ..@..
    .@@@.
    .....

    offset: 0 -1


u+2663:
club:
    .@@@.
    .@@@.
    @.@.@
    @@@@@
    @.@.@
    ..@..
    .@@@.

    offset: 0 -1


u+2665:
heart:
    .@.@.
    @@@@@
    @@@@@
    .@@@.
    .@@@.
    ..@..
    .....

    offset: 0 -1


u+2666:
diamond:
    ..@..
    .@@@.
    @@@@@
    @@@@@
    .@@@.
    ..@..
    .....

    offset: 0 -1


u+2669:
uni2669:
    ...@.
    ...@.
    ...@.
    ..@@.
    .@@@.
    ..@..
    .....

    offset: 0 -1


u+266a:
musicalnote:
    ..@..
    ..@@.
    ..@.@
    .@@..
    @@@..
    .@...
    .....

    offset: 0 -1


u+266b:
musicalnotedbl:
    .@@..
    .@.@@
    .@..@
    @@..@
    @@.@@
    ...@@
    .....

    offset: 0 -1


u+266c:
uni266C:
    .@@@.
    .@@.@
    .@.@@
    @@..@
    @@.@@
    ...@@
    .....

    offset: 0 -1


u+266d:
uni266D:
    .@...
    .@...
    .@@@.
    .@.@.
    .@.@.
    .@@..
    .....

    offset: 0 -1


u+266e:
uni266E:
    .@...
    .@@@.
    .@.@.
    .@.@.
    .@@@.
    ...@.
    .....

    offset: 0 -1


u+266f:
uni266F:
    ...@.
    .@.@@
    .@@@.
    @@.@@
    .@@@.
    @@.@.
    .@...

    offset: 0 -1


u+27e8:
uni27E8:
    ..@..
    ..@..
    .@...
    .@...
    ..@..
    ..@..
    .....

    offset: 0 -1


u+27e9:
uni27E9:
    .@...
    .@...
    ..@..
    ..@..
    .@...
    .@...
    .....

    offset: 0 -1


u+2800:
uni2800:
    .....
    .....
    .....
    .....
    .....
    .....
    .....

    offset: 0 -1


u+2801:
uni2801:
    .@...
    .....
    .....
    .....
    .....
    .....
    .....

    offset: 0 -1


u+2802:
uni2802:
    .....
    .....
    .@...
    .....
    .....
    .....
    .....

    offset: 0 -1


u+2803:
uni2803:
    .@...
    .....
    .@...
    .....
    .....
    .....
    .....

    offset: 0 -1


u+2804:
uni2804:
    .....
    .....
    .....
    .....
    .@...
    .....
    .....

    offset: 0 -1


u+2805:
uni2805:
    .@...
    .....
    .....
    .....
    .@...
    .....
    .....

    offset: 0 -1


u+2806:
uni2806:
    .....
    .....
    .@...
    .....
    .@...
    .....
    .....

    offset: 0 -1


u+2807:
uni2807:
    .@...
    .....
    .@...
    .....
    .@...
    .....
    .....

    offset: 0 -1


u+2808:
uni2808:
    ...@.
    .....
    .....
    .....
    .....
    .....
    .....

    offset: 0 -1


u+2809:
uni2809:
    .@.@.
    .....
    .....
    .....
    .....
    .....
    .....

    offset: 0 -1


u+280a:
uni280A:
    ...@.
    .....
    .@...
    .....
    .....
    .....
    .....

    offset: 0 -1


u+280b:
uni280B:
    .@.@.
    .....
    .@...
    .....
    .....
    .....
    .....

    offset: 0 -1


u+280c:
uni280C:
    ...@.
    .....
    .....
    .....
    .@...
    .....
    .....

    offset: 0 -1


u+280d:
uni280D:
    .@.@.
    .....
    .....
    .....
    .@...
    .....
    .....

    offset: 0 -1


u+280e:
uni280E:
    ...@.
    .....
    .@...
    .....
    .@...
    .....
    .....

    offset: 0 -1


u+280f:
uni280F:
    .@.@.
    .....
    .@...
    .....
    .@...
    .....
    .....

    offset: 0 -1


u+2810:
uni2810:
    .....
    .....
    ...@.
    .....
    .....
    .....
    .....

    offset: 0 -1


u+2811:
uni2811:
    .@...
    .....
    ...@.
    .....
    .....
    .....
    .....

    offset: 0 -1


u+2812:
uni2812:
    .....
    .....
    .@.@.
    .....
    .....
    .....
    .....

    offset: 0 -1


u+2813:
uni2813:
    .@...
    .....
    .@.@.
    .....
    .....
    .....
    .....

    offset: 0 -1


u+2814:
uni2814:
    .....
    .....
    ...@.
    .....
    .@...
    .....
    .....

    offset: 0 -1


u+2815:
uni2815:
    .@...
    .....
    ...@.
    .....
    .@...
    .....
    .....

    offset: 0 -1


u+2816:
uni2816:
    .....
    .....
    .@.@.
    .....
    .@...
    .....
    .....

    offset: 0 -1


u+2817:
uni2817:
    .@...
    .....
    .@.@.
    .....
    .@...
    .....
    .....

    offset: 0 -1


u+2818:
uni2818:
    ...@.
    .....
    ...@.
    .....
    .....
    .....
    .....

    offset: 0 -1


u+2819:
uni2819:
    .@.@.
    .....
    ...@.
    .....
    .....
    .....
    .....

    offset: 0 -1


u+281a:
uni281A:
    ...@.
    .....
    .@.@.
    .....
    .....
    .....
    .....

    offset: 0 -1


u+281b:
uni281B:
    .@.@.
    .....
    .@.@.
    .....
    .....
    .....
    .....

    offset: 0 -1


u+281c:
uni281C:
    ...@.
    .....
    ...@.
    .....
    .@...
    .....
    .....

    offset: 0 -1


u+281d:
uni281D:
    .@.@.
    .....
    ...@.
    .....
    .@...
    .....
    .....

    offset: 0 -1


u+281e:
uni281E:
    ...@.
    .....
    .@.@.
    .....
    .@...
    .....
    .....

    offset: 0 -1


u+281f:
uni281F:
    .@.@.
    .....
    .@.@.
    .....
    .@...
    .....
    .....

    offset: 0 -1


u+2820:
uni2820:
    .....
    .....
    .....
    .....
    ...@.
    .....
    .....

    offset: 0 -1


u+2821:
uni2821:
    .@...
    .....
    .....
    .....
    ...@.
    .....
    .....

    offset: 0 -1


u+2822:
uni2822:
    .....
    .....
    .@...
    .....
    ...@.
    .....
    .....

    offset: 0 -1


u+2823:
uni2823:
    .@...
    .....
    .@...
    .....
    ...@.
    .....
    .....

    offset: 0 -1


u+2824:
uni2824:
    .....
    .....
    .....
    .....
    .@.@.
    .....
    .....

    offset: 0 -1


u+2825:
uni2825:
    .@...
    .....
    .....
    .....
    .@.@.
    .....
    .....

    offset: 0 -1


u+2826:
uni2826:
    .....
    .....
    .@...
    .....
    .@.@.
    .....
    .....

    offset: 0 -1


u+2827:
uni2827:
    .@...
    .....
    .@...
    .....
    .@.@.
    .....
    .....

    offset: 0 -1


u+2828:
uni2828:
    ...@.
    .....
    .....
    .....
    ...@.
    .....
    .....

    offset: 0 -1


u+2829:
uni2829:
    .@.@.
    .....
    .....
    .....
    ...@.
    .....
    .....

    offset: 0 -1


u+282a:
uni282A:
    ...@.
    .....
    .@...
    .....
    ...@.
    .....
    .....

    offset: 0 -1


u+282b:
uni282B:
    .@.@.
    .....
    .@...
    .....
    ...@.
    .....
    .....

    offset: 0 -1


u+282c:
uni282C:
    ...@.
    .....
    .....
    .....
    .@.@.
    .....
    .....

    offset: 0 -1


u+282d:
uni282D:
    .@.@.
    .....
    .....
    .....
    .@.@.
    .....
    .....

    offset: 0 -1


u+282e:
uni282E:
    ...@.
    .....
    .@...
    .....
    .@.@.
    .....
    .....

    offset: 0 -1


u+282f:
uni282F:
    .@.@.
    .....
    .@...
    .....
    .@.@.
    .....
    .....

    offset: 0 -1


u+2830:
uni2830:
    .....
    .....
    ...@.
    .....
    ...@.
    .....
    .....

    offset: 0 -1


u+2831:
uni2831:
    .@...
    .....
    ...@.
    .....
    ...@.
    .....
    .....

    offset: 0 -1


u+2832:
uni2832:
    .....
    .....
    .@.@.
    .....
    ...@.
    .....
    .....

    offset: 0 -1


u+2833:
uni2833:
    .@...
    .....
    .@.@.
    .....
    ...@.
    .....
    .....

    offset: 0 -1


u+2834:
uni2834:
    .....
    .....
    ...@.
    .....
    .@.@.
    .....
    .....

    offset: 0 -1


u+2835:
uni2835:
    .@...
    .....
    ...@.
    .....
    .@.@.
    .....
    .....

    offset: 0 -1


u+2836:
uni2836:
    .....
    .....
    .@.@.
    .....
    .@.@.
    .....
    .....

    offset: 0 -1


u+2837:
uni2837:
    .@...
    .....
    .@.@.
    .....
    .@.@.
    .....
    .....

    offset: 0 -1


u+2838:
uni2838:
    ...@.
    .....
    ...@.
    .....
    ...@.
    .....
    .....

    offset: 0 -1


u+2839:
uni2839:
    .@.@.
    .....
    ...@.
    .....
    ...@.
    .....
    .....

    offset: 0 -1


u+283a:
uni283A:
    ...@.
    .....
    .@.@.
    .....
    ...@.
    .....
    .....

    offset: 0 -1


u+283b:
uni283B:
    .@.@.
    .....
    .@.@.
    .....
    ...@.
    .....
    .....

    offset: 0 -1


u+283c:
uni283C:
    ...@.
    .....
    ...@.
    .....
    .@.@.
    .....
    .....

    offset: 0 -1


u+283d:
uni283D:
    .@.@.
    .....
    ...@.
    .....
    .@.@.
    .....
    .....

    offset: 0 -1


u+283e:
uni283E:
    ...@.
    .....
    .@.@.
    .....
    .@.@.
    .....
    .....

    offset: 0 -1


u+283f:
uni283F:
    .@.@.
    .....
    .@.@.
    .....
    .@.@.
    .....
    .....

    offset: 0 -1


u+2840:
uni2840:
    .....
    .....
    .....
    .....
    .....
    .....
    .@...

    offset: 0 -1


u+2841:
uni2841:
    .@...
    .....
    .....
    .....
    .....
    .....
    .@...

    offset: 0 -1


u+2842:
uni2842:
    .....
    .....
    .@...
    .....
    .....
    .....
    .@...

    offset: 0 -1


u+2843:
uni2843:
    .@...
    .....
    .@...
    .....
    .....
    .....
    .@...

    offset: 0 -1


u+2844:
uni2844:
    .....
    .....
    .....
    .....
    .@...
    .....
    .@...

    offset: 0 -1


u+2845:
uni2845:
    .@...
    .....
    .....
    .....
    .@...
    .....
    .@...

    offset: 0 -1


u+2846:
uni2846:
    .....
    .....
    .@...
    .....
    .@...
    .....
    .@...

    offset: 0 -1


u+2847:
uni2847:
    .@...
    .....
    .@...
    .....
    .@...
    .....
    .@...

    offset: 0 -1


u+2848:
uni2848:
    ...@.
    .....
    .....
    .....
    .....
    .....
    .@...

    offset: 0 -1


u+2849:
uni2849:
    .@.@.
    .....
    .....
    .....
    .....
    .....
    .@...

    offset: 0 -1


u+284a:
uni284A:
    ...@.
    .....
    .@...
    .....
    .....
    .....
    .@...

    offset: 0 -1


u+284b:
uni284B:
    .@.@.
    .....
    .@...
    .....
    .....
    .....
    .@...

    offset: 0 -1


u+284c:
uni284C:
    ...@.
    .....
    .....
    .....
    .@...
    .....
    .@...

    offset: 0 -1


u+284d:
uni284D:
    .@.@.
    .....
    .....
    .....
    .@...
    .....
    .@...

    offset: 0 -1


u+284e:
uni284E:
    ...@.
    .....
    .@...
    .....
    .@...
    .....
    .@...

    offset: 0 -1


u+284f:
uni284F:
    .@.@.
    .....
    .@...
    .....
    .@...
    .....
    .@...

    offset: 0 -1


u+2850:
uni2850:
    .....
    .....
    ...@.
    .....
    .....
    .....
    .@...

    offset: 0 -1


u+2851:
uni2851:
    .@...
    .....
    ...@.
    .....
    .....
    .....
    .@...

    offset: 0 -1


u+2852:
uni2852:
    .....
    .....
    .@.@.
    .....
    .....
    .....
    .@...

    offset: 0 -1


u+2853:
uni2853:
    .@...
    .....
    .@.@.
    .....
    .....
    .....
    .@...

    offset: 0 -1


u+2854:
uni2854:
    .....
    .....
    ...@.
    .....
    .@...
    .....
    .@...

    offset: 0 -1


u+2855:
uni2855:
    .@...
    .....
    ...@.
    .....
    .@...
    .....
    .@...

    offset: 0 -1


u+2856:
uni2856:
    .....
    .....
    .@.@.
    .....
    .@...
    .....
    .@...

    offset: 0 -1


u+2857:
uni2857:
    .@...
    .....
    .@.@.
    .....
    .@...
    .....
    .@...

    offset: 0 -1


u+2858:
uni2858:
    ...@.
    .....
    ...@.
    .....
    .....
    .....
    .@...

    offset: 0 -1


u+2859:
uni2859:
    .@.@.
    .....
    ...@.
    .....
    .....
    .....
    .@...

    offset: 0 -1


u+285a:
uni285A:
    ...@.
    .....
    .@.@.
    .....
    .....
    .....
    .@...

    offset: 0 -1


u+285b:
uni285B:
    .@.@.
    .....
    .@.@.
    .....
    .....
    .....
    .@...

    offset: 0 -1


u+285c:
uni285C:
    ...@.
    .....
    ...@.
    .....
    .@...
    .....
    .@...

    offset: 0 -1


u+285d:
uni285D:
    .@.@.
    .....
    ...@.
    .....
    .@...
    .....
    .@...

    offset: 0 -1


u+285e:
uni285E:
    ...@.
    .....
    .@.@.
    .....
    .@...
    .....
    .@...

    offset: 0 -1


u+285f:
uni285F:
    .@.@.
    .....
    .@.@.
    .....
    .@...
    .....
    .@...

    offset: 0 -1


u+2860:
uni2860:
    .....
    .....
    .....
    .....
    ...@.
    .....
    .@...

    offset: 0 -1


u+2861:
uni2861:
    .@...
    .....
    .....
    .....
    ...@.
    .....
    .@...

    offset: 0 -1


u+2862:
uni2862:
    .....
    .....
    .@...
    .....
    ...@.
    .....
    .@...

    offset: 0 -1


u+2863:
uni2863:
    .@...
    .....
    .@...
    .....
    ...@.
    .....
    .@...

    offset: 0 -1


u+2864:
uni2864:
    .....
    .....
    .....
    .....
    .@.@.
    .....
    .@...

    offset: 0 -1


u+2865:
uni2865:
    .@...
    .....
    .....
    .....
    .@.@.
    .....
    .@...

    offset: 0 -1


u+2866:
uni2866:
    .....
    .....
    .@...
    .....
    .@.@.
    .....
    .@...

    offset: 0 -1


u+2867:
uni2867:
    .@...
    .....
    .@...
    .....
    .@.@.
    .....
    .@...

    offset: 0 -1


u+2868:
uni2868:
    ...@.
    .....
    .....
    .....
    ...@.
    .....
    .@...

    offset: 0 -1


u+2869:
uni2869:
    .@.@.
    .....
    .....
    .....
    ...@.
    .....
    .@...

    offset: 0 -1


u+286a:
uni286A:
    ...@.
    .....
    .@...
    .....
    ...@.
    .....
    .@...

    offset: 0 -1


u+286b:
uni286B:
    .@.@.
    .....
    .@...
    .....
    ...@.
    .....
    .@...

    offset: 0 -1


u+286c:
uni286C:
    ...@.
    .....
    .....
    .....
    .@.@.
    .....
    .@...

    offset: 0 -1


u+286d:
uni286D:
    .@.@.
    .....
    .....
    .....
    .@.@.
    .....
    .@...

    offset: 0 -1


u+286e:
uni286E:
    ...@.
    .....
    .@...
    .....
    .@.@.
    .....
    .@...

    offset: 0 -1


u+286f:
uni286F:
    .@.@.
    .....
    .@...
    .....
    .@.@.
    .....
    .@...

    offset: 0 -1


u+2870:
uni2870:
    .....
    .....
    ...@.
    .....
    ...@.
    .....
    .@...

    offset: 0 -1


u+2871:
uni2871:
    .@...
    .....
    ...@.
    .....
    ...@.
    .....
    .@...

    offset: 0 -1


u+2872:
uni2872:
    .....
    .....
    .@.@.
    .....
    ...@.
    .....
    .@...

    offset: 0 -1


u+2873:
uni2873:
    .@...
    .....
    .@.@.
    .....
    ...@.
    .....
    .@...

    offset: 0 -1


u+2874:
uni2874:
    .....
    .....
    ...@.
    .....
    .@.@.
    .....
    .@...

    offset: 0 -1


u+2875:
uni2875:
    .@...
    .....
    ...@.
    .....
    .@.@.
    .....
    .@...

    offset: 0 -1


u+2876:
uni2876:
    .....
    .....
    .@.@.
    .....
    .@.@.
    .....
    .@...

    offset: 0 -1


u+2877:
uni2877:
    .@...
    .....
    .@.@.
    .....
    .@.@.
    .....
    .@...

    offset: 0 -1


u+2878:
uni2878:
    ...@.
    .....
    ...@.
    .....
    ...@.
    .....
    .@...

    offset: 0 -1


u+2879:
uni2879:
    .@.@.
    .....
    ...@.
    .....
    ...@.
    .....
    .@...

    offset: 0 -1


u+287a:
uni287A:
    ...@.
    .....
    .@.@.
    .....
    ...@.
    .....
    .@...

    offset: 0 -1


u+287b:
uni287B:
    .@.@.
    .....
    .@.@.
    .....
    ...@.
    .....
    .@...

    offset: 0 -1


u+287c:
uni287C:
    ...@.
    .....
    ...@.
    .....
    .@.@.
    .....
    .@...

    offset: 0 -1


u+287d:
uni287D:
    .@.@.
    .....
    ...@.
    .....
    .@.@.
    .....
    .@...

    offset: 0 -1


u+287e:
uni287E:
    ...@.
    .....
    .@.@.
    .....
    .@.@.
    .....
    .@...

    offset: 0 -1


u+287f:
uni287F:
    .@.@.
    .....
    .@.@.
    .....
    .@.@.
    .....
    .@...

    offset: 0 -1


u+2880:
uni2880:
    .....
    .....
    .....
    .....
    .....
    .....
    ...@.

    offset: 0 -1


u+2881:
uni2881:
    .@...
    .....
    .....
    .....
    .....
    .....
    ...@.

    offset: 0 -1


u+2882:
uni2882:
    .....
    .....
    .@...
    .....
    .....
    .....
    ...@.

    offset: 0 -1


u+2883:
uni2883:
    .@...
    .....
    .@...
    .....
    .....
    .....
    ...@.

    offset: 0 -1


u+2884:
uni2884:
    .....
    .....
    .....
    .....
    .@...
    .....
    ...@.

    offset: 0 -1


u+2885:
uni2885:
    .@...
    .....
    .....
    .....
    .@...
    .....
    ...@.

    offset: 0 -1


u+2886:
uni2886:
    .....
    .....
    .@...
    .....
    .@...
    .....
    ...@.

    offset: 0 -1


u+2887:
uni2887:
    .@...
    .....
    .@...
    .....
    .@...
    .....
    ...@.

    offset: 0 -1


u+2888:
uni2888:
    ...@.
    .....
    .....
    .....
    .....
    .....
    ...@.

    offset: 0 -1


u+2889:
uni2889:
    .@.@.
    .....
    .....
    .....
    .....
    .....
    ...@.

    offset: 0 -1


u+288a:
uni288A:
    ...@.
    .....
    .@...
    .....
    .....
    .....
    ...@.

    offset: 0 -1


u+288b:
uni288B:
    .@.@.
    .....
    .@...
    .....
    .....
    .....
    ...@.

    offset: 0 -1


u+288c:
uni288C:
    ...@.
    .....
    .....
    .....
    .@...
    .....
    ...@.

    offset: 0 -1


u+288d:
uni288D:
    .@.@.
    .....
    .....
    .....
    .@...
    .....
    ...@.

    offset: 0 -1


u+288e:
uni288E:
    ...@.
    .....
    .@...
    .....
    .@...
    .....
    ...@.

    offset: 0 -1


u+288f:
uni288F:
    .@.@.
    .....
    .@...
    .....
    .@...
    .....
    ...@.

    offset: 0 -1


u+2890:
uni2890:
    .....
    .....
    ...@.
    .....
    .....
    .....
    ...@.

    offset: 0 -1


u+2891:
uni2891:
    .@...
    .....
    ...@.
    .....
    .....
    .....
    ...@.

    offset: 0 -1


u+2892:
uni2892:
    .....
    .....
    .@.@.
    .....
    .....
    .....
    ...@.

    offset: 0 -1


u+2893:
uni2893:
    .@...
    .....
    .@.@.
    .....
    .....
    .....
    ...@.

    offset: 0 -1


u+2894:
uni2894:
    .....
    .....
    ...@.
    .....
    .@...
    .....
    ...@.

    offset: 0 -1


u+2895:
uni2895:
    .@...
    .....
    ...@.
    .....
    .@...
    .....
    ...@.

    offset: 0 -1


u+2896:
uni2896:
    .....
    .....
    .@.@.
    .....
    .@...
    .....
    ...@.

    offset: 0 -1


u+2897:
uni2897:
    .@...
    .....
    .@.@.
    .....
    .@...
    .....
    ...@.

    offset: 0 -1


u+2898:
uni2898:
    ...@.
    .....
    ...@.
    .....
    .....
    .....
    ...@.

    offset: 0 -1


u+2899:
uni2899:
    .@.@.
    .....
    ...@.
    .....
    .....
    .....
    ...@.

    offset: 0 -1


u+289a:
uni289A:
    ...@.
    .....
    .@.@.
    .....
    .....
    .....
    ...@.

    offset: 0 -1


u+289b:
uni289B:
    .@.@.
    .....
    .@.@.
    .....
    .....
    .....
    ...@.

    offset: 0 -1


u+289c:
uni289C:
    ...@.
    .....
    ...@.
    .....
    .@...
    .....
    ...@.

    offset: 0 -1


u+289d:
uni289D:
    .@.@.
    .....
    ...@.
    .....
    .@...
    .....
    ...@.

    offset: 0 -1


u+289e:
uni289E:
    ...@.
    .....
    .@.@.
    .....
    .@...
    .....
    ...@.

    offset: 0 -1


u+289f:
uni289F:
    .@.@.
    .....
    .@.@.
    .....
    .@...
    .....
    ...@.

    offset: 0 -1


u+28a0:
uni28A0:
    .....
    .....
    .....
    .....
    ...@.
    .....
    ...@.

    offset: 0 -1


u+28a1:
uni28A1:
    .@...
    .....
    .....
    .....
    ...@.
    .....
    ...@.

    offset: 0 -1


u+28a2:
uni28A2:
    .....
    .....
    .@...
    .....
    ...@.
    .....
    ...@.

    offset: 0 -1


u+28a3:
uni28A3:
    .@...
    .....
    .@...
    .....
    ...@.
    .....
    ...@.

    offset: 0 -1


u+28a4:
uni28A4:
    .....
    .....
    .....
    .....
    .@.@.
    .....
    ...@.

    offset: 0 -1


u+28a5:
uni28A5:
    .@...
    .....
    .....
    .....
    .@.@.
    .....
    ...@.

    offset: 0 -1


u+28a6:
uni28A6:
    .....
    .....
    .@...
    .....
    .@.@.
    .....
    ...@.

    offset: 0 -1


u+28a7:
uni28A7:
    .@...
    .....
    .@...
    .....
    .@.@.
    .....
    ...@.

    offset: 0 -1


u+28a8:
uni28A8:
    ...@.
    .....
    .....
    .....
    ...@.
    .....
    ...@.

    offset: 0 -1


u+28a9:
uni28A9:
    .@.@.
    .....
    .....
    .....
    ...@.
    .....
    ...@.

    offset: 0 -1


u+28aa:
uni28AA:
    ...@.
    .....
    .@...
    .....
    ...@.
    .....
    ...@.

    offset: 0 -1


u+28ab:
uni28AB:
    .@.@.
    .....
    .@...
    .....
    ...@.
    .....
    ...@.

    offset: 0 -1


u+28ac:
uni28AC:
    ...@.
    .....
    .....
    .....
    .@.@.
    .....
    ...@.

    offset: 0 -1


u+28ad:
uni28AD:
    .@.@.
    .....
    .....
    .....
    .@.@.
    .....
    ...@.

    offset: 0 -1


u+28ae:
uni28AE:
    ...@.
    .....
    .@...
    .....
    .@.@.
    .....
    ...@.

    offset: 0 -1


u+28af:
uni28AF:
    .@.@.
    .....
    .@...
    .....
    .@.@.
    .....
    ...@.

    offset: 0 -1


u+28b0:
uni28B0:
    .....
    .....
    ...@.
    .....
    ...@.
    .....
    ...@.

    offset: 0 -1


u+28b1:
uni28B1:
    .@...
    .....
    ...@.
    .....
    ...@.
    .....
    ...@.

    offset: 0 -1


u+28b2:
uni28B2:
    .....
    .....
    .@.@.
    .....
    ...@.
    .....
    ...@.

    offset: 0 -1


u+28b3:
uni28B3:
    .@...
    .....
    .@.@.
    .....
    ...@.
    .....
    ...@.

    offset: 0 -1


u+28b4:
uni28B4:
    .....
    .....
    ...@.
    .....
    .@.@.
    .....
    ...@.

    offset: 0 -1


u+28b5:
uni28B5:
    .@...
    .....
    ...@.
    .....
    .@.@.
    .....
    ...@.

    offset: 0 -1


u+28b6:
uni28B6:
    .....
    .....
    .@.@.
    .....
    .@.@.
    .....
    ...@.

    offset: 0 -1


u+28b7:
uni28B7:
    .@...
    .....
    .@.@.
    .....
    .@.@.
    .....
    ...@.

    offset: 0 -1


u+28b8:
uni28B8:
    ...@.
    .....
    ...@.
    .....
    ...@.
    .....
    ...@.

    offset: 0 -1


u+28b9:
uni28B9:
    .@.@.
    .....
    ...@.
    .....
    ...@.
    .....
    ...@.

    offset: 0 -1


u+28ba:
uni28BA:
    ...@.
    .....
    .@.@.
    .....
    ...@.
    .....
    ...@.

    offset: 0 -1


u+28bb:
uni28BB:
    .@.@.
    .....
    .@.@.
    .....
    ...@.
    .....
    ...@.

    offset: 0 -1


u+28bc:
uni28BC:
    ...@.
    .....
    ...@.
    .....
    .@.@.
    .....
    ...@.

    offset: 0 -1


u+28bd:
uni28BD:
    .@.@.
    .....
    ...@.
    .....
    .@.@.
    .....
    ...@.

    offset: 0 -1


u+28be:
uni28BE:
    ...@.
    .....
    .@.@.
    .....
    .@.@.
    .....
    ...@.

    offset: 0 -1


u+28bf:
uni28BF:
    .@.@.
    .....
    .@.@.
    .....
    .@.@.
    .....
    ...@.

    offset: 0 -1


u+28c0:
uni28C0:
    .....
    .....
    .....
    .....
    .....
    .....
    .@.@.

    offset: 0 -1


u+28c1:
uni28C1:
    .@...
    .....
    .....
    .....
    .....
    .....
    .@.@.

    offset: 0 -1


u+28c2:
uni28C2:
    .....
    .....
    .@...
    .....
    .....
    .....
    .@.@.

    offset: 0 -1


u+28c3:
uni28C3:
    .@...
    .....
    .@...
    .....
    .....
    .....
    .@.@.

    offset: 0 -1


u+28c4:
uni28C4:
    .....
    .....
    .....
    .....
    .@...
    .....
    .@.@.

    offset: 0 -1


u+28c5:
uni28C5:
    .@...
    .....
    .....
    .....
    .@...
    .....
    .@.@.

    offset: 0 -1


u+28c6:
uni28C6:
    .....
    .....
    .@...
    .....
    .@...
    .....
    .@.@.

    offset: 0 -1


u+28c7:
uni28C7:
    .@...
    .....
    .@...
    .....
    .@...
    .....
    .@.@.

    offset: 0 -1


u+28c8:
uni28C8:
    ...@.
    .....
    .....
    .....
    .....
    .....
    .@.@.

    offset: 0 -1


u+28c9:
uni28C9:
    .@.@.
    .....
    .....
    .....
    .....
    .....
    .@.@.

    offset: 0 -1


u+28ca:
uni28CA:
    ...@.
    .....
    .@...
    .....
    .....
    .....
    .@.@.

    offset: 0 -1


u+28cb:
uni28CB:
    .@.@.
    .....
    .@...
    .....
    .....
    .....
    .@.@.

    offset: 0 -1


u+28cc:
uni28CC:
    ...@.
    .....
    .....
    .....
    .@...
    .....
    .@.@.

    offset: 0 -1


u+28cd:
uni28CD:
    .@.@.
    .....
    .....
    .....
    .@...
    .....
    .@.@.

    offset: 0 -1


u+28ce:
uni28CE:
    ...@.
    .....
    .@...
    .....
    .@...
    .....
    .@.@.

    offset: 0 -1


u+28cf:
uni28CF:
    .@.@.
    .....
    .@...
    .....
    .@...
    .....
    .@.@.

    offset: 0 -1


u+28d0:
uni28D0:
    .....
    .....
    ...@.
    .....
    .....
    .....
    .@.@.

    offset: 0 -1


u+28d1:
uni28D1:
    .@...
    .....
    ...@.
    .....
    .....
    .....
    .@.@.

    offset: 0 -1


u+28d2:
uni28D2:
    .....
    .....
    .@.@.
    .....
    .....
    .....
    .@.@.

    offset: 0 -1


u+28d3:
uni28D3:
    .@...
    .....
    .@.@.
    .....
    .....
    .....
    .@.@.

    offset: 0 -1


u+28d4:
uni28D4:
    .....
    .....
    ...@.
    .....
    .@...
    .....
    .@.@.

    offset: 0 -1


u+28d5:
uni28D5:
    .@...
    .....
    ...@.
    .....
    .@...
    .....
    .@.@.

    offset: 0 -1


u+28d6:
uni28D6:
    .....
    .....
    .@.@.
    .....
    .@...
    .....
    .@.@.

    offset: 0 -1


u+28d7:
uni28D7:
    .@...
    .....
    .@.@.
    .....
    .@...
    .....
    .@.@.

    offset: 0 -1


u+28d8:
uni28D8:
    ...@.
    .....
    ...@.
    .....
    .....
    .....
    .@.@.

    offset: 0 -1


u+28d9:
uni28D9:
    .@.@.
    .....
    ...@.
    .....
    .....
    .....
    .@.@.

    offset: 0 -1


u+28da:
uni28DA:
    ...@.
    .....
    .@.@.
    .....
    .....
    .....
    .@.@.

    offset: 0 -1


u+28db:
uni28DB:
    .@.@.
    .....
    .@.@.
    .....
    .....
    .....
    .@.@.

    offset: 0 -1


u+28dc:
uni28DC:
    ...@.
    .....
    ...@.
    .....
    .@...
    .....
    .@.@.

    offset: 0 -1


u+28dd:
uni28DD:
    .@.@.
    .....
    ...@.
    .....
    .@...
    .....
    .@.@.

    offset: 0 -1


u+28de:
uni28DE:
    ...@.
    .....
    .@.@.
    .....
    .@...
    .....
    .@.@.

    offset: 0 -1


u+28df:
uni28DF:
    .@.@.
    .....
    .@.@.
    .....
    .@...
    .....
    .@.@.

    offset: 0 -1


u+28e0:
uni28E0:
    .....
    .....
    .....
    .....
    ...@.
    .....
    .@.@.

    offset: 0 -1


u+28e1:
uni28E1:
    .@...
    .....
    .....
    .....
    ...@.
    .....
    .@.@.

    offset: 0 -1


u+28e2:
uni28E2:
    .....
    .....
    .@...
    .....
    ...@.
    .....
    .@.@.

    offset: 0 -1


u+28e3:
uni28E3:
    .@...
    .....
    .@...
    .....
    ...@.
    .....
    .@.@.

    offset: 0 -1


u+28e4:
uni28E4:
    .....
    .....
    .....
    .....
    .@.@.
    .....
    .@.@.

    offset: 0 -1


u+28e5:
uni28E5:
    .@...
    .....
    .....
    .....
    .@.@.
    .....
    .@.@.

    offset: 0 -1


u+28e6:
uni28E6:
    .....
    .....
    .@...
    .....
    .@.@.
    .....
    .@.@.

    offset: 0 -1


u+28e7:
uni28E7:
    .@...
    .....
    .@...
    .....
    .@.@.
    .....
    .@.@.

    offset: 0 -1


u+28e8:
uni28E8:
    ...@.
    .....
    .....
    .....
    ...@.
    .....
    .@.@.

    offset: 0 -1


u+28e9:
uni28E9:
    .@.@.
    .....
    .....
    .....
    ...@.
    .....
    .@.@.

    offset: 0 -1


u+28ea:
uni28EA:
    ...@.
    .....
    .@...
    .....
    ...@.
    .....
    .@.@.

    offset: 0 -1


u+28eb:
uni28EB:
    .@.@.
    .....
    .@...
    .....
    ...@.
    .....
    .@.@.

    offset: 0 -1


u+28ec:
uni28EC:
    ...@.
    .....
    .....
    .....
    .@.@.
    .....
    .@.@.

    offset: 0 -1


u+28ed:
uni28ED:
    .@.@.
    .....
    .....
    .....
    .@.@.
    .....
    .@.@.

    offset: 0 -1


u+28ee:
uni28EE:
    ...@.
    .....
    .@...
    .....
    .@.@.
    .....
    .@.@.

    offset: 0 -1


u+28ef:
uni28EF:
    .@.@.
    .....
    .@...
    .....
    .@.@.
    .....
    .@.@.

    offset: 0 -1


u+28f0:
uni28F0:
    .....
    .....
    ...@.
    .....
    ...@.
    .....
    .@.@.

    offset: 0 -1


u+28f1:
uni28F1:
    .@...
    .....
    ...@.
    .....
    ...@.
    .....
    .@.@.

    offset: 0 -1


u+28f2:
uni28F2:
    .....
    .....
    .@.@.
    .....
    ...@.
    .....
    .@.@.

    offset: 0 -1


u+28f3:
uni28F3:
    .@...
    .....
    .@.@.
    .....
    ...@.
    .....
    .@.@.

    offset: 0 -1


u+28f4:
uni28F4:
    .....
    .....
    ...@.
    .....
    .@.@.
    .....
    .@.@.

    offset: 0 -1


u+28f5:
uni28F5:
    .@...
    .....
    ...@.
    .....
    .@.@.
    .....
    .@.@.

    offset: 0 -1


u+28f6:
uni28F6:
    .....
    .....
    .@.@.
    .....
    .@.@.
    .....
    .@.@.

    offset: 0 -1


u+28f7:
uni28F7:
    .@...
    .....
    .@.@.
    .....
    .@.@.
    .....
    .@.@.

    offset: 0 -1


u+28f8:
uni28F8:
    ...@.
    .....
    ...@.
    .....
    ...@.
    .....
    .@.@.

    offset: 0 -1


u+28f9:
uni28F9:
    .@.@.
    .....
    ...@.
    .....
    ...@.
    .....
    .@.@.

    offset: 0 -1


u+28fa:
uni28FA:
    ...@.
    .....
    .@.@.
    .....
    ...@.
    .....
    .@.@.

    offset: 0 -1


u+28fb:
uni28FB:
    .@.@.
    .....
    .@.@.
    .....
    ...@.
    .....
    .@.@.

    offset: 0 -1


u+28fc:
uni28FC:
    ...@.
    .....
    ...@.
    .....
    .@.@.
    .....
    .@.@.

    offset: 0 -1


u+28fd:
uni28FD:
    .@.@.
    .....
    ...@.
    .....
    .@.@.
    .....
    .@.@.

    offset: 0 -1


u+28fe:
uni28FE:
    ...@.
    .....
    .@.@.
    .....
    .@.@.
    .....
    .@.@.

    offset: 0 -1


u+28ff:
uni28FF:
    .@.@.
    .....
    .@.@.
    .....
    .@.@.
    .....
    .@.@.

    offset: 0 -1


u+fb01:
fi:
    ..@..
    .@.@.
    .@...
    @@@@.
    .@.@.
    .@.@.
    .....

    offset: 0 -1


u+fb02:
fl:
    ..@@.
    .@.@.
    .@.@.
    @@@@.
    .@.@.
    .@.@.
    .....

    offset: 0 -1


u+fffd:
uniFFFD:
    .@.@.
    @.@.@
    @@@.@
    @@.@@
    @@@@@
    @@.@@
    .@@@.

    offset: 0 -1


